%TF.GenerationSoftware,KiCad,Pcbnew,9.0.0*%
%TF.CreationDate,2025-05-08T12:22:06+01:00*%
%TF.ProjectId,BoxOfGilmour,426f784f-6647-4696-9c6d-6f75722e6b69,rev?*%
%TF.SameCoordinates,Original*%
%TF.FileFunction,Copper,L1,Top*%
%TF.FilePolarity,Positive*%
%FSLAX46Y46*%
G04 Gerber Fmt 4.6, Leading zero omitted, Abs format (unit mm)*
G04 Created by KiCad (PCBNEW 9.0.0) date 2025-05-08 12:22:06*
%MOMM*%
%LPD*%
G01*
G04 APERTURE LIST*
G04 Aperture macros list*
%AMRoundRect*
0 Rectangle with rounded corners*
0 $1 Rounding radius*
0 $2 $3 $4 $5 $6 $7 $8 $9 X,Y pos of 4 corners*
0 Add a 4 corners polygon primitive as box body*
4,1,4,$2,$3,$4,$5,$6,$7,$8,$9,$2,$3,0*
0 Add four circle primitives for the rounded corners*
1,1,$1+$1,$2,$3*
1,1,$1+$1,$4,$5*
1,1,$1+$1,$6,$7*
1,1,$1+$1,$8,$9*
0 Add four rect primitives between the rounded corners*
20,1,$1+$1,$2,$3,$4,$5,0*
20,1,$1+$1,$4,$5,$6,$7,0*
20,1,$1+$1,$6,$7,$8,$9,0*
20,1,$1+$1,$8,$9,$2,$3,0*%
G04 Aperture macros list end*
%TA.AperFunction,ComponentPad*%
%ADD10C,1.600000*%
%TD*%
%TA.AperFunction,ComponentPad*%
%ADD11O,1.600000X1.600000*%
%TD*%
%TA.AperFunction,ComponentPad*%
%ADD12R,2.000000X2.000000*%
%TD*%
%TA.AperFunction,ComponentPad*%
%ADD13C,2.000000*%
%TD*%
%TA.AperFunction,ComponentPad*%
%ADD14RoundRect,0.250000X-0.845000X0.620000X-0.845000X-0.620000X0.845000X-0.620000X0.845000X0.620000X0*%
%TD*%
%TA.AperFunction,ComponentPad*%
%ADD15O,2.190000X1.740000*%
%TD*%
%TA.AperFunction,ComponentPad*%
%ADD16RoundRect,0.250000X0.845000X-0.620000X0.845000X0.620000X-0.845000X0.620000X-0.845000X-0.620000X0*%
%TD*%
%TA.AperFunction,ComponentPad*%
%ADD17R,1.600000X1.600000*%
%TD*%
%TA.AperFunction,ComponentPad*%
%ADD18O,1.600000X1.200000*%
%TD*%
%TA.AperFunction,ComponentPad*%
%ADD19C,1.200000*%
%TD*%
%TA.AperFunction,ComponentPad*%
%ADD20R,2.200000X2.200000*%
%TD*%
%TA.AperFunction,ComponentPad*%
%ADD21O,2.200000X2.200000*%
%TD*%
%TA.AperFunction,ComponentPad*%
%ADD22RoundRect,0.250000X-0.620000X-0.845000X0.620000X-0.845000X0.620000X0.845000X-0.620000X0.845000X0*%
%TD*%
%TA.AperFunction,ComponentPad*%
%ADD23O,1.740000X2.190000*%
%TD*%
%TA.AperFunction,ComponentPad*%
%ADD24RoundRect,0.250000X0.620000X0.845000X-0.620000X0.845000X-0.620000X-0.845000X0.620000X-0.845000X0*%
%TD*%
%TA.AperFunction,ComponentPad*%
%ADD25C,1.440000*%
%TD*%
%TA.AperFunction,ComponentPad*%
%ADD26O,1.200000X1.600000*%
%TD*%
%TA.AperFunction,Conductor*%
%ADD27C,0.500000*%
%TD*%
G04 APERTURE END LIST*
D10*
%TO.P,C7,1*%
%TO.N,Net-(Q2-B)*%
X128000000Y-72000000D03*
%TO.P,C7,2*%
%TO.N,Earth*%
X128000000Y-67000000D03*
%TD*%
%TO.P,R6,1*%
%TO.N,Net-(Q1-C)*%
X126000000Y-77920000D03*
D11*
%TO.P,R6,2*%
%TO.N,Net-(C5-Pad2)*%
X126000000Y-88080000D03*
%TD*%
D10*
%TO.P,R14,1*%
%TO.N,+9V*%
X106000000Y-63840000D03*
D11*
%TO.P,R14,2*%
%TO.N,Net-(J5-Pin_2)*%
X106000000Y-74000000D03*
%TD*%
D12*
%TO.P,C10,1*%
%TO.N,Net-(J3-Pin_2)*%
X154000000Y-77000000D03*
D13*
%TO.P,C10,2*%
%TO.N,Earth*%
X154000000Y-82000000D03*
%TD*%
D10*
%TO.P,R4,1*%
%TO.N,Net-(C14-Pad1)*%
X118000000Y-63920000D03*
D11*
%TO.P,R4,2*%
%TO.N,Net-(Q1-C)*%
X118000000Y-74080000D03*
%TD*%
D14*
%TO.P,J4,1,Pin_1*%
%TO.N,Earth*%
X155000000Y-53000000D03*
D15*
%TO.P,J4,2,Pin_2*%
%TO.N,Net-(J4-Pin_2)*%
X155000000Y-55540000D03*
%TO.P,J4,3,Pin_3*%
%TO.N,Net-(J2-Pin_2)*%
X155000000Y-58080000D03*
%TD*%
D16*
%TO.P,J6,1,Pin_1*%
%TO.N,Earth*%
X98000000Y-74540000D03*
D15*
%TO.P,J6,2,Pin_2*%
%TO.N,Net-(J6-Pin_2)*%
X98000000Y-72000000D03*
%TD*%
D17*
%TO.P,C1,1*%
%TO.N,Net-(Q1-B)*%
X111000000Y-78000000D03*
D10*
%TO.P,C1,2*%
%TO.N,Net-(J6-Pin_2)*%
X111000000Y-80500000D03*
%TD*%
D18*
%TO.P,Q1,1,E*%
%TO.N,Net-(Q1-E)*%
X119000000Y-85000000D03*
D19*
%TO.P,Q1,2,B*%
%TO.N,Net-(Q1-B)*%
X120270000Y-86270000D03*
%TO.P,Q1,3,C*%
%TO.N,Net-(Q1-C)*%
X121540000Y-85000000D03*
%TD*%
D10*
%TO.P,C4,1*%
%TO.N,Net-(Q1-C)*%
X123000000Y-72000000D03*
%TO.P,C4,2*%
%TO.N,Net-(J1-Pin_2)*%
X123000000Y-67000000D03*
%TD*%
D20*
%TO.P,D2,1,K*%
%TO.N,+9V*%
X115580000Y-53000000D03*
D21*
%TO.P,D2,2,A*%
%TO.N,Earth*%
X105420000Y-53000000D03*
%TD*%
D10*
%TO.P,C11,1*%
%TO.N,Net-(C11-Pad1)*%
X146000000Y-69000000D03*
%TO.P,C11,2*%
%TO.N,Net-(J2-Pin_1)*%
X146000000Y-64000000D03*
%TD*%
D22*
%TO.P,J2,1,Pin_1*%
%TO.N,Net-(J2-Pin_1)*%
X131460000Y-54020000D03*
D23*
%TO.P,J2,2,Pin_2*%
%TO.N,Net-(J2-Pin_2)*%
X134000000Y-54020000D03*
%TO.P,J2,3,Pin_3*%
X136540000Y-54020000D03*
%TD*%
D24*
%TO.P,J3,1,Pin_1*%
%TO.N,Earth*%
X152540000Y-89980000D03*
D23*
%TO.P,J3,2,Pin_2*%
%TO.N,Net-(J3-Pin_2)*%
X150000000Y-89980000D03*
%TO.P,J3,3,Pin_3*%
%TO.N,Net-(J3-Pin_3)*%
X147460000Y-89980000D03*
%TD*%
D10*
%TO.P,C13,1*%
%TO.N,Net-(J4-Pin_2)*%
X147000000Y-57000000D03*
%TO.P,C13,2*%
%TO.N,Earth*%
X147000000Y-52000000D03*
%TD*%
D24*
%TO.P,J1,1,Pin_1*%
%TO.N,Net-(J1-Pin_1)*%
X143540000Y-89980000D03*
D23*
%TO.P,J1,2,Pin_2*%
%TO.N,Net-(J1-Pin_2)*%
X141000000Y-89980000D03*
%TO.P,J1,3,Pin_3*%
X138460000Y-89980000D03*
%TD*%
D10*
%TO.P,R12,1*%
%TO.N,Net-(Q2-B)*%
X134000000Y-77920000D03*
D11*
%TO.P,R12,2*%
%TO.N,Net-(J3-Pin_3)*%
X134000000Y-88080000D03*
%TD*%
D17*
%TO.P,C3,1*%
%TO.N,Net-(C3-Pad1)*%
X103000000Y-90500000D03*
D10*
%TO.P,C3,2*%
%TO.N,Earth*%
X103000000Y-93000000D03*
%TD*%
%TO.P,R13,1*%
%TO.N,+9V*%
X110000000Y-63840000D03*
D11*
%TO.P,R13,2*%
%TO.N,Net-(C14-Pad1)*%
X110000000Y-74000000D03*
%TD*%
D17*
%TO.P,C14,1*%
%TO.N,Net-(C14-Pad1)*%
X108000000Y-59000000D03*
D10*
%TO.P,C14,2*%
%TO.N,Earth*%
X105500000Y-59000000D03*
%TD*%
%TO.P,C12,1*%
%TO.N,Net-(J2-Pin_2)*%
X142000000Y-52000000D03*
%TO.P,C12,2*%
%TO.N,Earth*%
X142000000Y-57000000D03*
%TD*%
D25*
%TO.P,TR1(PGAIN)1,1,1*%
%TO.N,Net-(R5-Pad2)*%
X108920000Y-87000000D03*
%TO.P,TR1(PGAIN)1,2,2*%
%TO.N,Net-(C3-Pad1)*%
X111460000Y-89540000D03*
%TO.P,TR1(PGAIN)1,3,3*%
%TO.N,Earth*%
X114000000Y-87000000D03*
%TD*%
D10*
%TO.P,R10,1*%
%TO.N,Net-(C14-Pad1)*%
X140000000Y-64000000D03*
D11*
%TO.P,R10,2*%
%TO.N,Net-(C11-Pad1)*%
X140000000Y-74160000D03*
%TD*%
D16*
%TO.P,J10,1,Pin_1*%
%TO.N,Earth*%
X98000000Y-59540000D03*
D15*
%TO.P,J10,2,Pin_2*%
%TO.N,+9V*%
X98000000Y-57000000D03*
%TD*%
D14*
%TO.P,J7,1,Pin_1*%
%TO.N,Earth*%
X155000000Y-62000000D03*
D15*
%TO.P,J7,2,Pin_2*%
%TO.N,Net-(J4-Pin_2)*%
X155000000Y-64540000D03*
%TD*%
D26*
%TO.P,Q3,1,E*%
%TO.N,Net-(J3-Pin_3)*%
X154000000Y-69000000D03*
D19*
%TO.P,Q3,2,B*%
%TO.N,Net-(Q2-C)*%
X152730000Y-70270000D03*
%TO.P,Q3,3,C*%
%TO.N,Net-(Q3-C)*%
X154000000Y-71540000D03*
%TD*%
D10*
%TO.P,C5,1*%
%TO.N,Earth*%
X118000000Y-92000000D03*
%TO.P,C5,2*%
%TO.N,Net-(C5-Pad2)*%
X123000000Y-92000000D03*
%TD*%
%TO.P,C2,1*%
%TO.N,Net-(Q1-B)*%
X117000000Y-78000000D03*
%TO.P,C2,2*%
%TO.N,Net-(Q1-C)*%
X122000000Y-78000000D03*
%TD*%
%TO.P,C6,1*%
%TO.N,Net-(C5-Pad2)*%
X127000000Y-92000000D03*
%TO.P,C6,2*%
%TO.N,Net-(J1-Pin_1)*%
X132000000Y-92000000D03*
%TD*%
%TO.P,R9,1*%
%TO.N,Net-(Q2-B)*%
X136000000Y-74080000D03*
D11*
%TO.P,R9,2*%
%TO.N,Net-(Q2-C)*%
X136000000Y-63920000D03*
%TD*%
D10*
%TO.P,R2,1*%
%TO.N,Net-(C14-Pad1)*%
X114000000Y-63920000D03*
D11*
%TO.P,R2,2*%
%TO.N,Net-(Q1-B)*%
X114000000Y-74080000D03*
%TD*%
D10*
%TO.P,R8,1*%
%TO.N,Net-(Q2-C)*%
X132080000Y-74000000D03*
D11*
%TO.P,R8,2*%
%TO.N,Net-(C14-Pad1)*%
X132080000Y-63840000D03*
%TD*%
D10*
%TO.P,C8,1*%
%TO.N,Net-(Q2-B)*%
X111500000Y-59000000D03*
%TO.P,C8,2*%
%TO.N,Net-(Q2-C)*%
X116500000Y-59000000D03*
%TD*%
%TO.P,R5,1*%
%TO.N,Net-(Q1-E)*%
X106000000Y-83000000D03*
D11*
%TO.P,R5,2*%
%TO.N,Net-(R5-Pad2)*%
X95840000Y-83000000D03*
%TD*%
D10*
%TO.P,C9,1*%
%TO.N,Net-(Q2-B)*%
X139000000Y-78000000D03*
%TO.P,C9,2*%
%TO.N,Net-(J3-Pin_3)*%
X139000000Y-83000000D03*
%TD*%
D26*
%TO.P,Q2,1,E*%
%TO.N,Earth*%
X124000000Y-54460000D03*
D19*
%TO.P,Q2,2,B*%
%TO.N,Net-(Q2-B)*%
X122730000Y-55730000D03*
%TO.P,Q2,3,C*%
%TO.N,Net-(Q2-C)*%
X124000000Y-57000000D03*
%TD*%
D16*
%TO.P,J5,1,Pin_1*%
%TO.N,Earth*%
X98000000Y-66540000D03*
D15*
%TO.P,J5,2,Pin_2*%
%TO.N,Net-(J5-Pin_2)*%
X98000000Y-64000000D03*
%TD*%
D10*
%TO.P,R11,1*%
%TO.N,Net-(C11-Pad1)*%
X145000000Y-73000000D03*
D11*
%TO.P,R11,2*%
%TO.N,Net-(Q3-C)*%
X145000000Y-83160000D03*
%TD*%
D10*
%TO.P,R3,1*%
%TO.N,Net-(Q1-B)*%
X106000000Y-87000000D03*
D11*
%TO.P,R3,2*%
%TO.N,Earth*%
X95840000Y-87000000D03*
%TD*%
D10*
%TO.P,R7,1*%
%TO.N,Net-(J1-Pin_2)*%
X130000000Y-88080000D03*
D11*
%TO.P,R7,2*%
%TO.N,Net-(Q2-B)*%
X130000000Y-77920000D03*
%TD*%
D10*
%TO.P,R1,1*%
%TO.N,Net-(J6-Pin_2)*%
X106000000Y-79000000D03*
D11*
%TO.P,R1,2*%
%TO.N,Earth*%
X95840000Y-79000000D03*
%TD*%
D27*
%TO.N,Net-(Q1-B)*%
X122891000Y-83891000D02*
X122891000Y-85559603D01*
X122891000Y-85559603D02*
X121580603Y-86870000D01*
X117000000Y-78000000D02*
X122891000Y-83891000D01*
X120870000Y-86870000D02*
X120270000Y-86270000D01*
X121580603Y-86870000D02*
X120870000Y-86870000D01*
%TO.N,Net-(J1-Pin_1)*%
X143540000Y-91460000D02*
X143540000Y-89980000D01*
X132000000Y-92000000D02*
X143000000Y-92000000D01*
X143000000Y-92000000D02*
X143540000Y-91460000D01*
%TO.N,Net-(Q2-B)*%
X122500000Y-58500000D02*
X130000000Y-66000000D01*
X122730000Y-55730000D02*
X122500000Y-55960000D01*
X128000000Y-72000000D02*
X128000000Y-75920000D01*
X130000000Y-66000000D02*
X130000000Y-70000000D01*
X130000000Y-70000000D02*
X128000000Y-72000000D01*
X114770000Y-55730000D02*
X122730000Y-55730000D01*
X122500000Y-55960000D02*
X122500000Y-58500000D01*
X111500000Y-59000000D02*
X114770000Y-55730000D01*
X128000000Y-75920000D02*
X130000000Y-77920000D01*
%TO.N,Net-(Q2-C)*%
X129080000Y-57000000D02*
X136000000Y-63920000D01*
X124000000Y-57000000D02*
X129080000Y-57000000D01*
%TO.N,Net-(J3-Pin_3)*%
X153919000Y-68919000D02*
X154000000Y-69000000D01*
X134000000Y-88080000D02*
X139000000Y-83080000D01*
X139000000Y-83000000D02*
X139000000Y-81868630D01*
X151949630Y-68919000D02*
X153919000Y-68919000D01*
X139000000Y-83080000D02*
X139000000Y-83000000D01*
X139000000Y-81868630D02*
X151949630Y-68919000D01*
%TO.N,Net-(J3-Pin_2)*%
X150000000Y-81000000D02*
X154000000Y-77000000D01*
X150000000Y-89980000D02*
X150000000Y-81000000D01*
%TO.N,Net-(J2-Pin_1)*%
X135500000Y-60000000D02*
X142000000Y-60000000D01*
X131460000Y-54020000D02*
X131460000Y-55960000D01*
X142000000Y-60000000D02*
X146000000Y-64000000D01*
X131460000Y-55960000D02*
X135500000Y-60000000D01*
%TO.N,Net-(J2-Pin_2)*%
X142000000Y-52000000D02*
X143551000Y-53551000D01*
X150471000Y-53551000D02*
X155000000Y-58080000D01*
X143551000Y-53551000D02*
X150471000Y-53551000D01*
%TO.N,Net-(J4-Pin_2)*%
X147000000Y-57000000D02*
X154540000Y-64540000D01*
X154540000Y-64540000D02*
X155000000Y-64540000D01*
%TO.N,Net-(C14-Pad1)*%
X111000000Y-62000000D02*
X116080000Y-62000000D01*
X116080000Y-62000000D02*
X118000000Y-63920000D01*
X108000000Y-59000000D02*
X111000000Y-62000000D01*
%TO.N,Net-(Q1-E)*%
X106000000Y-83000000D02*
X117000000Y-83000000D01*
X117000000Y-83000000D02*
X119000000Y-85000000D01*
%TO.N,Net-(Q3-C)*%
X145000000Y-83160000D02*
X145000000Y-80540000D01*
X145000000Y-80540000D02*
X154000000Y-71540000D01*
%TD*%
M02*
