%TF.GenerationSoftware,KiCad,Pcbnew,9.0.0*%
%TF.CreationDate,2025-05-08T12:22:06+01:00*%
%TF.ProjectId,BoxOfGilmour,426f784f-6647-4696-9c6d-6f75722e6b69,rev?*%
%TF.SameCoordinates,Original*%
%TF.FileFunction,Copper,L2,Bot*%
%TF.FilePolarity,Positive*%
%FSLAX46Y46*%
G04 Gerber Fmt 4.6, Leading zero omitted, Abs format (unit mm)*
G04 Created by KiCad (PCBNEW 9.0.0) date 2025-05-08 12:22:06*
%MOMM*%
%LPD*%
G01*
G04 APERTURE LIST*
G04 Aperture macros list*
%AMRoundRect*
0 Rectangle with rounded corners*
0 $1 Rounding radius*
0 $2 $3 $4 $5 $6 $7 $8 $9 X,Y pos of 4 corners*
0 Add a 4 corners polygon primitive as box body*
4,1,4,$2,$3,$4,$5,$6,$7,$8,$9,$2,$3,0*
0 Add four circle primitives for the rounded corners*
1,1,$1+$1,$2,$3*
1,1,$1+$1,$4,$5*
1,1,$1+$1,$6,$7*
1,1,$1+$1,$8,$9*
0 Add four rect primitives between the rounded corners*
20,1,$1+$1,$2,$3,$4,$5,0*
20,1,$1+$1,$4,$5,$6,$7,0*
20,1,$1+$1,$6,$7,$8,$9,0*
20,1,$1+$1,$8,$9,$2,$3,0*%
G04 Aperture macros list end*
%TA.AperFunction,ComponentPad*%
%ADD10C,1.600000*%
%TD*%
%TA.AperFunction,ComponentPad*%
%ADD11O,1.600000X1.600000*%
%TD*%
%TA.AperFunction,ComponentPad*%
%ADD12R,2.000000X2.000000*%
%TD*%
%TA.AperFunction,ComponentPad*%
%ADD13C,2.000000*%
%TD*%
%TA.AperFunction,ComponentPad*%
%ADD14RoundRect,0.250000X-0.845000X0.620000X-0.845000X-0.620000X0.845000X-0.620000X0.845000X0.620000X0*%
%TD*%
%TA.AperFunction,ComponentPad*%
%ADD15O,2.190000X1.740000*%
%TD*%
%TA.AperFunction,ComponentPad*%
%ADD16RoundRect,0.250000X0.845000X-0.620000X0.845000X0.620000X-0.845000X0.620000X-0.845000X-0.620000X0*%
%TD*%
%TA.AperFunction,ComponentPad*%
%ADD17R,1.600000X1.600000*%
%TD*%
%TA.AperFunction,ComponentPad*%
%ADD18O,1.600000X1.200000*%
%TD*%
%TA.AperFunction,ComponentPad*%
%ADD19C,1.200000*%
%TD*%
%TA.AperFunction,ComponentPad*%
%ADD20R,2.200000X2.200000*%
%TD*%
%TA.AperFunction,ComponentPad*%
%ADD21O,2.200000X2.200000*%
%TD*%
%TA.AperFunction,ComponentPad*%
%ADD22RoundRect,0.250000X-0.620000X-0.845000X0.620000X-0.845000X0.620000X0.845000X-0.620000X0.845000X0*%
%TD*%
%TA.AperFunction,ComponentPad*%
%ADD23O,1.740000X2.190000*%
%TD*%
%TA.AperFunction,ComponentPad*%
%ADD24RoundRect,0.250000X0.620000X0.845000X-0.620000X0.845000X-0.620000X-0.845000X0.620000X-0.845000X0*%
%TD*%
%TA.AperFunction,ComponentPad*%
%ADD25C,1.440000*%
%TD*%
%TA.AperFunction,ComponentPad*%
%ADD26O,1.200000X1.600000*%
%TD*%
%TA.AperFunction,Conductor*%
%ADD27C,0.500000*%
%TD*%
%TA.AperFunction,Conductor*%
%ADD28C,0.200000*%
%TD*%
G04 APERTURE END LIST*
D10*
%TO.P,C7,1*%
%TO.N,Net-(Q2-B)*%
X128000000Y-72000000D03*
%TO.P,C7,2*%
%TO.N,Earth*%
X128000000Y-67000000D03*
%TD*%
%TO.P,R6,1*%
%TO.N,Net-(Q1-C)*%
X126000000Y-77920000D03*
D11*
%TO.P,R6,2*%
%TO.N,Net-(C5-Pad2)*%
X126000000Y-88080000D03*
%TD*%
D10*
%TO.P,R14,1*%
%TO.N,+9V*%
X106000000Y-63840000D03*
D11*
%TO.P,R14,2*%
%TO.N,Net-(J5-Pin_2)*%
X106000000Y-74000000D03*
%TD*%
D12*
%TO.P,C10,1*%
%TO.N,Net-(J3-Pin_2)*%
X154000000Y-77000000D03*
D13*
%TO.P,C10,2*%
%TO.N,Earth*%
X154000000Y-82000000D03*
%TD*%
D10*
%TO.P,R4,1*%
%TO.N,Net-(C14-Pad1)*%
X118000000Y-63920000D03*
D11*
%TO.P,R4,2*%
%TO.N,Net-(Q1-C)*%
X118000000Y-74080000D03*
%TD*%
D14*
%TO.P,J4,1,Pin_1*%
%TO.N,Earth*%
X155000000Y-53000000D03*
D15*
%TO.P,J4,2,Pin_2*%
%TO.N,Net-(J4-Pin_2)*%
X155000000Y-55540000D03*
%TO.P,J4,3,Pin_3*%
%TO.N,Net-(J2-Pin_2)*%
X155000000Y-58080000D03*
%TD*%
D16*
%TO.P,J6,1,Pin_1*%
%TO.N,Earth*%
X98000000Y-74540000D03*
D15*
%TO.P,J6,2,Pin_2*%
%TO.N,Net-(J6-Pin_2)*%
X98000000Y-72000000D03*
%TD*%
D17*
%TO.P,C1,1*%
%TO.N,Net-(Q1-B)*%
X111000000Y-78000000D03*
D10*
%TO.P,C1,2*%
%TO.N,Net-(J6-Pin_2)*%
X111000000Y-80500000D03*
%TD*%
D18*
%TO.P,Q1,1,E*%
%TO.N,Net-(Q1-E)*%
X119000000Y-85000000D03*
D19*
%TO.P,Q1,2,B*%
%TO.N,Net-(Q1-B)*%
X120270000Y-86270000D03*
%TO.P,Q1,3,C*%
%TO.N,Net-(Q1-C)*%
X121540000Y-85000000D03*
%TD*%
D10*
%TO.P,C4,1*%
%TO.N,Net-(Q1-C)*%
X123000000Y-72000000D03*
%TO.P,C4,2*%
%TO.N,Net-(J1-Pin_2)*%
X123000000Y-67000000D03*
%TD*%
D20*
%TO.P,D2,1,K*%
%TO.N,+9V*%
X115580000Y-53000000D03*
D21*
%TO.P,D2,2,A*%
%TO.N,Earth*%
X105420000Y-53000000D03*
%TD*%
D10*
%TO.P,C11,1*%
%TO.N,Net-(C11-Pad1)*%
X146000000Y-69000000D03*
%TO.P,C11,2*%
%TO.N,Net-(J2-Pin_1)*%
X146000000Y-64000000D03*
%TD*%
D22*
%TO.P,J2,1,Pin_1*%
%TO.N,Net-(J2-Pin_1)*%
X131460000Y-54020000D03*
D23*
%TO.P,J2,2,Pin_2*%
%TO.N,Net-(J2-Pin_2)*%
X134000000Y-54020000D03*
%TO.P,J2,3,Pin_3*%
X136540000Y-54020000D03*
%TD*%
D24*
%TO.P,J3,1,Pin_1*%
%TO.N,Earth*%
X152540000Y-89980000D03*
D23*
%TO.P,J3,2,Pin_2*%
%TO.N,Net-(J3-Pin_2)*%
X150000000Y-89980000D03*
%TO.P,J3,3,Pin_3*%
%TO.N,Net-(J3-Pin_3)*%
X147460000Y-89980000D03*
%TD*%
D10*
%TO.P,C13,1*%
%TO.N,Net-(J4-Pin_2)*%
X147000000Y-57000000D03*
%TO.P,C13,2*%
%TO.N,Earth*%
X147000000Y-52000000D03*
%TD*%
D24*
%TO.P,J1,1,Pin_1*%
%TO.N,Net-(J1-Pin_1)*%
X143540000Y-89980000D03*
D23*
%TO.P,J1,2,Pin_2*%
%TO.N,Net-(J1-Pin_2)*%
X141000000Y-89980000D03*
%TO.P,J1,3,Pin_3*%
X138460000Y-89980000D03*
%TD*%
D10*
%TO.P,R12,1*%
%TO.N,Net-(Q2-B)*%
X134000000Y-77920000D03*
D11*
%TO.P,R12,2*%
%TO.N,Net-(J3-Pin_3)*%
X134000000Y-88080000D03*
%TD*%
D17*
%TO.P,C3,1*%
%TO.N,Net-(C3-Pad1)*%
X103000000Y-90500000D03*
D10*
%TO.P,C3,2*%
%TO.N,Earth*%
X103000000Y-93000000D03*
%TD*%
%TO.P,R13,1*%
%TO.N,+9V*%
X110000000Y-63840000D03*
D11*
%TO.P,R13,2*%
%TO.N,Net-(C14-Pad1)*%
X110000000Y-74000000D03*
%TD*%
D17*
%TO.P,C14,1*%
%TO.N,Net-(C14-Pad1)*%
X108000000Y-59000000D03*
D10*
%TO.P,C14,2*%
%TO.N,Earth*%
X105500000Y-59000000D03*
%TD*%
%TO.P,C12,1*%
%TO.N,Net-(J2-Pin_2)*%
X142000000Y-52000000D03*
%TO.P,C12,2*%
%TO.N,Earth*%
X142000000Y-57000000D03*
%TD*%
D25*
%TO.P,TR1(PGAIN)1,1,1*%
%TO.N,Net-(R5-Pad2)*%
X108920000Y-87000000D03*
%TO.P,TR1(PGAIN)1,2,2*%
%TO.N,Net-(C3-Pad1)*%
X111460000Y-89540000D03*
%TO.P,TR1(PGAIN)1,3,3*%
%TO.N,Earth*%
X114000000Y-87000000D03*
%TD*%
D10*
%TO.P,R10,1*%
%TO.N,Net-(C14-Pad1)*%
X140000000Y-64000000D03*
D11*
%TO.P,R10,2*%
%TO.N,Net-(C11-Pad1)*%
X140000000Y-74160000D03*
%TD*%
D16*
%TO.P,J10,1,Pin_1*%
%TO.N,Earth*%
X98000000Y-59540000D03*
D15*
%TO.P,J10,2,Pin_2*%
%TO.N,+9V*%
X98000000Y-57000000D03*
%TD*%
D14*
%TO.P,J7,1,Pin_1*%
%TO.N,Earth*%
X155000000Y-62000000D03*
D15*
%TO.P,J7,2,Pin_2*%
%TO.N,Net-(J4-Pin_2)*%
X155000000Y-64540000D03*
%TD*%
D26*
%TO.P,Q3,1,E*%
%TO.N,Net-(J3-Pin_3)*%
X154000000Y-69000000D03*
D19*
%TO.P,Q3,2,B*%
%TO.N,Net-(Q2-C)*%
X152730000Y-70270000D03*
%TO.P,Q3,3,C*%
%TO.N,Net-(Q3-C)*%
X154000000Y-71540000D03*
%TD*%
D10*
%TO.P,C5,1*%
%TO.N,Earth*%
X118000000Y-92000000D03*
%TO.P,C5,2*%
%TO.N,Net-(C5-Pad2)*%
X123000000Y-92000000D03*
%TD*%
%TO.P,C2,1*%
%TO.N,Net-(Q1-B)*%
X117000000Y-78000000D03*
%TO.P,C2,2*%
%TO.N,Net-(Q1-C)*%
X122000000Y-78000000D03*
%TD*%
%TO.P,C6,1*%
%TO.N,Net-(C5-Pad2)*%
X127000000Y-92000000D03*
%TO.P,C6,2*%
%TO.N,Net-(J1-Pin_1)*%
X132000000Y-92000000D03*
%TD*%
%TO.P,R9,1*%
%TO.N,Net-(Q2-B)*%
X136000000Y-74080000D03*
D11*
%TO.P,R9,2*%
%TO.N,Net-(Q2-C)*%
X136000000Y-63920000D03*
%TD*%
D10*
%TO.P,R2,1*%
%TO.N,Net-(C14-Pad1)*%
X114000000Y-63920000D03*
D11*
%TO.P,R2,2*%
%TO.N,Net-(Q1-B)*%
X114000000Y-74080000D03*
%TD*%
D10*
%TO.P,R8,1*%
%TO.N,Net-(Q2-C)*%
X132080000Y-74000000D03*
D11*
%TO.P,R8,2*%
%TO.N,Net-(C14-Pad1)*%
X132080000Y-63840000D03*
%TD*%
D10*
%TO.P,C8,1*%
%TO.N,Net-(Q2-B)*%
X111500000Y-59000000D03*
%TO.P,C8,2*%
%TO.N,Net-(Q2-C)*%
X116500000Y-59000000D03*
%TD*%
%TO.P,R5,1*%
%TO.N,Net-(Q1-E)*%
X106000000Y-83000000D03*
D11*
%TO.P,R5,2*%
%TO.N,Net-(R5-Pad2)*%
X95840000Y-83000000D03*
%TD*%
D10*
%TO.P,C9,1*%
%TO.N,Net-(Q2-B)*%
X139000000Y-78000000D03*
%TO.P,C9,2*%
%TO.N,Net-(J3-Pin_3)*%
X139000000Y-83000000D03*
%TD*%
D26*
%TO.P,Q2,1,E*%
%TO.N,Earth*%
X124000000Y-54460000D03*
D19*
%TO.P,Q2,2,B*%
%TO.N,Net-(Q2-B)*%
X122730000Y-55730000D03*
%TO.P,Q2,3,C*%
%TO.N,Net-(Q2-C)*%
X124000000Y-57000000D03*
%TD*%
D16*
%TO.P,J5,1,Pin_1*%
%TO.N,Earth*%
X98000000Y-66540000D03*
D15*
%TO.P,J5,2,Pin_2*%
%TO.N,Net-(J5-Pin_2)*%
X98000000Y-64000000D03*
%TD*%
D10*
%TO.P,R11,1*%
%TO.N,Net-(C11-Pad1)*%
X145000000Y-73000000D03*
D11*
%TO.P,R11,2*%
%TO.N,Net-(Q3-C)*%
X145000000Y-83160000D03*
%TD*%
D10*
%TO.P,R3,1*%
%TO.N,Net-(Q1-B)*%
X106000000Y-87000000D03*
D11*
%TO.P,R3,2*%
%TO.N,Earth*%
X95840000Y-87000000D03*
%TD*%
D10*
%TO.P,R7,1*%
%TO.N,Net-(J1-Pin_2)*%
X130000000Y-88080000D03*
D11*
%TO.P,R7,2*%
%TO.N,Net-(Q2-B)*%
X130000000Y-77920000D03*
%TD*%
D10*
%TO.P,R1,1*%
%TO.N,Net-(J6-Pin_2)*%
X106000000Y-79000000D03*
D11*
%TO.P,R1,2*%
%TO.N,Earth*%
X95840000Y-79000000D03*
%TD*%
D27*
%TO.N,Net-(J6-Pin_2)*%
X98000000Y-72000000D02*
X99000000Y-72000000D01*
X99000000Y-72000000D02*
X106000000Y-79000000D01*
X107500000Y-80500000D02*
X111000000Y-80500000D01*
X106000000Y-79000000D02*
X107500000Y-80500000D01*
%TO.N,Net-(Q1-B)*%
X109449000Y-83551000D02*
X111449000Y-83551000D01*
X106000000Y-87000000D02*
X109449000Y-83551000D01*
X111000000Y-77080000D02*
X114000000Y-74080000D01*
X111449000Y-83551000D02*
X117000000Y-78000000D01*
X111000000Y-78000000D02*
X111000000Y-77080000D01*
X114000000Y-74080000D02*
X117000000Y-77080000D01*
X117000000Y-77080000D02*
X117000000Y-78000000D01*
%TO.N,Net-(Q1-C)*%
X122000000Y-78000000D02*
X118080000Y-74080000D01*
X118000000Y-74080000D02*
X120920000Y-74080000D01*
X122000000Y-78000000D02*
X125920000Y-78000000D01*
X120920000Y-74080000D02*
X123000000Y-72000000D01*
X122000000Y-78000000D02*
X122000000Y-84540000D01*
X125920000Y-78000000D02*
X126000000Y-77920000D01*
X118080000Y-74080000D02*
X118000000Y-74080000D01*
X122000000Y-84540000D02*
X121540000Y-85000000D01*
D28*
%TO.N,Earth*%
X128000000Y-58460000D02*
X129460000Y-57000000D01*
X155000000Y-53000000D02*
X158500000Y-53000000D01*
X124000000Y-54460000D02*
X128000000Y-58460000D01*
D27*
X107920000Y-50500000D02*
X120040000Y-50500000D01*
D28*
X93500000Y-81340000D02*
X93500000Y-84660000D01*
X98000000Y-66540000D02*
X95460000Y-66540000D01*
X96000000Y-61540000D02*
X96000000Y-64540000D01*
X95460000Y-66540000D02*
X93500000Y-68500000D01*
X98000000Y-74540000D02*
X95040000Y-74540000D01*
X105500000Y-59000000D02*
X105500000Y-53080000D01*
X128000000Y-58460000D02*
X128000000Y-67000000D01*
X118000000Y-91000000D02*
X118000000Y-92000000D01*
X159000000Y-77000000D02*
X154000000Y-82000000D01*
X98000000Y-59540000D02*
X96304000Y-57844000D01*
X103000000Y-93000000D02*
X117000000Y-93000000D01*
X159000000Y-61500000D02*
X158500000Y-62000000D01*
X104960000Y-59540000D02*
X105500000Y-59000000D01*
X97000000Y-87000000D02*
X103000000Y-93000000D01*
X96000000Y-64540000D02*
X98000000Y-66540000D01*
X105500000Y-53080000D02*
X105420000Y-53000000D01*
X142000000Y-57000000D02*
X147000000Y-52000000D01*
X154000000Y-82000000D02*
X152540000Y-83460000D01*
X96304000Y-57844000D02*
X96304000Y-56390692D01*
X158500000Y-53000000D02*
X159000000Y-53500000D01*
X95840000Y-79000000D02*
X93500000Y-81340000D01*
X93500000Y-84660000D02*
X95840000Y-87000000D01*
X114000000Y-87000000D02*
X118000000Y-91000000D01*
D27*
X102029000Y-55529000D02*
X105500000Y-59000000D01*
D28*
X98000000Y-76840000D02*
X95840000Y-79000000D01*
X152540000Y-83460000D02*
X152540000Y-89980000D01*
X147000000Y-52000000D02*
X154000000Y-52000000D01*
X95040000Y-74540000D02*
X93500000Y-73000000D01*
X95840000Y-87000000D02*
X97000000Y-87000000D01*
X154000000Y-52000000D02*
X155000000Y-53000000D01*
X98000000Y-74540000D02*
X98000000Y-76840000D01*
X158500000Y-62000000D02*
X155000000Y-62000000D01*
X93500000Y-68500000D02*
X93500000Y-73000000D01*
X129460000Y-57000000D02*
X142000000Y-57000000D01*
X159000000Y-66000000D02*
X159000000Y-77000000D01*
X96304000Y-56390692D02*
X97165692Y-55529000D01*
X97165692Y-55529000D02*
X102029000Y-55529000D01*
X105420000Y-53000000D02*
X107920000Y-50500000D01*
X159000000Y-53500000D02*
X159000000Y-61500000D01*
X120040000Y-50500000D02*
X124000000Y-54460000D01*
X155000000Y-62000000D02*
X159000000Y-66000000D01*
X117000000Y-93000000D02*
X118000000Y-92000000D01*
X98000000Y-59540000D02*
X96000000Y-61540000D01*
D27*
%TO.N,Net-(C3-Pad1)*%
X103000000Y-90500000D02*
X110500000Y-90500000D01*
X110500000Y-90500000D02*
X111460000Y-89540000D01*
%TO.N,Net-(J1-Pin_2)*%
X126369000Y-76095554D02*
X128000000Y-77726554D01*
X131900000Y-89980000D02*
X138460000Y-89980000D01*
X130000000Y-88080000D02*
X131900000Y-89980000D01*
X123000000Y-67000000D02*
X126369000Y-70369000D01*
X126369000Y-70369000D02*
X126369000Y-76095554D01*
X138460000Y-89980000D02*
X141000000Y-89980000D01*
X128000000Y-86080000D02*
X130000000Y-88080000D01*
X128000000Y-77726554D02*
X128000000Y-86080000D01*
%TO.N,Net-(C5-Pad2)*%
X126000000Y-91000000D02*
X127000000Y-92000000D01*
X126000000Y-88080000D02*
X126000000Y-91000000D01*
X123000000Y-92000000D02*
X127000000Y-92000000D01*
%TO.N,Net-(Q2-B)*%
X134000000Y-76080000D02*
X136000000Y-74080000D01*
X130000000Y-77920000D02*
X134000000Y-77920000D01*
X136000000Y-74080000D02*
X139000000Y-77080000D01*
X134000000Y-77920000D02*
X134000000Y-76080000D01*
X139000000Y-77080000D02*
X139000000Y-78000000D01*
%TO.N,Net-(Q2-C)*%
X132080000Y-74000000D02*
X132193446Y-74000000D01*
X116500000Y-59000000D02*
X122000000Y-59000000D01*
X122000000Y-59000000D02*
X124000000Y-57000000D01*
X141846723Y-64346723D02*
X144153277Y-64346723D01*
X137471000Y-62449000D02*
X142255554Y-62449000D01*
X132193446Y-74000000D02*
X141846723Y-64346723D01*
X136000000Y-63920000D02*
X137471000Y-62449000D01*
X144153277Y-64346723D02*
X150076554Y-70270000D01*
X142255554Y-62449000D02*
X144153277Y-64346723D01*
X150076554Y-70270000D02*
X152730000Y-70270000D01*
%TO.N,Net-(J3-Pin_3)*%
X139000000Y-83000000D02*
X140480000Y-83000000D01*
X140480000Y-83000000D02*
X147460000Y-89980000D01*
X139000000Y-83080000D02*
X139000000Y-83000000D01*
%TO.N,Net-(C11-Pad1)*%
X145000000Y-73000000D02*
X145000000Y-70000000D01*
X140000000Y-74160000D02*
X143840000Y-74160000D01*
X143840000Y-74160000D02*
X145000000Y-73000000D01*
X145000000Y-70000000D02*
X146000000Y-69000000D01*
%TO.N,Net-(J2-Pin_2)*%
X136540000Y-54020000D02*
X139980000Y-54020000D01*
X139980000Y-54020000D02*
X142000000Y-52000000D01*
X134000000Y-54020000D02*
X136540000Y-54020000D01*
%TO.N,Net-(J4-Pin_2)*%
X147000000Y-57000000D02*
X150000000Y-57000000D01*
X151500000Y-55500000D02*
X151540000Y-55540000D01*
X151540000Y-55540000D02*
X155000000Y-55540000D01*
X150000000Y-57000000D02*
X151500000Y-55500000D01*
%TO.N,Net-(C14-Pad1)*%
X110000000Y-74000000D02*
X110000000Y-67920000D01*
X130129546Y-68551000D02*
X133460273Y-65220273D01*
X138529000Y-65471000D02*
X140000000Y-64000000D01*
X122726554Y-63920000D02*
X127357554Y-68551000D01*
X127357554Y-68551000D02*
X130129546Y-68551000D01*
X133711000Y-65471000D02*
X138529000Y-65471000D01*
X133711000Y-65471000D02*
X132080000Y-63840000D01*
X118000000Y-63920000D02*
X122726554Y-63920000D01*
X110000000Y-67920000D02*
X114000000Y-63920000D01*
X133460273Y-65220273D02*
X133711000Y-65471000D01*
X114000000Y-63920000D02*
X118000000Y-63920000D01*
%TO.N,+9V*%
X98000000Y-57000000D02*
X99160000Y-57000000D01*
X99160000Y-57000000D02*
X106000000Y-63840000D01*
X106000000Y-63840000D02*
X110000000Y-63840000D01*
X110000000Y-62708630D02*
X115580000Y-57128630D01*
X115580000Y-57128630D02*
X115580000Y-53000000D01*
X110000000Y-63840000D02*
X110000000Y-62708630D01*
%TO.N,Net-(J5-Pin_2)*%
X99595000Y-64000000D02*
X106000000Y-70405000D01*
X106000000Y-70405000D02*
X106000000Y-74000000D01*
X98000000Y-64000000D02*
X99595000Y-64000000D01*
%TO.N,Net-(R5-Pad2)*%
X101391000Y-88551000D02*
X107369000Y-88551000D01*
X95840000Y-83000000D02*
X101391000Y-88551000D01*
X107369000Y-88551000D02*
X108920000Y-87000000D01*
%TD*%
%TA.AperFunction,Conductor*%
%TO.N,Earth*%
G36*
X161442539Y-48520185D02*
G01*
X161488294Y-48572989D01*
X161499500Y-48624500D01*
X161499500Y-95375500D01*
X161479815Y-95442539D01*
X161427011Y-95488294D01*
X161375500Y-95499500D01*
X92624500Y-95499500D01*
X92557461Y-95479815D01*
X92511706Y-95427011D01*
X92500500Y-95375500D01*
X92500500Y-91893713D01*
X94649500Y-91893713D01*
X94649500Y-92106286D01*
X94676075Y-92274077D01*
X94682754Y-92316243D01*
X94709968Y-92400000D01*
X94748444Y-92518414D01*
X94844951Y-92707820D01*
X94969890Y-92879786D01*
X95120213Y-93030109D01*
X95292179Y-93155048D01*
X95292181Y-93155049D01*
X95292184Y-93155051D01*
X95481588Y-93251557D01*
X95683757Y-93317246D01*
X95893713Y-93350500D01*
X95893714Y-93350500D01*
X96106286Y-93350500D01*
X96106287Y-93350500D01*
X96316243Y-93317246D01*
X96518412Y-93251557D01*
X96707816Y-93155051D01*
X96848745Y-93052661D01*
X96879786Y-93030109D01*
X96879788Y-93030106D01*
X96879792Y-93030104D01*
X97030104Y-92879792D01*
X97155051Y-92707816D01*
X97251557Y-92518412D01*
X97317246Y-92316243D01*
X97350500Y-92106287D01*
X97350500Y-91893713D01*
X97317246Y-91683757D01*
X97251557Y-91481588D01*
X97155051Y-91292184D01*
X97155049Y-91292181D01*
X97155048Y-91292179D01*
X97030109Y-91120213D01*
X96879786Y-90969890D01*
X96707820Y-90844951D01*
X96518414Y-90748444D01*
X96518413Y-90748443D01*
X96518412Y-90748443D01*
X96316243Y-90682754D01*
X96316241Y-90682753D01*
X96316240Y-90682753D01*
X96154957Y-90657208D01*
X96106287Y-90649500D01*
X95893713Y-90649500D01*
X95845042Y-90657208D01*
X95683760Y-90682753D01*
X95481585Y-90748444D01*
X95292179Y-90844951D01*
X95120213Y-90969890D01*
X95120209Y-90969894D01*
X94969897Y-91120207D01*
X94969890Y-91120213D01*
X94844951Y-91292179D01*
X94748444Y-91481585D01*
X94682753Y-91683760D01*
X94649500Y-91893713D01*
X92500500Y-91893713D01*
X92500500Y-86750000D01*
X94563391Y-86750000D01*
X95524314Y-86750000D01*
X95519920Y-86754394D01*
X95467259Y-86845606D01*
X95440000Y-86947339D01*
X95440000Y-87052661D01*
X95467259Y-87154394D01*
X95519920Y-87245606D01*
X95524314Y-87250000D01*
X94563391Y-87250000D01*
X94572009Y-87304413D01*
X94635244Y-87499029D01*
X94728140Y-87681349D01*
X94848417Y-87846894D01*
X94848417Y-87846895D01*
X94993104Y-87991582D01*
X95158650Y-88111859D01*
X95340968Y-88204754D01*
X95535578Y-88267988D01*
X95590000Y-88276607D01*
X95590000Y-87315686D01*
X95594394Y-87320080D01*
X95685606Y-87372741D01*
X95787339Y-87400000D01*
X95892661Y-87400000D01*
X95994394Y-87372741D01*
X96085606Y-87320080D01*
X96090000Y-87315686D01*
X96090000Y-88276606D01*
X96144421Y-88267988D01*
X96339031Y-88204754D01*
X96521349Y-88111859D01*
X96686894Y-87991582D01*
X96686895Y-87991582D01*
X96831582Y-87846895D01*
X96831582Y-87846894D01*
X96951859Y-87681349D01*
X97044755Y-87499029D01*
X97107990Y-87304413D01*
X97116609Y-87250000D01*
X96155686Y-87250000D01*
X96160080Y-87245606D01*
X96212741Y-87154394D01*
X96240000Y-87052661D01*
X96240000Y-86947339D01*
X96212741Y-86845606D01*
X96160080Y-86754394D01*
X96155686Y-86750000D01*
X97116609Y-86750000D01*
X97107990Y-86695586D01*
X97044755Y-86500970D01*
X96951859Y-86318650D01*
X96831582Y-86153105D01*
X96831582Y-86153104D01*
X96686895Y-86008417D01*
X96521349Y-85888140D01*
X96339029Y-85795244D01*
X96144413Y-85732009D01*
X96090000Y-85723390D01*
X96090000Y-86684314D01*
X96085606Y-86679920D01*
X95994394Y-86627259D01*
X95892661Y-86600000D01*
X95787339Y-86600000D01*
X95685606Y-86627259D01*
X95594394Y-86679920D01*
X95590000Y-86684314D01*
X95590000Y-85723390D01*
X95535586Y-85732009D01*
X95340970Y-85795244D01*
X95158650Y-85888140D01*
X94993105Y-86008417D01*
X94993104Y-86008417D01*
X94848417Y-86153104D01*
X94848417Y-86153105D01*
X94728140Y-86318650D01*
X94635244Y-86500970D01*
X94572009Y-86695586D01*
X94563391Y-86750000D01*
X92500500Y-86750000D01*
X92500500Y-82897648D01*
X94539500Y-82897648D01*
X94539500Y-83102351D01*
X94571522Y-83304534D01*
X94634781Y-83499223D01*
X94698691Y-83624653D01*
X94716306Y-83659223D01*
X94727715Y-83681613D01*
X94848028Y-83847213D01*
X94992786Y-83991971D01*
X95147749Y-84104556D01*
X95158390Y-84112287D01*
X95253182Y-84160586D01*
X95340776Y-84205218D01*
X95340778Y-84205218D01*
X95340781Y-84205220D01*
X95445137Y-84239127D01*
X95535465Y-84268477D01*
X95619564Y-84281797D01*
X95737648Y-84300500D01*
X95737649Y-84300500D01*
X95942350Y-84300500D01*
X95942352Y-84300500D01*
X95998027Y-84291681D01*
X96067319Y-84300635D01*
X96105106Y-84326473D01*
X100808048Y-89029415D01*
X100808049Y-89029416D01*
X100860571Y-89081938D01*
X100912585Y-89133952D01*
X101035498Y-89216080D01*
X101035511Y-89216087D01*
X101172082Y-89272656D01*
X101172087Y-89272658D01*
X101172091Y-89272658D01*
X101172092Y-89272659D01*
X101317079Y-89301500D01*
X101317082Y-89301500D01*
X101635858Y-89301500D01*
X101702897Y-89321185D01*
X101748652Y-89373989D01*
X101758596Y-89443147D01*
X101752040Y-89468833D01*
X101705908Y-89592517D01*
X101699501Y-89652116D01*
X101699500Y-89652135D01*
X101699500Y-91347870D01*
X101699501Y-91347876D01*
X101705908Y-91407483D01*
X101756202Y-91542328D01*
X101756206Y-91542335D01*
X101842452Y-91657544D01*
X101842455Y-91657547D01*
X101957664Y-91743793D01*
X101957671Y-91743797D01*
X102002618Y-91760561D01*
X102092517Y-91794091D01*
X102152127Y-91800500D01*
X102152153Y-91800499D01*
X102155453Y-91800678D01*
X102155365Y-91802308D01*
X102216238Y-91820067D01*
X102262084Y-91872791D01*
X102269804Y-91916251D01*
X102953554Y-92600000D01*
X102947339Y-92600000D01*
X102845606Y-92627259D01*
X102754394Y-92679920D01*
X102679920Y-92754394D01*
X102627259Y-92845606D01*
X102600000Y-92947339D01*
X102600000Y-92953553D01*
X101920524Y-92274077D01*
X101920523Y-92274077D01*
X101888143Y-92318644D01*
X101795244Y-92500968D01*
X101732009Y-92695582D01*
X101700000Y-92897682D01*
X101700000Y-93102317D01*
X101732009Y-93304417D01*
X101795244Y-93499031D01*
X101888141Y-93681350D01*
X101888147Y-93681359D01*
X101920523Y-93725921D01*
X101920524Y-93725922D01*
X102600000Y-93046446D01*
X102600000Y-93052661D01*
X102627259Y-93154394D01*
X102679920Y-93245606D01*
X102754394Y-93320080D01*
X102845606Y-93372741D01*
X102947339Y-93400000D01*
X102953553Y-93400000D01*
X102274076Y-94079474D01*
X102318650Y-94111859D01*
X102500968Y-94204755D01*
X102695582Y-94267990D01*
X102897683Y-94300000D01*
X103102317Y-94300000D01*
X103304417Y-94267990D01*
X103499031Y-94204755D01*
X103681349Y-94111859D01*
X103725921Y-94079474D01*
X103046447Y-93400000D01*
X103052661Y-93400000D01*
X103154394Y-93372741D01*
X103245606Y-93320080D01*
X103320080Y-93245606D01*
X103372741Y-93154394D01*
X103400000Y-93052661D01*
X103400000Y-93046448D01*
X104079474Y-93725922D01*
X104079474Y-93725921D01*
X104111859Y-93681349D01*
X104204755Y-93499031D01*
X104267990Y-93304417D01*
X104300000Y-93102317D01*
X104300000Y-92897682D01*
X104267990Y-92695582D01*
X104204755Y-92500968D01*
X104111859Y-92318650D01*
X104079474Y-92274077D01*
X104079474Y-92274076D01*
X103400000Y-92953551D01*
X103400000Y-92947339D01*
X103372741Y-92845606D01*
X103320080Y-92754394D01*
X103245606Y-92679920D01*
X103154394Y-92627259D01*
X103052661Y-92600000D01*
X103046446Y-92600000D01*
X103730931Y-91915515D01*
X103734677Y-91897682D01*
X116700000Y-91897682D01*
X116700000Y-92102317D01*
X116732009Y-92304417D01*
X116795244Y-92499031D01*
X116888141Y-92681350D01*
X116888147Y-92681359D01*
X116920523Y-92725921D01*
X116920524Y-92725922D01*
X117600000Y-92046446D01*
X117600000Y-92052661D01*
X117627259Y-92154394D01*
X117679920Y-92245606D01*
X117754394Y-92320080D01*
X117845606Y-92372741D01*
X117947339Y-92400000D01*
X117953553Y-92400000D01*
X117274076Y-93079474D01*
X117318650Y-93111859D01*
X117500968Y-93204755D01*
X117695582Y-93267990D01*
X117897683Y-93300000D01*
X118102317Y-93300000D01*
X118304417Y-93267990D01*
X118499031Y-93204755D01*
X118681349Y-93111859D01*
X118725921Y-93079474D01*
X118046447Y-92400000D01*
X118052661Y-92400000D01*
X118154394Y-92372741D01*
X118245606Y-92320080D01*
X118320080Y-92245606D01*
X118372741Y-92154394D01*
X118400000Y-92052661D01*
X118400000Y-92046448D01*
X119079474Y-92725922D01*
X119079474Y-92725921D01*
X119111859Y-92681349D01*
X119204755Y-92499031D01*
X119267990Y-92304417D01*
X119300000Y-92102317D01*
X119300000Y-91897682D01*
X119299995Y-91897648D01*
X121699500Y-91897648D01*
X121699500Y-92102351D01*
X121731522Y-92304534D01*
X121794781Y-92499223D01*
X121858691Y-92624653D01*
X121887585Y-92681359D01*
X121887715Y-92681613D01*
X122008028Y-92847213D01*
X122152786Y-92991971D01*
X122273226Y-93079474D01*
X122318390Y-93112287D01*
X122402319Y-93155051D01*
X122500776Y-93205218D01*
X122500778Y-93205218D01*
X122500781Y-93205220D01*
X122605137Y-93239127D01*
X122695465Y-93268477D01*
X122796557Y-93284488D01*
X122897648Y-93300500D01*
X122897649Y-93300500D01*
X123102351Y-93300500D01*
X123102352Y-93300500D01*
X123304534Y-93268477D01*
X123499219Y-93205220D01*
X123681610Y-93112287D01*
X123836160Y-93000001D01*
X123847213Y-92991971D01*
X123847215Y-92991968D01*
X123847219Y-92991966D01*
X123991966Y-92847219D01*
X124011792Y-92819931D01*
X124025100Y-92801615D01*
X124080429Y-92758949D01*
X124125418Y-92750500D01*
X125874582Y-92750500D01*
X125941621Y-92770185D01*
X125974900Y-92801615D01*
X126008028Y-92847212D01*
X126008032Y-92847217D01*
X126152786Y-92991971D01*
X126273226Y-93079474D01*
X126318390Y-93112287D01*
X126402319Y-93155051D01*
X126500776Y-93205218D01*
X126500778Y-93205218D01*
X126500781Y-93205220D01*
X126605137Y-93239127D01*
X126695465Y-93268477D01*
X126796557Y-93284488D01*
X126897648Y-93300500D01*
X126897649Y-93300500D01*
X127102351Y-93300500D01*
X127102352Y-93300500D01*
X127304534Y-93268477D01*
X127499219Y-93205220D01*
X127681610Y-93112287D01*
X127836160Y-93000001D01*
X127847213Y-92991971D01*
X127847215Y-92991968D01*
X127847219Y-92991966D01*
X127991966Y-92847219D01*
X127991968Y-92847215D01*
X127991971Y-92847213D01*
X128062236Y-92750500D01*
X128112287Y-92681610D01*
X128205220Y-92499219D01*
X128268477Y-92304534D01*
X128300500Y-92102352D01*
X128300500Y-91897648D01*
X128280835Y-91773492D01*
X128268477Y-91695465D01*
X128229335Y-91574999D01*
X128205220Y-91500781D01*
X128205218Y-91500778D01*
X128205218Y-91500776D01*
X128142230Y-91377157D01*
X128112287Y-91318390D01*
X128094091Y-91293345D01*
X127991971Y-91152786D01*
X127847213Y-91008028D01*
X127681613Y-90887715D01*
X127681612Y-90887714D01*
X127681610Y-90887713D01*
X127597681Y-90844949D01*
X127499223Y-90794781D01*
X127304534Y-90731522D01*
X127129995Y-90703878D01*
X127102352Y-90699500D01*
X126897648Y-90699500D01*
X126893893Y-90700094D01*
X126824603Y-90691139D01*
X126771152Y-90646142D01*
X126750513Y-90579390D01*
X126750500Y-90577621D01*
X126750500Y-89205416D01*
X126770185Y-89138377D01*
X126801613Y-89105099D01*
X126847219Y-89071966D01*
X126991966Y-88927219D01*
X126991968Y-88927215D01*
X126991971Y-88927213D01*
X127072227Y-88816748D01*
X127112287Y-88761610D01*
X127205220Y-88579219D01*
X127268477Y-88384534D01*
X127300500Y-88182352D01*
X127300500Y-87977648D01*
X127293102Y-87930942D01*
X127268477Y-87775465D01*
X127224358Y-87639681D01*
X127205220Y-87580781D01*
X127205218Y-87580778D01*
X127205218Y-87580776D01*
X127148013Y-87468506D01*
X127112287Y-87398390D01*
X127079712Y-87353554D01*
X126991971Y-87232786D01*
X126847213Y-87088028D01*
X126681613Y-86967715D01*
X126681612Y-86967714D01*
X126681610Y-86967713D01*
X126624653Y-86938691D01*
X126499223Y-86874781D01*
X126304534Y-86811522D01*
X126129995Y-86783878D01*
X126102352Y-86779500D01*
X125897648Y-86779500D01*
X125873329Y-86783351D01*
X125695465Y-86811522D01*
X125500776Y-86874781D01*
X125318386Y-86967715D01*
X125152786Y-87088028D01*
X125008028Y-87232786D01*
X124887715Y-87398386D01*
X124794781Y-87580776D01*
X124731522Y-87775465D01*
X124699500Y-87977648D01*
X124699500Y-88182351D01*
X124731522Y-88384534D01*
X124794781Y-88579223D01*
X124823093Y-88634787D01*
X124879196Y-88744895D01*
X124887715Y-88761613D01*
X125008028Y-88927213D01*
X125008034Y-88927219D01*
X125152781Y-89071966D01*
X125198384Y-89105098D01*
X125241050Y-89160425D01*
X125249500Y-89205416D01*
X125249500Y-91073920D01*
X125254948Y-91101308D01*
X125248721Y-91170899D01*
X125205859Y-91226077D01*
X125139969Y-91249322D01*
X125133331Y-91249500D01*
X124125418Y-91249500D01*
X124058379Y-91229815D01*
X124025100Y-91198385D01*
X123991971Y-91152787D01*
X123991967Y-91152782D01*
X123847213Y-91008028D01*
X123681613Y-90887715D01*
X123681612Y-90887714D01*
X123681610Y-90887713D01*
X123597681Y-90844949D01*
X123499223Y-90794781D01*
X123304534Y-90731522D01*
X123129995Y-90703878D01*
X123102352Y-90699500D01*
X122897648Y-90699500D01*
X122873329Y-90703351D01*
X122695465Y-90731522D01*
X122500776Y-90794781D01*
X122318386Y-90887715D01*
X122152786Y-91008028D01*
X122008028Y-91152786D01*
X121887715Y-91318386D01*
X121794781Y-91500776D01*
X121731522Y-91695465D01*
X121699500Y-91897648D01*
X119299995Y-91897648D01*
X119267990Y-91695582D01*
X119204755Y-91500968D01*
X119111859Y-91318650D01*
X119079474Y-91274077D01*
X119079474Y-91274076D01*
X118400000Y-91953551D01*
X118400000Y-91947339D01*
X118372741Y-91845606D01*
X118320080Y-91754394D01*
X118245606Y-91679920D01*
X118154394Y-91627259D01*
X118052661Y-91600000D01*
X118046446Y-91600000D01*
X118725922Y-90920524D01*
X118725921Y-90920523D01*
X118681359Y-90888147D01*
X118681350Y-90888141D01*
X118499031Y-90795244D01*
X118304417Y-90732009D01*
X118102317Y-90700000D01*
X117897683Y-90700000D01*
X117695582Y-90732009D01*
X117500968Y-90795244D01*
X117318644Y-90888143D01*
X117274077Y-90920523D01*
X117274077Y-90920524D01*
X117953554Y-91600000D01*
X117947339Y-91600000D01*
X117845606Y-91627259D01*
X117754394Y-91679920D01*
X117679920Y-91754394D01*
X117627259Y-91845606D01*
X117600000Y-91947339D01*
X117600000Y-91953553D01*
X116920524Y-91274077D01*
X116920523Y-91274077D01*
X116888143Y-91318644D01*
X116795244Y-91500968D01*
X116732009Y-91695582D01*
X116700000Y-91897682D01*
X103734677Y-91897682D01*
X103741364Y-91865852D01*
X103790415Y-91816094D01*
X103824493Y-91803282D01*
X103837405Y-91800499D01*
X103847872Y-91800499D01*
X103907483Y-91794091D01*
X104042331Y-91743796D01*
X104157546Y-91657546D01*
X104243796Y-91542331D01*
X104294091Y-91407483D01*
X104299062Y-91361242D01*
X104325799Y-91296694D01*
X104383191Y-91256846D01*
X104422351Y-91250500D01*
X110573920Y-91250500D01*
X110677906Y-91229815D01*
X110718913Y-91221658D01*
X110855495Y-91165084D01*
X110922657Y-91120208D01*
X110978416Y-91082952D01*
X111265050Y-90796316D01*
X111326369Y-90762834D01*
X111359073Y-90760613D01*
X111359073Y-90760500D01*
X111360746Y-90760500D01*
X111362469Y-90760383D01*
X111363936Y-90760498D01*
X111363945Y-90760500D01*
X111363954Y-90760500D01*
X111556054Y-90760500D01*
X111556055Y-90760500D01*
X111745801Y-90730447D01*
X111928509Y-90671082D01*
X112099681Y-90583865D01*
X112255102Y-90470945D01*
X112390945Y-90335102D01*
X112503865Y-90179681D01*
X112591082Y-90008509D01*
X112650447Y-89825801D01*
X112680500Y-89636055D01*
X112680500Y-89443945D01*
X112650447Y-89254199D01*
X112614068Y-89142235D01*
X112591083Y-89071493D01*
X112575251Y-89040422D01*
X112503865Y-88900319D01*
X112390945Y-88744898D01*
X112255102Y-88609055D01*
X112099681Y-88496135D01*
X112024796Y-88457979D01*
X111928506Y-88408916D01*
X111745802Y-88349553D01*
X111650928Y-88334526D01*
X111556055Y-88319500D01*
X111363945Y-88319500D01*
X111300696Y-88329517D01*
X111174197Y-88349553D01*
X110991493Y-88408916D01*
X110820318Y-88496135D01*
X110747003Y-88549402D01*
X110664898Y-88609055D01*
X110664896Y-88609057D01*
X110664895Y-88609057D01*
X110529057Y-88744895D01*
X110529057Y-88744896D01*
X110529055Y-88744898D01*
X110516913Y-88761610D01*
X110416135Y-88900318D01*
X110328916Y-89071493D01*
X110269553Y-89254197D01*
X110239500Y-89443945D01*
X110239500Y-89625500D01*
X110219815Y-89692539D01*
X110167011Y-89738294D01*
X110115500Y-89749500D01*
X104422351Y-89749500D01*
X104355312Y-89729815D01*
X104309557Y-89677011D01*
X104303291Y-89660152D01*
X104300231Y-89649640D01*
X104294091Y-89592517D01*
X104246360Y-89464544D01*
X104245082Y-89460152D01*
X104245154Y-89429604D01*
X104242976Y-89399141D01*
X104245236Y-89395000D01*
X104245248Y-89390282D01*
X104261823Y-89364623D01*
X104276461Y-89337818D01*
X104280601Y-89335557D01*
X104283162Y-89331594D01*
X104310974Y-89318972D01*
X104337784Y-89304334D01*
X104344924Y-89303566D01*
X104346787Y-89302721D01*
X104349329Y-89303092D01*
X104364142Y-89301500D01*
X107442920Y-89301500D01*
X107540462Y-89282096D01*
X107587913Y-89272658D01*
X107724495Y-89216084D01*
X107773729Y-89183186D01*
X107847416Y-89133952D01*
X108725049Y-88256317D01*
X108786370Y-88222834D01*
X108819073Y-88220613D01*
X108819073Y-88220500D01*
X108820746Y-88220500D01*
X108822469Y-88220383D01*
X108823936Y-88220498D01*
X108823945Y-88220500D01*
X108823954Y-88220500D01*
X109016054Y-88220500D01*
X109016055Y-88220500D01*
X109205801Y-88190447D01*
X109388509Y-88131082D01*
X109559681Y-88043865D01*
X109715102Y-87930945D01*
X109850945Y-87795102D01*
X109963865Y-87639681D01*
X110051082Y-87468509D01*
X110110447Y-87285801D01*
X110140500Y-87096055D01*
X110140500Y-86903984D01*
X112780000Y-86903984D01*
X112780000Y-87096015D01*
X112810040Y-87285684D01*
X112869383Y-87468321D01*
X112956561Y-87639415D01*
X112977798Y-87668646D01*
X113600000Y-87046445D01*
X113600000Y-87052661D01*
X113627259Y-87154394D01*
X113679920Y-87245606D01*
X113754394Y-87320080D01*
X113845606Y-87372741D01*
X113947339Y-87400000D01*
X113953554Y-87400000D01*
X113331351Y-88022200D01*
X113331352Y-88022201D01*
X113360577Y-88043434D01*
X113531678Y-88130616D01*
X113714315Y-88189959D01*
X113903985Y-88220000D01*
X114096015Y-88220000D01*
X114285684Y-88189959D01*
X114468321Y-88130616D01*
X114639419Y-88043436D01*
X114668646Y-88022201D01*
X114668646Y-88022200D01*
X114046447Y-87400000D01*
X114052661Y-87400000D01*
X114154394Y-87372741D01*
X114245606Y-87320080D01*
X114320080Y-87245606D01*
X114372741Y-87154394D01*
X114400000Y-87052661D01*
X114400000Y-87046446D01*
X115022200Y-87668646D01*
X115022201Y-87668646D01*
X115043436Y-87639419D01*
X115130616Y-87468321D01*
X115189959Y-87285684D01*
X115220000Y-87096015D01*
X115220000Y-86903984D01*
X115189959Y-86714315D01*
X115130616Y-86531678D01*
X115043434Y-86360577D01*
X115022201Y-86331352D01*
X115022200Y-86331351D01*
X114400000Y-86953552D01*
X114400000Y-86947339D01*
X114372741Y-86845606D01*
X114320080Y-86754394D01*
X114245606Y-86679920D01*
X114154394Y-86627259D01*
X114052661Y-86600000D01*
X114046447Y-86600000D01*
X114668646Y-85977798D01*
X114639415Y-85956561D01*
X114468321Y-85869383D01*
X114285684Y-85810040D01*
X114096015Y-85780000D01*
X113903985Y-85780000D01*
X113714315Y-85810040D01*
X113531678Y-85869383D01*
X113360578Y-85956564D01*
X113331352Y-85977798D01*
X113331351Y-85977798D01*
X113953554Y-86600000D01*
X113947339Y-86600000D01*
X113845606Y-86627259D01*
X113754394Y-86679920D01*
X113679920Y-86754394D01*
X113627259Y-86845606D01*
X113600000Y-86947339D01*
X113600000Y-86953553D01*
X112977798Y-86331351D01*
X112977798Y-86331352D01*
X112956564Y-86360578D01*
X112869383Y-86531678D01*
X112810040Y-86714315D01*
X112780000Y-86903984D01*
X110140500Y-86903984D01*
X110140500Y-86903945D01*
X110110447Y-86714199D01*
X110059832Y-86558421D01*
X110051083Y-86531493D01*
X110027254Y-86484727D01*
X109963865Y-86360319D01*
X109850945Y-86204898D01*
X109715102Y-86069055D01*
X109559681Y-85956135D01*
X109388506Y-85868916D01*
X109205802Y-85809553D01*
X109110928Y-85794526D01*
X109016055Y-85779500D01*
X108823945Y-85779500D01*
X108785995Y-85785510D01*
X108634195Y-85809553D01*
X108558986Y-85833990D01*
X108489145Y-85835985D01*
X108429313Y-85799904D01*
X108398485Y-85737203D01*
X108406450Y-85667789D01*
X108432988Y-85628378D01*
X108638920Y-85422447D01*
X109723548Y-84337819D01*
X109784871Y-84304334D01*
X109811229Y-84301500D01*
X111522920Y-84301500D01*
X111621969Y-84281797D01*
X111667913Y-84272658D01*
X111804495Y-84216084D01*
X111855230Y-84182184D01*
X111927416Y-84133952D01*
X116734894Y-79326471D01*
X116796215Y-79292988D01*
X116841970Y-79291681D01*
X116897648Y-79300500D01*
X116897649Y-79300500D01*
X117102351Y-79300500D01*
X117102352Y-79300500D01*
X117304534Y-79268477D01*
X117499219Y-79205220D01*
X117681610Y-79112287D01*
X117777901Y-79042328D01*
X117847213Y-78991971D01*
X117847215Y-78991968D01*
X117847219Y-78991966D01*
X117991966Y-78847219D01*
X117991968Y-78847215D01*
X117991971Y-78847213D01*
X118079057Y-78727347D01*
X118112287Y-78681610D01*
X118205220Y-78499219D01*
X118268477Y-78304534D01*
X118300500Y-78102352D01*
X118300500Y-77897648D01*
X118298926Y-77887713D01*
X118268477Y-77695465D01*
X118205218Y-77500776D01*
X118164455Y-77420776D01*
X118112287Y-77318390D01*
X118062236Y-77249500D01*
X117991971Y-77152786D01*
X117847219Y-77008034D01*
X117847211Y-77008028D01*
X117773878Y-76954749D01*
X117731213Y-76899420D01*
X117730744Y-76898197D01*
X117727139Y-76888642D01*
X117721659Y-76861088D01*
X117666645Y-76728274D01*
X117665956Y-76726448D01*
X117665918Y-76725953D01*
X117665764Y-76725522D01*
X117582954Y-76601588D01*
X117582953Y-76601587D01*
X117582951Y-76601584D01*
X117478416Y-76497049D01*
X115326472Y-74345105D01*
X115292988Y-74283783D01*
X115291681Y-74238028D01*
X115300500Y-74182352D01*
X115300500Y-73977648D01*
X115286410Y-73888690D01*
X115268477Y-73775465D01*
X115237981Y-73681610D01*
X115205220Y-73580781D01*
X115205218Y-73580778D01*
X115205218Y-73580776D01*
X115139426Y-73451654D01*
X115112287Y-73398390D01*
X115083222Y-73358385D01*
X114991971Y-73232786D01*
X114847213Y-73088028D01*
X114681613Y-72967715D01*
X114681612Y-72967714D01*
X114681610Y-72967713D01*
X114622832Y-72937764D01*
X114499223Y-72874781D01*
X114304534Y-72811522D01*
X114129995Y-72783878D01*
X114102352Y-72779500D01*
X113897648Y-72779500D01*
X113873329Y-72783351D01*
X113695465Y-72811522D01*
X113500776Y-72874781D01*
X113318386Y-72967715D01*
X113152786Y-73088028D01*
X113008028Y-73232786D01*
X112887715Y-73398386D01*
X112794781Y-73580776D01*
X112731522Y-73775465D01*
X112699500Y-73977648D01*
X112699500Y-74182351D01*
X112708318Y-74238026D01*
X112699363Y-74307320D01*
X112673526Y-74345105D01*
X110417048Y-76601583D01*
X110388448Y-76644389D01*
X110334836Y-76689195D01*
X110285345Y-76699500D01*
X110152130Y-76699500D01*
X110152123Y-76699501D01*
X110092516Y-76705908D01*
X109957671Y-76756202D01*
X109957664Y-76756206D01*
X109842455Y-76842452D01*
X109842452Y-76842455D01*
X109756206Y-76957664D01*
X109756202Y-76957671D01*
X109705908Y-77092517D01*
X109699611Y-77151091D01*
X109699501Y-77152123D01*
X109699500Y-77152135D01*
X109699500Y-78847870D01*
X109699501Y-78847876D01*
X109705908Y-78907483D01*
X109756202Y-79042328D01*
X109756206Y-79042335D01*
X109842452Y-79157544D01*
X109842455Y-79157547D01*
X109957664Y-79243793D01*
X109957671Y-79243797D01*
X110092514Y-79294090D01*
X110092517Y-79294091D01*
X110092519Y-79294091D01*
X110098033Y-79295394D01*
X110158751Y-79329965D01*
X110191139Y-79391874D01*
X110184915Y-79461466D01*
X110155033Y-79503396D01*
X110156226Y-79504589D01*
X110008032Y-79652782D01*
X110008028Y-79652787D01*
X109974900Y-79698385D01*
X109919571Y-79741051D01*
X109874582Y-79749500D01*
X107862229Y-79749500D01*
X107795190Y-79729815D01*
X107774548Y-79713181D01*
X107326473Y-79265106D01*
X107292988Y-79203783D01*
X107291681Y-79158028D01*
X107300500Y-79102352D01*
X107300500Y-78897648D01*
X107279842Y-78767219D01*
X107268477Y-78695465D01*
X107205218Y-78500776D01*
X107163662Y-78419219D01*
X107112287Y-78318390D01*
X107086531Y-78282939D01*
X106991971Y-78152786D01*
X106847213Y-78008028D01*
X106681613Y-77887715D01*
X106681612Y-77887714D01*
X106681610Y-77887713D01*
X106624653Y-77858691D01*
X106499223Y-77794781D01*
X106304534Y-77731522D01*
X106129995Y-77703878D01*
X106102352Y-77699500D01*
X105897648Y-77699500D01*
X105841972Y-77708318D01*
X105772679Y-77699363D01*
X105734894Y-77673526D01*
X99478422Y-71417053D01*
X99477330Y-71416157D01*
X99476524Y-71415155D01*
X99474109Y-71412740D01*
X99474370Y-71412478D01*
X99445507Y-71376595D01*
X99397157Y-71281701D01*
X99270359Y-71107179D01*
X99117821Y-70954641D01*
X98943299Y-70827843D01*
X98751089Y-70729908D01*
X98545926Y-70663246D01*
X98545924Y-70663245D01*
X98545922Y-70663245D01*
X98332866Y-70629500D01*
X98332861Y-70629500D01*
X97667139Y-70629500D01*
X97667134Y-70629500D01*
X97454077Y-70663245D01*
X97454074Y-70663246D01*
X97342497Y-70699500D01*
X97248908Y-70729909D01*
X97056700Y-70827843D01*
X96971846Y-70889494D01*
X96882179Y-70954641D01*
X96882177Y-70954643D01*
X96882176Y-70954643D01*
X96729643Y-71107176D01*
X96729643Y-71107177D01*
X96729641Y-71107179D01*
X96675186Y-71182129D01*
X96602843Y-71281700D01*
X96504909Y-71473908D01*
X96438245Y-71679077D01*
X96404500Y-71892133D01*
X96404500Y-72107866D01*
X96437844Y-72318390D01*
X96438246Y-72320926D01*
X96504908Y-72526089D01*
X96602843Y-72718299D01*
X96729641Y-72892821D01*
X96729643Y-72892823D01*
X96872003Y-73035183D01*
X96905488Y-73096506D01*
X96900504Y-73166198D01*
X96858632Y-73222131D01*
X96836728Y-73235245D01*
X96835885Y-73235637D01*
X96686654Y-73327684D01*
X96562684Y-73451654D01*
X96470643Y-73600875D01*
X96470641Y-73600880D01*
X96415494Y-73767302D01*
X96415493Y-73767309D01*
X96405000Y-73870013D01*
X96405000Y-74290000D01*
X97457291Y-74290000D01*
X97445548Y-74310339D01*
X97405000Y-74461667D01*
X97405000Y-74618333D01*
X97445548Y-74769661D01*
X97457291Y-74790000D01*
X96405001Y-74790000D01*
X96405001Y-75209986D01*
X96415494Y-75312697D01*
X96470641Y-75479119D01*
X96470643Y-75479124D01*
X96562684Y-75628345D01*
X96686654Y-75752315D01*
X96835875Y-75844356D01*
X96835880Y-75844358D01*
X97002302Y-75899505D01*
X97002309Y-75899506D01*
X97105019Y-75909999D01*
X97749999Y-75909999D01*
X97750000Y-75909998D01*
X97750000Y-75082709D01*
X97770339Y-75094452D01*
X97921667Y-75135000D01*
X98078333Y-75135000D01*
X98229661Y-75094452D01*
X98250000Y-75082709D01*
X98250000Y-75909999D01*
X98894972Y-75909999D01*
X98894986Y-75909998D01*
X98997697Y-75899505D01*
X99164119Y-75844358D01*
X99164124Y-75844356D01*
X99313345Y-75752315D01*
X99437315Y-75628345D01*
X99529356Y-75479124D01*
X99529358Y-75479119D01*
X99584505Y-75312697D01*
X99584506Y-75312690D01*
X99594999Y-75209986D01*
X99595000Y-75209973D01*
X99595000Y-74790000D01*
X98542709Y-74790000D01*
X98554452Y-74769661D01*
X98595000Y-74618333D01*
X98595000Y-74461667D01*
X98554452Y-74310339D01*
X98542709Y-74290000D01*
X99594999Y-74290000D01*
X99594999Y-73955729D01*
X99614684Y-73888690D01*
X99667488Y-73842935D01*
X99736646Y-73832991D01*
X99800202Y-73862016D01*
X99806680Y-73868048D01*
X104673526Y-78734894D01*
X104707011Y-78796217D01*
X104708318Y-78841972D01*
X104699500Y-78897647D01*
X104699500Y-79102351D01*
X104731522Y-79304534D01*
X104794781Y-79499223D01*
X104799271Y-79508034D01*
X104873026Y-79652786D01*
X104887715Y-79681613D01*
X105008028Y-79847213D01*
X105152786Y-79991971D01*
X105307749Y-80104556D01*
X105318390Y-80112287D01*
X105434607Y-80171503D01*
X105500776Y-80205218D01*
X105500778Y-80205218D01*
X105500781Y-80205220D01*
X105605137Y-80239127D01*
X105695465Y-80268477D01*
X105779564Y-80281797D01*
X105897648Y-80300500D01*
X105897649Y-80300500D01*
X106102350Y-80300500D01*
X106102352Y-80300500D01*
X106158027Y-80291681D01*
X106227319Y-80300635D01*
X106265106Y-80326473D01*
X107021580Y-81082948D01*
X107021584Y-81082951D01*
X107144498Y-81165080D01*
X107144511Y-81165087D01*
X107262188Y-81213830D01*
X107281087Y-81221658D01*
X107281091Y-81221658D01*
X107281092Y-81221659D01*
X107426079Y-81250500D01*
X107426082Y-81250500D01*
X107573917Y-81250500D01*
X109874582Y-81250500D01*
X109941621Y-81270185D01*
X109974900Y-81301615D01*
X110008028Y-81347212D01*
X110008032Y-81347217D01*
X110152786Y-81491971D01*
X110301342Y-81599901D01*
X110318390Y-81612287D01*
X110434607Y-81671503D01*
X110500776Y-81705218D01*
X110500778Y-81705218D01*
X110500781Y-81705220D01*
X110605137Y-81739127D01*
X110695465Y-81768477D01*
X110796557Y-81784488D01*
X110897648Y-81800500D01*
X110897649Y-81800500D01*
X111102351Y-81800500D01*
X111102352Y-81800500D01*
X111304534Y-81768477D01*
X111499219Y-81705220D01*
X111681610Y-81612287D01*
X111774590Y-81544732D01*
X111847213Y-81491971D01*
X111847215Y-81491968D01*
X111847219Y-81491966D01*
X111991966Y-81347219D01*
X111991968Y-81347215D01*
X111991971Y-81347213D01*
X112062236Y-81250500D01*
X112112287Y-81181610D01*
X112205220Y-80999219D01*
X112268477Y-80804534D01*
X112300500Y-80602352D01*
X112300500Y-80397648D01*
X112268477Y-80195466D01*
X112205220Y-80000781D01*
X112205218Y-80000778D01*
X112205218Y-80000776D01*
X112171503Y-79934607D01*
X112112287Y-79818390D01*
X112062236Y-79749500D01*
X111991971Y-79652786D01*
X111843774Y-79504589D01*
X111845219Y-79503143D01*
X111811737Y-79451806D01*
X111811268Y-79381938D01*
X111848646Y-79322907D01*
X111901967Y-79295394D01*
X111907478Y-79294091D01*
X111907483Y-79294091D01*
X112042331Y-79243796D01*
X112157546Y-79157546D01*
X112243796Y-79042331D01*
X112294091Y-78907483D01*
X112300500Y-78847873D01*
X112300499Y-77152128D01*
X112294091Y-77092517D01*
X112286732Y-77072787D01*
X112255318Y-76988561D01*
X112250334Y-76918870D01*
X112283817Y-76857549D01*
X113734894Y-75406471D01*
X113796215Y-75372988D01*
X113841970Y-75371681D01*
X113897648Y-75380500D01*
X113897649Y-75380500D01*
X114102350Y-75380500D01*
X114102352Y-75380500D01*
X114158027Y-75371681D01*
X114227319Y-75380635D01*
X114265106Y-75406473D01*
X115934569Y-77075937D01*
X115968054Y-77137260D01*
X115963070Y-77206952D01*
X115947206Y-77236503D01*
X115887715Y-77318386D01*
X115794781Y-77500776D01*
X115731522Y-77695465D01*
X115699500Y-77897648D01*
X115699500Y-78102351D01*
X115708318Y-78158026D01*
X115699363Y-78227320D01*
X115673526Y-78265105D01*
X111174451Y-82764181D01*
X111113128Y-82797666D01*
X111086770Y-82800500D01*
X109375076Y-82800500D01*
X109346242Y-82806234D01*
X109346243Y-82806235D01*
X109230092Y-82829339D01*
X109230086Y-82829341D01*
X109167017Y-82855466D01*
X109093508Y-82885914D01*
X109055502Y-82911309D01*
X108970582Y-82968049D01*
X106265105Y-85673526D01*
X106203782Y-85707011D01*
X106158026Y-85708318D01*
X106102352Y-85699500D01*
X105897648Y-85699500D01*
X105873329Y-85703351D01*
X105695465Y-85731522D01*
X105500776Y-85794781D01*
X105318386Y-85887715D01*
X105152786Y-86008028D01*
X105008028Y-86152786D01*
X104887715Y-86318386D01*
X104794781Y-86500776D01*
X104731522Y-86695465D01*
X104699500Y-86897648D01*
X104699500Y-87102351D01*
X104731522Y-87304534D01*
X104794781Y-87499223D01*
X104856426Y-87620205D01*
X104869322Y-87688874D01*
X104843046Y-87753614D01*
X104785940Y-87793872D01*
X104745941Y-87800500D01*
X101753229Y-87800500D01*
X101686190Y-87780815D01*
X101665548Y-87764181D01*
X97166473Y-83265106D01*
X97132988Y-83203783D01*
X97131681Y-83158028D01*
X97140500Y-83102352D01*
X97140500Y-82897648D01*
X104699500Y-82897648D01*
X104699500Y-83102351D01*
X104731522Y-83304534D01*
X104794781Y-83499223D01*
X104858691Y-83624653D01*
X104876306Y-83659223D01*
X104887715Y-83681613D01*
X105008028Y-83847213D01*
X105152786Y-83991971D01*
X105307749Y-84104556D01*
X105318390Y-84112287D01*
X105413182Y-84160586D01*
X105500776Y-84205218D01*
X105500778Y-84205218D01*
X105500781Y-84205220D01*
X105605137Y-84239127D01*
X105695465Y-84268477D01*
X105779564Y-84281797D01*
X105897648Y-84300500D01*
X105897649Y-84300500D01*
X106102351Y-84300500D01*
X106102352Y-84300500D01*
X106304534Y-84268477D01*
X106499219Y-84205220D01*
X106681610Y-84112287D01*
X106774590Y-84044732D01*
X106847213Y-83991971D01*
X106847215Y-83991968D01*
X106847219Y-83991966D01*
X106991966Y-83847219D01*
X106991968Y-83847215D01*
X106991971Y-83847213D01*
X107062236Y-83750500D01*
X107112287Y-83681610D01*
X107205220Y-83499219D01*
X107268477Y-83304534D01*
X107300500Y-83102352D01*
X107300500Y-82897648D01*
X107268477Y-82695466D01*
X107205220Y-82500781D01*
X107205218Y-82500778D01*
X107205218Y-82500776D01*
X107153920Y-82400099D01*
X107112287Y-82318390D01*
X107104017Y-82307007D01*
X106991971Y-82152786D01*
X106847213Y-82008028D01*
X106681613Y-81887715D01*
X106681612Y-81887714D01*
X106681610Y-81887713D01*
X106624653Y-81858691D01*
X106499223Y-81794781D01*
X106304534Y-81731522D01*
X106129995Y-81703878D01*
X106102352Y-81699500D01*
X105897648Y-81699500D01*
X105873329Y-81703351D01*
X105695465Y-81731522D01*
X105500776Y-81794781D01*
X105318386Y-81887715D01*
X105152786Y-82008028D01*
X105008028Y-82152786D01*
X104887715Y-82318386D01*
X104794781Y-82500776D01*
X104731522Y-82695465D01*
X104699500Y-82897648D01*
X97140500Y-82897648D01*
X97108477Y-82695466D01*
X97045220Y-82500781D01*
X97045218Y-82500778D01*
X97045218Y-82500776D01*
X96993920Y-82400099D01*
X96952287Y-82318390D01*
X96944017Y-82307007D01*
X96831971Y-82152786D01*
X96687213Y-82008028D01*
X96521613Y-81887715D01*
X96521612Y-81887714D01*
X96521610Y-81887713D01*
X96464653Y-81858691D01*
X96339223Y-81794781D01*
X96144534Y-81731522D01*
X95969995Y-81703878D01*
X95942352Y-81699500D01*
X95737648Y-81699500D01*
X95713329Y-81703351D01*
X95535465Y-81731522D01*
X95340776Y-81794781D01*
X95158386Y-81887715D01*
X94992786Y-82008028D01*
X94848028Y-82152786D01*
X94727715Y-82318386D01*
X94634781Y-82500776D01*
X94571522Y-82695465D01*
X94539500Y-82897648D01*
X92500500Y-82897648D01*
X92500500Y-78750000D01*
X94563391Y-78750000D01*
X95524314Y-78750000D01*
X95519920Y-78754394D01*
X95467259Y-78845606D01*
X95440000Y-78947339D01*
X95440000Y-79052661D01*
X95467259Y-79154394D01*
X95519920Y-79245606D01*
X95524314Y-79250000D01*
X94563391Y-79250000D01*
X94572009Y-79304413D01*
X94635244Y-79499029D01*
X94728140Y-79681349D01*
X94848417Y-79846894D01*
X94848417Y-79846895D01*
X94993104Y-79991582D01*
X95158650Y-80111859D01*
X95340968Y-80204754D01*
X95535578Y-80267988D01*
X95590000Y-80276607D01*
X95590000Y-79315686D01*
X95594394Y-79320080D01*
X95685606Y-79372741D01*
X95787339Y-79400000D01*
X95892661Y-79400000D01*
X95994394Y-79372741D01*
X96085606Y-79320080D01*
X96090000Y-79315686D01*
X96090000Y-80276606D01*
X96144421Y-80267988D01*
X96339031Y-80204754D01*
X96521349Y-80111859D01*
X96686894Y-79991582D01*
X96686895Y-79991582D01*
X96831582Y-79846895D01*
X96831582Y-79846894D01*
X96951859Y-79681349D01*
X97044755Y-79499029D01*
X97107990Y-79304413D01*
X97116609Y-79250000D01*
X96155686Y-79250000D01*
X96160080Y-79245606D01*
X96212741Y-79154394D01*
X96240000Y-79052661D01*
X96240000Y-78947339D01*
X96212741Y-78845606D01*
X96160080Y-78754394D01*
X96155686Y-78750000D01*
X97116609Y-78750000D01*
X97107990Y-78695586D01*
X97044755Y-78500970D01*
X96951859Y-78318650D01*
X96831582Y-78153105D01*
X96831582Y-78153104D01*
X96686895Y-78008417D01*
X96521349Y-77888140D01*
X96339029Y-77795244D01*
X96144413Y-77732009D01*
X96090000Y-77723390D01*
X96090000Y-78684314D01*
X96085606Y-78679920D01*
X95994394Y-78627259D01*
X95892661Y-78600000D01*
X95787339Y-78600000D01*
X95685606Y-78627259D01*
X95594394Y-78679920D01*
X95590000Y-78684314D01*
X95590000Y-77723390D01*
X95535586Y-77732009D01*
X95340970Y-77795244D01*
X95158650Y-77888140D01*
X94993105Y-78008417D01*
X94993104Y-78008417D01*
X94848417Y-78153104D01*
X94848417Y-78153105D01*
X94728140Y-78318650D01*
X94635244Y-78500970D01*
X94572009Y-78695586D01*
X94563391Y-78750000D01*
X92500500Y-78750000D01*
X92500500Y-63892133D01*
X96404500Y-63892133D01*
X96404500Y-64107866D01*
X96438245Y-64320922D01*
X96438246Y-64320926D01*
X96504908Y-64526089D01*
X96602843Y-64718299D01*
X96729641Y-64892821D01*
X96729643Y-64892823D01*
X96872003Y-65035183D01*
X96905488Y-65096506D01*
X96900504Y-65166198D01*
X96858632Y-65222131D01*
X96836728Y-65235245D01*
X96835885Y-65235637D01*
X96686654Y-65327684D01*
X96562684Y-65451654D01*
X96470643Y-65600875D01*
X96470641Y-65600880D01*
X96415494Y-65767302D01*
X96415493Y-65767309D01*
X96405000Y-65870013D01*
X96405000Y-66290000D01*
X97457291Y-66290000D01*
X97445548Y-66310339D01*
X97405000Y-66461667D01*
X97405000Y-66618333D01*
X97445548Y-66769661D01*
X97457291Y-66790000D01*
X96405001Y-66790000D01*
X96405001Y-67209986D01*
X96415494Y-67312697D01*
X96470641Y-67479119D01*
X96470643Y-67479124D01*
X96562684Y-67628345D01*
X96686654Y-67752315D01*
X96835875Y-67844356D01*
X96835880Y-67844358D01*
X97002302Y-67899505D01*
X97002309Y-67899506D01*
X97105019Y-67909999D01*
X97749999Y-67909999D01*
X97750000Y-67909998D01*
X97750000Y-67082709D01*
X97770339Y-67094452D01*
X97921667Y-67135000D01*
X98078333Y-67135000D01*
X98229661Y-67094452D01*
X98250000Y-67082709D01*
X98250000Y-67909999D01*
X98894972Y-67909999D01*
X98894986Y-67909998D01*
X98997697Y-67899505D01*
X99164119Y-67844358D01*
X99164124Y-67844356D01*
X99313345Y-67752315D01*
X99437315Y-67628345D01*
X99529356Y-67479124D01*
X99529358Y-67479119D01*
X99584505Y-67312697D01*
X99584506Y-67312690D01*
X99594999Y-67209986D01*
X99595000Y-67209973D01*
X99595000Y-66790000D01*
X98542709Y-66790000D01*
X98554452Y-66769661D01*
X98595000Y-66618333D01*
X98595000Y-66461667D01*
X98554452Y-66310339D01*
X98542709Y-66290000D01*
X99594999Y-66290000D01*
X99594999Y-65870028D01*
X99594998Y-65870013D01*
X99584505Y-65767302D01*
X99529358Y-65600880D01*
X99529356Y-65600875D01*
X99437315Y-65451654D01*
X99313345Y-65327684D01*
X99164118Y-65235640D01*
X99163277Y-65235248D01*
X99162796Y-65234824D01*
X99157975Y-65231851D01*
X99158483Y-65231027D01*
X99110836Y-65189078D01*
X99091681Y-65121885D01*
X99111894Y-65055003D01*
X99127987Y-65035192D01*
X99260727Y-64902452D01*
X99322048Y-64868970D01*
X99391740Y-64873954D01*
X99436087Y-64902455D01*
X105213181Y-70679549D01*
X105246666Y-70740872D01*
X105249500Y-70767230D01*
X105249500Y-72874582D01*
X105229815Y-72941621D01*
X105198385Y-72974900D01*
X105152787Y-73008028D01*
X105152782Y-73008032D01*
X105008028Y-73152786D01*
X104887715Y-73318386D01*
X104794781Y-73500776D01*
X104731522Y-73695465D01*
X104699500Y-73897648D01*
X104699500Y-74102351D01*
X104731522Y-74304534D01*
X104794781Y-74499223D01*
X104835542Y-74579219D01*
X104878207Y-74662954D01*
X104887715Y-74681613D01*
X105008028Y-74847213D01*
X105152786Y-74991971D01*
X105262892Y-75071966D01*
X105318390Y-75112287D01*
X105434607Y-75171503D01*
X105500776Y-75205218D01*
X105500778Y-75205218D01*
X105500781Y-75205220D01*
X105605137Y-75239127D01*
X105695465Y-75268477D01*
X105796557Y-75284488D01*
X105897648Y-75300500D01*
X105897649Y-75300500D01*
X106102351Y-75300500D01*
X106102352Y-75300500D01*
X106304534Y-75268477D01*
X106499219Y-75205220D01*
X106681610Y-75112287D01*
X106778103Y-75042181D01*
X106847213Y-74991971D01*
X106847215Y-74991968D01*
X106847219Y-74991966D01*
X106991966Y-74847219D01*
X106991968Y-74847215D01*
X106991971Y-74847213D01*
X107066171Y-74745084D01*
X107112287Y-74681610D01*
X107205220Y-74499219D01*
X107268477Y-74304534D01*
X107300500Y-74102352D01*
X107300500Y-73897648D01*
X108699500Y-73897648D01*
X108699500Y-74102351D01*
X108731522Y-74304534D01*
X108794781Y-74499223D01*
X108835542Y-74579219D01*
X108878207Y-74662954D01*
X108887715Y-74681613D01*
X109008028Y-74847213D01*
X109152786Y-74991971D01*
X109262892Y-75071966D01*
X109318390Y-75112287D01*
X109434607Y-75171503D01*
X109500776Y-75205218D01*
X109500778Y-75205218D01*
X109500781Y-75205220D01*
X109605137Y-75239127D01*
X109695465Y-75268477D01*
X109796557Y-75284488D01*
X109897648Y-75300500D01*
X109897649Y-75300500D01*
X110102351Y-75300500D01*
X110102352Y-75300500D01*
X110304534Y-75268477D01*
X110499219Y-75205220D01*
X110681610Y-75112287D01*
X110778103Y-75042181D01*
X110847213Y-74991971D01*
X110847215Y-74991968D01*
X110847219Y-74991966D01*
X110991966Y-74847219D01*
X110991968Y-74847215D01*
X110991971Y-74847213D01*
X111066171Y-74745084D01*
X111112287Y-74681610D01*
X111205220Y-74499219D01*
X111268477Y-74304534D01*
X111300500Y-74102352D01*
X111300500Y-73897648D01*
X111268477Y-73695466D01*
X111205220Y-73500781D01*
X111205218Y-73500778D01*
X111205218Y-73500776D01*
X111138838Y-73370500D01*
X111112287Y-73318390D01*
X111077197Y-73270092D01*
X110991971Y-73152786D01*
X110847217Y-73008032D01*
X110847212Y-73008028D01*
X110801615Y-72974900D01*
X110758949Y-72919571D01*
X110750500Y-72874582D01*
X110750500Y-68282228D01*
X110770185Y-68215189D01*
X110786814Y-68194552D01*
X113734894Y-65246471D01*
X113796215Y-65212988D01*
X113841970Y-65211681D01*
X113897648Y-65220500D01*
X113897649Y-65220500D01*
X114102351Y-65220500D01*
X114102352Y-65220500D01*
X114304534Y-65188477D01*
X114499219Y-65125220D01*
X114681610Y-65032287D01*
X114774590Y-64964732D01*
X114847213Y-64911971D01*
X114847215Y-64911968D01*
X114847219Y-64911966D01*
X114991966Y-64767219D01*
X114994650Y-64763524D01*
X115025100Y-64721615D01*
X115080429Y-64678949D01*
X115125418Y-64670500D01*
X116874582Y-64670500D01*
X116941621Y-64690185D01*
X116974900Y-64721615D01*
X117008028Y-64767212D01*
X117008032Y-64767217D01*
X117152786Y-64911971D01*
X117262892Y-64991966D01*
X117318390Y-65032287D01*
X117434607Y-65091503D01*
X117500776Y-65125218D01*
X117500778Y-65125218D01*
X117500781Y-65125220D01*
X117605137Y-65159127D01*
X117695465Y-65188477D01*
X117779564Y-65201797D01*
X117897648Y-65220500D01*
X117897649Y-65220500D01*
X118102351Y-65220500D01*
X118102352Y-65220500D01*
X118304534Y-65188477D01*
X118499219Y-65125220D01*
X118681610Y-65032287D01*
X118774590Y-64964732D01*
X118847213Y-64911971D01*
X118847215Y-64911968D01*
X118847219Y-64911966D01*
X118991966Y-64767219D01*
X118994650Y-64763524D01*
X119025100Y-64721615D01*
X119080429Y-64678949D01*
X119125418Y-64670500D01*
X122364324Y-64670500D01*
X122431363Y-64690185D01*
X122452005Y-64706819D01*
X123239255Y-65494069D01*
X123272740Y-65555392D01*
X123267756Y-65625084D01*
X123225884Y-65681017D01*
X123160420Y-65705434D01*
X123132179Y-65704224D01*
X123124779Y-65703052D01*
X123102352Y-65699500D01*
X122897648Y-65699500D01*
X122873329Y-65703351D01*
X122695465Y-65731522D01*
X122500776Y-65794781D01*
X122318386Y-65887715D01*
X122152786Y-66008028D01*
X122008028Y-66152786D01*
X121887715Y-66318386D01*
X121794781Y-66500776D01*
X121731522Y-66695465D01*
X121704224Y-66867823D01*
X121699500Y-66897648D01*
X121699500Y-67102352D01*
X121702704Y-67122580D01*
X121731522Y-67304534D01*
X121794781Y-67499223D01*
X121887715Y-67681613D01*
X122008028Y-67847213D01*
X122152786Y-67991971D01*
X122307749Y-68104556D01*
X122318390Y-68112287D01*
X122397864Y-68152781D01*
X122500776Y-68205218D01*
X122500778Y-68205218D01*
X122500781Y-68205220D01*
X122605137Y-68239127D01*
X122695465Y-68268477D01*
X122779564Y-68281797D01*
X122897648Y-68300500D01*
X122897649Y-68300500D01*
X123102350Y-68300500D01*
X123102352Y-68300500D01*
X123158027Y-68291681D01*
X123227319Y-68300635D01*
X123265106Y-68326473D01*
X125582181Y-70643548D01*
X125615666Y-70704871D01*
X125618500Y-70731229D01*
X125618500Y-76169472D01*
X125618500Y-76169474D01*
X125618499Y-76169474D01*
X125647340Y-76314461D01*
X125647343Y-76314471D01*
X125703914Y-76451046D01*
X125721459Y-76477304D01*
X125742337Y-76543982D01*
X125723852Y-76611362D01*
X125671873Y-76658052D01*
X125656676Y-76664126D01*
X125500776Y-76714781D01*
X125318386Y-76807715D01*
X125152786Y-76928028D01*
X125008032Y-77072782D01*
X125008028Y-77072787D01*
X124916777Y-77198385D01*
X124861448Y-77241051D01*
X124816459Y-77249500D01*
X123125418Y-77249500D01*
X123058379Y-77229815D01*
X123025100Y-77198385D01*
X122991971Y-77152787D01*
X122991967Y-77152782D01*
X122847213Y-77008028D01*
X122681613Y-76887715D01*
X122681612Y-76887714D01*
X122681610Y-76887713D01*
X122622406Y-76857547D01*
X122499223Y-76794781D01*
X122304534Y-76731522D01*
X122129995Y-76703878D01*
X122102352Y-76699500D01*
X121897648Y-76699500D01*
X121841971Y-76708318D01*
X121772678Y-76699363D01*
X121734893Y-76673526D01*
X120103549Y-75042181D01*
X120070064Y-74980858D01*
X120075048Y-74911166D01*
X120116920Y-74855233D01*
X120182384Y-74830816D01*
X120191230Y-74830500D01*
X120993920Y-74830500D01*
X121091462Y-74811096D01*
X121138913Y-74801658D01*
X121275495Y-74745084D01*
X121324729Y-74712186D01*
X121398416Y-74662952D01*
X122734894Y-73326471D01*
X122796215Y-73292988D01*
X122841970Y-73291681D01*
X122897648Y-73300500D01*
X122897649Y-73300500D01*
X123102351Y-73300500D01*
X123102352Y-73300500D01*
X123304534Y-73268477D01*
X123499219Y-73205220D01*
X123681610Y-73112287D01*
X123774590Y-73044732D01*
X123847213Y-72991971D01*
X123847215Y-72991968D01*
X123847219Y-72991966D01*
X123991966Y-72847219D01*
X123991968Y-72847215D01*
X123991971Y-72847213D01*
X124044732Y-72774590D01*
X124112287Y-72681610D01*
X124205220Y-72499219D01*
X124268477Y-72304534D01*
X124300500Y-72102352D01*
X124300500Y-71897648D01*
X124299627Y-71892139D01*
X124268477Y-71695465D01*
X124205218Y-71500776D01*
X124148868Y-71390185D01*
X124112287Y-71318390D01*
X124104556Y-71307749D01*
X123991971Y-71152786D01*
X123847213Y-71008028D01*
X123681613Y-70887715D01*
X123681612Y-70887714D01*
X123681610Y-70887713D01*
X123613386Y-70852951D01*
X123499223Y-70794781D01*
X123304534Y-70731522D01*
X123129995Y-70703878D01*
X123102352Y-70699500D01*
X122897648Y-70699500D01*
X122890779Y-70700588D01*
X122695465Y-70731522D01*
X122500776Y-70794781D01*
X122318386Y-70887715D01*
X122152786Y-71008028D01*
X122008028Y-71152786D01*
X121887715Y-71318386D01*
X121794781Y-71500776D01*
X121731522Y-71695465D01*
X121700373Y-71892139D01*
X121699500Y-71897648D01*
X121699500Y-72102352D01*
X121706980Y-72149581D01*
X121708318Y-72158026D01*
X121699363Y-72227320D01*
X121673526Y-72265105D01*
X120645451Y-73293181D01*
X120584128Y-73326666D01*
X120557770Y-73329500D01*
X119125418Y-73329500D01*
X119058379Y-73309815D01*
X119025100Y-73278385D01*
X118991971Y-73232787D01*
X118991967Y-73232782D01*
X118847213Y-73088028D01*
X118681613Y-72967715D01*
X118681612Y-72967714D01*
X118681610Y-72967713D01*
X118622832Y-72937764D01*
X118499223Y-72874781D01*
X118304534Y-72811522D01*
X118129995Y-72783878D01*
X118102352Y-72779500D01*
X117897648Y-72779500D01*
X117873329Y-72783351D01*
X117695465Y-72811522D01*
X117500776Y-72874781D01*
X117318386Y-72967715D01*
X117152786Y-73088028D01*
X117008028Y-73232786D01*
X116887715Y-73398386D01*
X116794781Y-73580776D01*
X116731522Y-73775465D01*
X116699500Y-73977648D01*
X116699500Y-74182351D01*
X116731522Y-74384534D01*
X116794781Y-74579223D01*
X116835542Y-74659219D01*
X116878207Y-74742954D01*
X116887715Y-74761613D01*
X117008028Y-74927213D01*
X117152786Y-75071971D01*
X117262892Y-75151966D01*
X117318390Y-75192287D01*
X117434607Y-75251503D01*
X117500776Y-75285218D01*
X117500778Y-75285218D01*
X117500781Y-75285220D01*
X117605137Y-75319127D01*
X117695465Y-75348477D01*
X117772909Y-75360743D01*
X117897648Y-75380500D01*
X117897649Y-75380500D01*
X118102351Y-75380500D01*
X118102352Y-75380500D01*
X118227088Y-75360743D01*
X118296381Y-75369697D01*
X118334167Y-75395535D01*
X120673526Y-77734893D01*
X120707011Y-77796216D01*
X120708318Y-77841971D01*
X120699500Y-77897647D01*
X120699500Y-78102351D01*
X120731522Y-78304534D01*
X120794781Y-78499223D01*
X120846951Y-78601610D01*
X120886357Y-78678949D01*
X120887715Y-78681613D01*
X121008028Y-78847213D01*
X121008034Y-78847219D01*
X121152781Y-78991966D01*
X121198384Y-79025098D01*
X121241050Y-79080425D01*
X121249500Y-79125416D01*
X121249500Y-83847164D01*
X121229815Y-83914203D01*
X121177011Y-83959958D01*
X121163822Y-83965093D01*
X121150598Y-83969390D01*
X121117550Y-83980128D01*
X120963211Y-84058768D01*
X120889554Y-84112284D01*
X120823072Y-84160586D01*
X120823070Y-84160588D01*
X120823069Y-84160588D01*
X120700588Y-84283069D01*
X120700588Y-84283070D01*
X120700586Y-84283072D01*
X120669053Y-84326473D01*
X120598768Y-84423211D01*
X120520128Y-84577552D01*
X120487931Y-84676644D01*
X120448493Y-84734320D01*
X120384135Y-84761518D01*
X120315288Y-84749603D01*
X120263813Y-84702359D01*
X120252069Y-84676644D01*
X120219873Y-84577555D01*
X120141232Y-84423212D01*
X120039414Y-84283072D01*
X119916928Y-84160586D01*
X119776788Y-84058768D01*
X119622445Y-83980127D01*
X119457701Y-83926598D01*
X119457699Y-83926597D01*
X119457698Y-83926597D01*
X119326271Y-83905781D01*
X119286611Y-83899500D01*
X118713389Y-83899500D01*
X118673728Y-83905781D01*
X118542302Y-83926597D01*
X118377552Y-83980128D01*
X118223211Y-84058768D01*
X118149554Y-84112284D01*
X118083072Y-84160586D01*
X118083070Y-84160588D01*
X118083069Y-84160588D01*
X117960588Y-84283069D01*
X117960588Y-84283070D01*
X117960586Y-84283072D01*
X117929053Y-84326473D01*
X117858768Y-84423211D01*
X117780128Y-84577552D01*
X117726597Y-84742302D01*
X117723554Y-84761518D01*
X117699500Y-84913389D01*
X117699500Y-85086611D01*
X117726598Y-85257701D01*
X117780127Y-85422445D01*
X117858768Y-85576788D01*
X117960586Y-85716928D01*
X118083072Y-85839414D01*
X118223212Y-85941232D01*
X118377555Y-86019873D01*
X118542299Y-86073402D01*
X118713389Y-86100500D01*
X119045500Y-86100500D01*
X119112539Y-86120185D01*
X119158294Y-86172989D01*
X119169500Y-86224500D01*
X119169500Y-86356610D01*
X119194267Y-86512987D01*
X119196598Y-86527701D01*
X119246057Y-86679920D01*
X119250128Y-86692447D01*
X119298976Y-86788318D01*
X119328768Y-86846788D01*
X119430586Y-86986928D01*
X119553072Y-87109414D01*
X119693212Y-87211232D01*
X119847555Y-87289873D01*
X120012299Y-87343402D01*
X120183389Y-87370500D01*
X120183390Y-87370500D01*
X120356610Y-87370500D01*
X120356611Y-87370500D01*
X120527701Y-87343402D01*
X120692445Y-87289873D01*
X120846788Y-87211232D01*
X120986928Y-87109414D01*
X121109414Y-86986928D01*
X121211232Y-86846788D01*
X121289873Y-86692445D01*
X121343402Y-86527701D01*
X121370500Y-86356611D01*
X121370500Y-86224500D01*
X121390185Y-86157461D01*
X121442989Y-86111706D01*
X121494500Y-86100500D01*
X121626610Y-86100500D01*
X121626611Y-86100500D01*
X121797701Y-86073402D01*
X121962445Y-86019873D01*
X122116788Y-85941232D01*
X122256928Y-85839414D01*
X122379414Y-85716928D01*
X122481232Y-85576788D01*
X122559873Y-85422445D01*
X122613402Y-85257701D01*
X122640500Y-85086611D01*
X122640500Y-84969901D01*
X122660185Y-84902862D01*
X122661370Y-84901053D01*
X122665084Y-84895495D01*
X122721658Y-84758913D01*
X122750500Y-84613918D01*
X122750500Y-84466083D01*
X122750500Y-79125416D01*
X122770185Y-79058377D01*
X122801613Y-79025099D01*
X122847219Y-78991966D01*
X122991966Y-78847219D01*
X122995778Y-78841972D01*
X123025100Y-78801615D01*
X123080429Y-78758949D01*
X123125418Y-78750500D01*
X124939953Y-78750500D01*
X125006992Y-78770185D01*
X125027634Y-78786819D01*
X125152786Y-78911971D01*
X125262892Y-78991966D01*
X125318390Y-79032287D01*
X125412866Y-79080425D01*
X125500776Y-79125218D01*
X125500778Y-79125218D01*
X125500781Y-79125220D01*
X125590569Y-79154394D01*
X125695465Y-79188477D01*
X125792103Y-79203783D01*
X125897648Y-79220500D01*
X125897649Y-79220500D01*
X126102351Y-79220500D01*
X126102352Y-79220500D01*
X126304534Y-79188477D01*
X126499219Y-79125220D01*
X126681610Y-79032287D01*
X126798532Y-78947339D01*
X126847213Y-78911971D01*
X126847215Y-78911968D01*
X126847219Y-78911966D01*
X126991966Y-78767219D01*
X126992635Y-78766299D01*
X127025181Y-78721502D01*
X127080510Y-78678836D01*
X127150123Y-78672855D01*
X127211919Y-78705460D01*
X127246277Y-78766299D01*
X127249500Y-78794386D01*
X127249500Y-86153918D01*
X127249500Y-86153920D01*
X127249499Y-86153920D01*
X127278340Y-86298907D01*
X127278343Y-86298917D01*
X127334914Y-86435492D01*
X127334915Y-86435494D01*
X127334916Y-86435495D01*
X127364320Y-86479502D01*
X127367812Y-86484727D01*
X127367813Y-86484730D01*
X127417046Y-86558414D01*
X127417052Y-86558421D01*
X128673526Y-87814893D01*
X128707011Y-87876216D01*
X128708318Y-87921971D01*
X128699500Y-87977647D01*
X128699500Y-88182351D01*
X128731522Y-88384534D01*
X128794781Y-88579223D01*
X128823093Y-88634787D01*
X128879196Y-88744895D01*
X128887715Y-88761613D01*
X129008028Y-88927213D01*
X129152786Y-89071971D01*
X129269836Y-89157011D01*
X129318390Y-89192287D01*
X129391425Y-89229500D01*
X129500776Y-89285218D01*
X129500778Y-89285218D01*
X129500781Y-89285220D01*
X129559608Y-89304334D01*
X129695465Y-89348477D01*
X129779564Y-89361797D01*
X129897648Y-89380500D01*
X129897649Y-89380500D01*
X130102350Y-89380500D01*
X130102352Y-89380500D01*
X130158026Y-89371681D01*
X130227318Y-89380635D01*
X130265105Y-89406473D01*
X131421586Y-90562954D01*
X131443538Y-90577621D01*
X131476784Y-90599834D01*
X131521591Y-90653445D01*
X131530300Y-90722770D01*
X131500147Y-90785798D01*
X131464191Y-90813423D01*
X131318386Y-90887715D01*
X131152786Y-91008028D01*
X131008028Y-91152786D01*
X130887715Y-91318386D01*
X130794781Y-91500776D01*
X130731522Y-91695465D01*
X130699500Y-91897648D01*
X130699500Y-92102351D01*
X130731522Y-92304534D01*
X130794781Y-92499223D01*
X130858691Y-92624653D01*
X130887585Y-92681359D01*
X130887715Y-92681613D01*
X131008028Y-92847213D01*
X131152786Y-92991971D01*
X131273226Y-93079474D01*
X131318390Y-93112287D01*
X131402319Y-93155051D01*
X131500776Y-93205218D01*
X131500778Y-93205218D01*
X131500781Y-93205220D01*
X131605137Y-93239127D01*
X131695465Y-93268477D01*
X131796557Y-93284488D01*
X131897648Y-93300500D01*
X131897649Y-93300500D01*
X132102351Y-93300500D01*
X132102352Y-93300500D01*
X132304534Y-93268477D01*
X132499219Y-93205220D01*
X132681610Y-93112287D01*
X132836160Y-93000001D01*
X132847213Y-92991971D01*
X132847215Y-92991968D01*
X132847219Y-92991966D01*
X132991966Y-92847219D01*
X132991968Y-92847215D01*
X132991971Y-92847213D01*
X133062236Y-92750500D01*
X133112287Y-92681610D01*
X133205220Y-92499219D01*
X133268477Y-92304534D01*
X133300500Y-92102352D01*
X133300500Y-91897648D01*
X133299877Y-91893713D01*
X156649500Y-91893713D01*
X156649500Y-92106286D01*
X156676075Y-92274077D01*
X156682754Y-92316243D01*
X156709968Y-92400000D01*
X156748444Y-92518414D01*
X156844951Y-92707820D01*
X156969890Y-92879786D01*
X157120213Y-93030109D01*
X157292179Y-93155048D01*
X157292181Y-93155049D01*
X157292184Y-93155051D01*
X157481588Y-93251557D01*
X157683757Y-93317246D01*
X157893713Y-93350500D01*
X157893714Y-93350500D01*
X158106286Y-93350500D01*
X158106287Y-93350500D01*
X158316243Y-93317246D01*
X158518412Y-93251557D01*
X158707816Y-93155051D01*
X158848745Y-93052661D01*
X158879786Y-93030109D01*
X158879788Y-93030106D01*
X158879792Y-93030104D01*
X159030104Y-92879792D01*
X159030106Y-92879788D01*
X159030109Y-92879786D01*
X159155048Y-92707820D01*
X159155049Y-92707819D01*
X159155051Y-92707816D01*
X159251557Y-92518412D01*
X159317246Y-92316243D01*
X159350500Y-92106287D01*
X159350500Y-91893713D01*
X159317246Y-91683757D01*
X159251557Y-91481588D01*
X159155051Y-91292184D01*
X159155049Y-91292181D01*
X159155048Y-91292179D01*
X159030109Y-91120213D01*
X158879786Y-90969890D01*
X158707820Y-90844951D01*
X158518414Y-90748444D01*
X158518413Y-90748443D01*
X158518412Y-90748443D01*
X158316243Y-90682754D01*
X158316241Y-90682753D01*
X158316240Y-90682753D01*
X158154957Y-90657208D01*
X158106287Y-90649500D01*
X157893713Y-90649500D01*
X157845042Y-90657208D01*
X157683760Y-90682753D01*
X157481585Y-90748444D01*
X157292179Y-90844951D01*
X157120213Y-90969890D01*
X157120209Y-90969894D01*
X156969897Y-91120207D01*
X156969890Y-91120213D01*
X156844951Y-91292179D01*
X156748444Y-91481585D01*
X156682753Y-91683760D01*
X156649500Y-91893713D01*
X133299877Y-91893713D01*
X133280835Y-91773492D01*
X133268477Y-91695465D01*
X133229335Y-91574999D01*
X133205220Y-91500781D01*
X133205218Y-91500778D01*
X133205218Y-91500776D01*
X133142230Y-91377157D01*
X133112287Y-91318390D01*
X133094091Y-91293345D01*
X132991971Y-91152786D01*
X132847219Y-91008034D01*
X132773974Y-90954819D01*
X132731308Y-90899489D01*
X132725329Y-90829875D01*
X132757934Y-90768080D01*
X132818773Y-90733723D01*
X132846859Y-90730500D01*
X137113620Y-90730500D01*
X137180659Y-90750185D01*
X137224105Y-90798205D01*
X137287843Y-90923299D01*
X137414641Y-91097821D01*
X137567179Y-91250359D01*
X137741701Y-91377157D01*
X137933911Y-91475092D01*
X138139074Y-91541754D01*
X138218973Y-91554408D01*
X138352134Y-91575500D01*
X138352139Y-91575500D01*
X138567866Y-91575500D01*
X138686230Y-91556752D01*
X138780926Y-91541754D01*
X138986089Y-91475092D01*
X139178299Y-91377157D01*
X139352821Y-91250359D01*
X139505359Y-91097821D01*
X139629682Y-90926704D01*
X139685012Y-90884040D01*
X139754626Y-90878061D01*
X139816420Y-90910667D01*
X139830315Y-90926702D01*
X139954641Y-91097821D01*
X140107179Y-91250359D01*
X140281701Y-91377157D01*
X140473911Y-91475092D01*
X140679074Y-91541754D01*
X140758973Y-91554408D01*
X140892134Y-91575500D01*
X140892139Y-91575500D01*
X141107866Y-91575500D01*
X141226230Y-91556752D01*
X141320926Y-91541754D01*
X141526089Y-91475092D01*
X141718299Y-91377157D01*
X141892821Y-91250359D01*
X142034807Y-91108372D01*
X142096126Y-91074890D01*
X142165818Y-91079874D01*
X142221752Y-91121745D01*
X142234864Y-91143645D01*
X142235181Y-91144326D01*
X142235186Y-91144334D01*
X142327288Y-91293656D01*
X142451344Y-91417712D01*
X142600666Y-91509814D01*
X142767203Y-91564999D01*
X142869991Y-91575500D01*
X144210008Y-91575499D01*
X144312797Y-91564999D01*
X144479334Y-91509814D01*
X144628656Y-91417712D01*
X144752712Y-91293656D01*
X144844814Y-91144334D01*
X144899999Y-90977797D01*
X144910500Y-90875009D01*
X144910499Y-89084992D01*
X144909901Y-89079142D01*
X144899999Y-88982203D01*
X144899998Y-88982200D01*
X144872865Y-88900318D01*
X144844814Y-88815666D01*
X144774814Y-88702177D01*
X144756375Y-88634787D01*
X144777298Y-88568124D01*
X144830940Y-88523354D01*
X144900270Y-88514693D01*
X144963278Y-88544890D01*
X144968035Y-88549402D01*
X146053181Y-89634548D01*
X146086666Y-89695871D01*
X146089500Y-89722229D01*
X146089500Y-90312866D01*
X146123245Y-90525922D01*
X146123246Y-90525926D01*
X146189908Y-90731089D01*
X146287843Y-90923299D01*
X146414641Y-91097821D01*
X146567179Y-91250359D01*
X146741701Y-91377157D01*
X146933911Y-91475092D01*
X147139074Y-91541754D01*
X147218973Y-91554408D01*
X147352134Y-91575500D01*
X147352139Y-91575500D01*
X147567866Y-91575500D01*
X147686230Y-91556752D01*
X147780926Y-91541754D01*
X147986089Y-91475092D01*
X148178299Y-91377157D01*
X148352821Y-91250359D01*
X148505359Y-91097821D01*
X148629682Y-90926704D01*
X148685012Y-90884040D01*
X148754626Y-90878061D01*
X148816420Y-90910667D01*
X148830315Y-90926702D01*
X148954641Y-91097821D01*
X149107179Y-91250359D01*
X149281701Y-91377157D01*
X149473911Y-91475092D01*
X149679074Y-91541754D01*
X149758973Y-91554408D01*
X149892134Y-91575500D01*
X149892139Y-91575500D01*
X150107866Y-91575500D01*
X150226230Y-91556752D01*
X150320926Y-91541754D01*
X150526089Y-91475092D01*
X150718299Y-91377157D01*
X150892821Y-91250359D01*
X151035186Y-91107993D01*
X151096505Y-91074511D01*
X151166197Y-91079495D01*
X151222131Y-91121366D01*
X151235248Y-91143277D01*
X151235640Y-91144118D01*
X151327684Y-91293345D01*
X151451654Y-91417315D01*
X151600875Y-91509356D01*
X151600880Y-91509358D01*
X151767302Y-91564505D01*
X151767309Y-91564506D01*
X151870019Y-91574999D01*
X152289999Y-91574999D01*
X152290000Y-91574998D01*
X152290000Y-90522709D01*
X152310339Y-90534452D01*
X152461667Y-90575000D01*
X152618333Y-90575000D01*
X152769661Y-90534452D01*
X152790000Y-90522709D01*
X152790000Y-91574999D01*
X153209972Y-91574999D01*
X153209986Y-91574998D01*
X153312697Y-91564505D01*
X153479119Y-91509358D01*
X153479124Y-91509356D01*
X153628345Y-91417315D01*
X153752315Y-91293345D01*
X153844356Y-91144124D01*
X153844358Y-91144119D01*
X153899505Y-90977697D01*
X153899506Y-90977690D01*
X153909999Y-90874986D01*
X153910000Y-90874973D01*
X153910000Y-90230000D01*
X153082709Y-90230000D01*
X153094452Y-90209661D01*
X153135000Y-90058333D01*
X153135000Y-89901667D01*
X153094452Y-89750339D01*
X153082709Y-89730000D01*
X153909999Y-89730000D01*
X153909999Y-89085028D01*
X153909998Y-89085013D01*
X153899505Y-88982302D01*
X153844358Y-88815880D01*
X153844356Y-88815875D01*
X153752315Y-88666654D01*
X153628345Y-88542684D01*
X153479124Y-88450643D01*
X153479119Y-88450641D01*
X153312697Y-88395494D01*
X153312690Y-88395493D01*
X153209986Y-88385000D01*
X152790000Y-88385000D01*
X152790000Y-89437290D01*
X152769661Y-89425548D01*
X152618333Y-89385000D01*
X152461667Y-89385000D01*
X152310339Y-89425548D01*
X152290000Y-89437290D01*
X152290000Y-88385000D01*
X151870028Y-88385000D01*
X151870012Y-88385001D01*
X151767302Y-88395494D01*
X151600880Y-88450641D01*
X151600875Y-88450643D01*
X151451654Y-88542684D01*
X151327684Y-88666654D01*
X151235637Y-88815885D01*
X151235245Y-88816728D01*
X151234821Y-88817208D01*
X151231851Y-88822025D01*
X151231027Y-88821517D01*
X151189072Y-88869167D01*
X151121879Y-88888318D01*
X151054998Y-88868101D01*
X151035183Y-88852003D01*
X150892823Y-88709643D01*
X150892821Y-88709641D01*
X150718299Y-88582843D01*
X150526089Y-88484908D01*
X150320926Y-88418246D01*
X150320924Y-88418245D01*
X150320922Y-88418245D01*
X150107866Y-88384500D01*
X150107861Y-88384500D01*
X149892139Y-88384500D01*
X149892134Y-88384500D01*
X149679077Y-88418245D01*
X149473908Y-88484909D01*
X149281700Y-88582843D01*
X149210206Y-88634787D01*
X149107179Y-88709641D01*
X149107177Y-88709643D01*
X149107176Y-88709643D01*
X148954643Y-88862176D01*
X148954643Y-88862177D01*
X148954641Y-88862179D01*
X148926931Y-88900319D01*
X148830318Y-89033294D01*
X148774988Y-89075959D01*
X148705374Y-89081938D01*
X148643579Y-89049332D01*
X148629682Y-89033294D01*
X148607435Y-89002674D01*
X148505359Y-88862179D01*
X148352821Y-88709641D01*
X148178299Y-88582843D01*
X147986089Y-88484908D01*
X147780926Y-88418246D01*
X147780924Y-88418245D01*
X147780922Y-88418245D01*
X147567866Y-88384500D01*
X147567861Y-88384500D01*
X147352139Y-88384500D01*
X147352134Y-88384500D01*
X147139074Y-88418245D01*
X147075888Y-88438775D01*
X147006047Y-88440769D01*
X146949891Y-88408524D01*
X141681826Y-83140457D01*
X141599017Y-83057648D01*
X143699500Y-83057648D01*
X143699500Y-83262351D01*
X143731522Y-83464534D01*
X143794781Y-83659223D01*
X143887715Y-83841613D01*
X144008028Y-84007213D01*
X144152786Y-84151971D01*
X144307749Y-84264556D01*
X144318390Y-84272287D01*
X144424736Y-84326473D01*
X144500776Y-84365218D01*
X144500778Y-84365218D01*
X144500781Y-84365220D01*
X144605137Y-84399127D01*
X144695465Y-84428477D01*
X144796557Y-84444488D01*
X144897648Y-84460500D01*
X144897649Y-84460500D01*
X145102351Y-84460500D01*
X145102352Y-84460500D01*
X145304534Y-84428477D01*
X145499219Y-84365220D01*
X145681610Y-84272287D01*
X145805626Y-84182185D01*
X145847213Y-84151971D01*
X145847215Y-84151968D01*
X145847219Y-84151966D01*
X145991966Y-84007219D01*
X145991968Y-84007215D01*
X145991971Y-84007213D01*
X146050541Y-83926597D01*
X146112287Y-83841610D01*
X146205220Y-83659219D01*
X146268477Y-83464534D01*
X146300500Y-83262352D01*
X146300500Y-83057648D01*
X146268477Y-82855466D01*
X146259988Y-82829341D01*
X146216490Y-82695466D01*
X146205220Y-82660781D01*
X146205218Y-82660778D01*
X146205218Y-82660776D01*
X146161921Y-82575802D01*
X146112287Y-82478390D01*
X146055406Y-82400099D01*
X145991971Y-82312786D01*
X145847213Y-82168028D01*
X145681614Y-82047715D01*
X145563553Y-81987560D01*
X145499223Y-81954781D01*
X145304534Y-81891522D01*
X145244079Y-81881947D01*
X152500000Y-81881947D01*
X152500000Y-82118052D01*
X152536934Y-82351247D01*
X152609897Y-82575802D01*
X152717087Y-82786174D01*
X152777338Y-82869104D01*
X152777340Y-82869105D01*
X153517037Y-82129408D01*
X153534075Y-82192993D01*
X153599901Y-82307007D01*
X153692993Y-82400099D01*
X153807007Y-82465925D01*
X153870590Y-82482962D01*
X153130893Y-83222658D01*
X153213828Y-83282914D01*
X153424197Y-83390102D01*
X153648752Y-83463065D01*
X153648751Y-83463065D01*
X153881948Y-83500000D01*
X154118052Y-83500000D01*
X154351247Y-83463065D01*
X154575802Y-83390102D01*
X154786163Y-83282918D01*
X154786169Y-83282914D01*
X154869104Y-83222658D01*
X154869105Y-83222658D01*
X154129408Y-82482962D01*
X154192993Y-82465925D01*
X154307007Y-82400099D01*
X154400099Y-82307007D01*
X154465925Y-82192993D01*
X154482962Y-82129409D01*
X155222658Y-82869105D01*
X155222658Y-82869104D01*
X155282914Y-82786169D01*
X155282918Y-82786163D01*
X155390102Y-82575802D01*
X155463065Y-82351247D01*
X155500000Y-82118052D01*
X155500000Y-81881947D01*
X155463065Y-81648752D01*
X155390102Y-81424197D01*
X155282914Y-81213828D01*
X155222658Y-81130894D01*
X155222658Y-81130893D01*
X154482962Y-81870590D01*
X154465925Y-81807007D01*
X154400099Y-81692993D01*
X154307007Y-81599901D01*
X154192993Y-81534075D01*
X154129409Y-81517037D01*
X154869105Y-80777340D01*
X154869104Y-80777338D01*
X154786174Y-80717087D01*
X154575802Y-80609897D01*
X154351247Y-80536934D01*
X154351248Y-80536934D01*
X154118052Y-80500000D01*
X153881948Y-80500000D01*
X153648752Y-80536934D01*
X153424197Y-80609897D01*
X153213830Y-80717084D01*
X153130894Y-80777340D01*
X153870591Y-81517037D01*
X153807007Y-81534075D01*
X153692993Y-81599901D01*
X153599901Y-81692993D01*
X153534075Y-81807007D01*
X153517037Y-81870591D01*
X152777340Y-81130894D01*
X152717084Y-81213830D01*
X152609897Y-81424197D01*
X152536934Y-81648752D01*
X152500000Y-81881947D01*
X145244079Y-81881947D01*
X145129995Y-81863878D01*
X145102352Y-81859500D01*
X144897648Y-81859500D01*
X144873329Y-81863351D01*
X144695465Y-81891522D01*
X144500776Y-81954781D01*
X144318386Y-82047715D01*
X144152786Y-82168028D01*
X144008028Y-82312786D01*
X143887715Y-82478386D01*
X143794781Y-82660776D01*
X143731522Y-82855465D01*
X143699500Y-83057648D01*
X141599017Y-83057648D01*
X140958418Y-82417049D01*
X140876010Y-82361987D01*
X140859936Y-82351247D01*
X140835495Y-82334916D01*
X140835492Y-82334914D01*
X140835491Y-82334914D01*
X140698917Y-82278343D01*
X140698907Y-82278340D01*
X140553920Y-82249500D01*
X140553918Y-82249500D01*
X140125418Y-82249500D01*
X140058379Y-82229815D01*
X140025100Y-82198385D01*
X139991971Y-82152787D01*
X139991967Y-82152782D01*
X139847213Y-82008028D01*
X139681613Y-81887715D01*
X139681612Y-81887714D01*
X139681610Y-81887713D01*
X139624653Y-81858691D01*
X139499223Y-81794781D01*
X139304534Y-81731522D01*
X139129995Y-81703878D01*
X139102352Y-81699500D01*
X138897648Y-81699500D01*
X138873329Y-81703351D01*
X138695465Y-81731522D01*
X138500776Y-81794781D01*
X138318386Y-81887715D01*
X138152786Y-82008028D01*
X138008028Y-82152786D01*
X137887715Y-82318386D01*
X137794781Y-82500776D01*
X137731522Y-82695465D01*
X137699500Y-82897648D01*
X137699500Y-83102351D01*
X137731522Y-83304534D01*
X137794781Y-83499223D01*
X137858691Y-83624653D01*
X137876306Y-83659223D01*
X137887715Y-83681613D01*
X138008028Y-83847213D01*
X138152786Y-83991971D01*
X138307749Y-84104556D01*
X138318390Y-84112287D01*
X138413182Y-84160586D01*
X138500776Y-84205218D01*
X138500778Y-84205218D01*
X138500781Y-84205220D01*
X138605137Y-84239127D01*
X138695465Y-84268477D01*
X138779564Y-84281797D01*
X138897648Y-84300500D01*
X138897649Y-84300500D01*
X139102351Y-84300500D01*
X139102352Y-84300500D01*
X139304534Y-84268477D01*
X139499219Y-84205220D01*
X139681610Y-84112287D01*
X139774590Y-84044732D01*
X139847213Y-83991971D01*
X139847215Y-83991968D01*
X139847219Y-83991966D01*
X139991966Y-83847219D01*
X140021880Y-83806044D01*
X140077208Y-83763379D01*
X140146822Y-83757398D01*
X140208617Y-83790003D01*
X140209880Y-83791248D01*
X144745596Y-88326964D01*
X144779081Y-88388287D01*
X144774097Y-88457979D01*
X144732225Y-88513912D01*
X144666761Y-88538329D01*
X144598488Y-88523477D01*
X144592843Y-88520198D01*
X144479334Y-88450186D01*
X144312797Y-88395001D01*
X144312795Y-88395000D01*
X144210010Y-88384500D01*
X142869998Y-88384500D01*
X142869981Y-88384501D01*
X142767203Y-88395000D01*
X142767200Y-88395001D01*
X142600668Y-88450185D01*
X142600663Y-88450187D01*
X142451342Y-88542289D01*
X142327289Y-88666342D01*
X142235179Y-88815677D01*
X142234861Y-88816360D01*
X142234518Y-88816748D01*
X142231395Y-88821813D01*
X142230529Y-88821278D01*
X142188683Y-88868794D01*
X142121487Y-88887939D01*
X142054608Y-88867716D01*
X142034804Y-88851624D01*
X141892823Y-88709643D01*
X141892821Y-88709641D01*
X141718299Y-88582843D01*
X141526089Y-88484908D01*
X141320926Y-88418246D01*
X141320924Y-88418245D01*
X141320922Y-88418245D01*
X141107866Y-88384500D01*
X141107861Y-88384500D01*
X140892139Y-88384500D01*
X140892134Y-88384500D01*
X140679077Y-88418245D01*
X140473908Y-88484909D01*
X140281700Y-88582843D01*
X140210206Y-88634787D01*
X140107179Y-88709641D01*
X140107177Y-88709643D01*
X140107176Y-88709643D01*
X139954643Y-88862176D01*
X139954643Y-88862177D01*
X139954641Y-88862179D01*
X139926931Y-88900319D01*
X139830318Y-89033294D01*
X139774988Y-89075959D01*
X139705374Y-89081938D01*
X139643579Y-89049332D01*
X139629682Y-89033294D01*
X139607435Y-89002674D01*
X139505359Y-88862179D01*
X139352821Y-88709641D01*
X139178299Y-88582843D01*
X138986089Y-88484908D01*
X138780926Y-88418246D01*
X138780924Y-88418245D01*
X138780922Y-88418245D01*
X138567866Y-88384500D01*
X138567861Y-88384500D01*
X138352139Y-88384500D01*
X138352134Y-88384500D01*
X138139077Y-88418245D01*
X137933908Y-88484909D01*
X137741700Y-88582843D01*
X137670206Y-88634787D01*
X137567179Y-88709641D01*
X137567177Y-88709643D01*
X137567176Y-88709643D01*
X137414643Y-88862176D01*
X137414643Y-88862177D01*
X137414641Y-88862179D01*
X137386931Y-88900319D01*
X137287843Y-89036700D01*
X137224105Y-89161795D01*
X137176131Y-89212591D01*
X137113620Y-89229500D01*
X134989047Y-89229500D01*
X134922008Y-89209815D01*
X134876253Y-89157011D01*
X134866309Y-89087853D01*
X134895334Y-89024297D01*
X134901366Y-89017819D01*
X134936985Y-88982200D01*
X134991966Y-88927219D01*
X134991968Y-88927215D01*
X134991971Y-88927213D01*
X135072227Y-88816748D01*
X135112287Y-88761610D01*
X135205220Y-88579219D01*
X135268477Y-88384534D01*
X135300500Y-88182352D01*
X135300500Y-87977648D01*
X135293102Y-87930942D01*
X135268477Y-87775465D01*
X135224358Y-87639681D01*
X135205220Y-87580781D01*
X135205218Y-87580778D01*
X135205218Y-87580776D01*
X135148013Y-87468506D01*
X135112287Y-87398390D01*
X135079712Y-87353554D01*
X134991971Y-87232786D01*
X134847213Y-87088028D01*
X134681613Y-86967715D01*
X134681612Y-86967714D01*
X134681610Y-86967713D01*
X134624653Y-86938691D01*
X134499223Y-86874781D01*
X134304534Y-86811522D01*
X134129995Y-86783878D01*
X134102352Y-86779500D01*
X133897648Y-86779500D01*
X133873329Y-86783351D01*
X133695465Y-86811522D01*
X133500776Y-86874781D01*
X133318386Y-86967715D01*
X133152786Y-87088028D01*
X133008028Y-87232786D01*
X132887715Y-87398386D01*
X132794781Y-87580776D01*
X132731522Y-87775465D01*
X132699500Y-87977648D01*
X132699500Y-88182351D01*
X132731522Y-88384534D01*
X132794781Y-88579223D01*
X132823093Y-88634787D01*
X132879196Y-88744895D01*
X132887715Y-88761613D01*
X133008028Y-88927213D01*
X133098634Y-89017819D01*
X133132119Y-89079142D01*
X133127135Y-89148834D01*
X133085263Y-89204767D01*
X133019799Y-89229184D01*
X133010953Y-89229500D01*
X132262230Y-89229500D01*
X132195191Y-89209815D01*
X132174549Y-89193181D01*
X131326473Y-88345105D01*
X131292988Y-88283782D01*
X131291681Y-88238027D01*
X131300500Y-88182352D01*
X131300500Y-87977648D01*
X131293102Y-87930942D01*
X131268477Y-87775465D01*
X131224358Y-87639681D01*
X131205220Y-87580781D01*
X131205218Y-87580778D01*
X131205218Y-87580776D01*
X131148013Y-87468506D01*
X131112287Y-87398390D01*
X131079712Y-87353554D01*
X130991971Y-87232786D01*
X130847213Y-87088028D01*
X130681613Y-86967715D01*
X130681612Y-86967714D01*
X130681610Y-86967713D01*
X130624653Y-86938691D01*
X130499223Y-86874781D01*
X130304534Y-86811522D01*
X130129995Y-86783878D01*
X130102352Y-86779500D01*
X129897648Y-86779500D01*
X129841971Y-86788318D01*
X129772678Y-86779363D01*
X129734893Y-86753526D01*
X128786819Y-85805451D01*
X128753334Y-85744128D01*
X128750500Y-85717770D01*
X128750500Y-78794386D01*
X128770185Y-78727347D01*
X128822989Y-78681592D01*
X128892147Y-78671648D01*
X128955703Y-78700673D01*
X128974819Y-78721502D01*
X129008030Y-78767215D01*
X129152786Y-78911971D01*
X129262892Y-78991966D01*
X129318390Y-79032287D01*
X129412866Y-79080425D01*
X129500776Y-79125218D01*
X129500778Y-79125218D01*
X129500781Y-79125220D01*
X129590569Y-79154394D01*
X129695465Y-79188477D01*
X129792103Y-79203783D01*
X129897648Y-79220500D01*
X129897649Y-79220500D01*
X130102351Y-79220500D01*
X130102352Y-79220500D01*
X130304534Y-79188477D01*
X130499219Y-79125220D01*
X130681610Y-79032287D01*
X130798532Y-78947339D01*
X130847213Y-78911971D01*
X130847215Y-78911968D01*
X130847219Y-78911966D01*
X130991966Y-78767219D01*
X130994650Y-78763524D01*
X131025100Y-78721615D01*
X131080429Y-78678949D01*
X131125418Y-78670500D01*
X132874582Y-78670500D01*
X132941621Y-78690185D01*
X132974900Y-78721615D01*
X133008028Y-78767212D01*
X133008032Y-78767217D01*
X133152786Y-78911971D01*
X133262892Y-78991966D01*
X133318390Y-79032287D01*
X133412866Y-79080425D01*
X133500776Y-79125218D01*
X133500778Y-79125218D01*
X133500781Y-79125220D01*
X133590569Y-79154394D01*
X133695465Y-79188477D01*
X133792103Y-79203783D01*
X133897648Y-79220500D01*
X133897649Y-79220500D01*
X134102351Y-79220500D01*
X134102352Y-79220500D01*
X134304534Y-79188477D01*
X134499219Y-79125220D01*
X134681610Y-79032287D01*
X134798532Y-78947339D01*
X134847213Y-78911971D01*
X134847215Y-78911968D01*
X134847219Y-78911966D01*
X134991966Y-78767219D01*
X134991968Y-78767215D01*
X134991971Y-78767213D01*
X135062236Y-78670500D01*
X135112287Y-78601610D01*
X135205220Y-78419219D01*
X135268477Y-78224534D01*
X135300500Y-78022352D01*
X135300500Y-77817648D01*
X135297105Y-77796216D01*
X135268477Y-77615465D01*
X135239127Y-77525137D01*
X135205220Y-77420781D01*
X135205218Y-77420778D01*
X135205218Y-77420776D01*
X135171503Y-77354607D01*
X135112287Y-77238390D01*
X135062236Y-77169500D01*
X134991971Y-77072786D01*
X134847217Y-76928032D01*
X134847212Y-76928028D01*
X134801615Y-76894900D01*
X134758949Y-76839571D01*
X134750500Y-76794582D01*
X134750500Y-76442228D01*
X134770185Y-76375189D01*
X134786814Y-76354551D01*
X135734894Y-75406471D01*
X135796215Y-75372988D01*
X135841970Y-75371681D01*
X135897648Y-75380500D01*
X135897649Y-75380500D01*
X136102350Y-75380500D01*
X136102352Y-75380500D01*
X136158027Y-75371681D01*
X136227319Y-75380635D01*
X136265106Y-75406473D01*
X137934569Y-77075937D01*
X137968054Y-77137260D01*
X137963070Y-77206952D01*
X137947206Y-77236503D01*
X137887715Y-77318386D01*
X137794781Y-77500776D01*
X137731522Y-77695465D01*
X137699500Y-77897648D01*
X137699500Y-78102351D01*
X137731522Y-78304534D01*
X137794781Y-78499223D01*
X137846951Y-78601610D01*
X137886357Y-78678949D01*
X137887715Y-78681613D01*
X138008028Y-78847213D01*
X138152786Y-78991971D01*
X138307749Y-79104556D01*
X138318390Y-79112287D01*
X138401030Y-79154394D01*
X138500776Y-79205218D01*
X138500778Y-79205218D01*
X138500781Y-79205220D01*
X138605137Y-79239127D01*
X138695465Y-79268477D01*
X138779564Y-79281797D01*
X138897648Y-79300500D01*
X138897649Y-79300500D01*
X139102351Y-79300500D01*
X139102352Y-79300500D01*
X139304534Y-79268477D01*
X139499219Y-79205220D01*
X139681610Y-79112287D01*
X139777901Y-79042328D01*
X139847213Y-78991971D01*
X139847215Y-78991968D01*
X139847219Y-78991966D01*
X139991966Y-78847219D01*
X139991968Y-78847215D01*
X139991971Y-78847213D01*
X140079057Y-78727347D01*
X140112287Y-78681610D01*
X140205220Y-78499219D01*
X140268477Y-78304534D01*
X140300500Y-78102352D01*
X140300500Y-77897648D01*
X140298926Y-77887713D01*
X140268477Y-77695465D01*
X140205218Y-77500776D01*
X140164455Y-77420776D01*
X140112287Y-77318390D01*
X140062236Y-77249500D01*
X139991971Y-77152786D01*
X139847219Y-77008034D01*
X139847211Y-77008028D01*
X139773878Y-76954749D01*
X139731213Y-76899420D01*
X139730744Y-76898197D01*
X139727139Y-76888642D01*
X139721659Y-76861088D01*
X139666645Y-76728274D01*
X139665956Y-76726448D01*
X139665918Y-76725953D01*
X139665764Y-76725522D01*
X139582954Y-76601588D01*
X139582953Y-76601587D01*
X139582951Y-76601584D01*
X139478416Y-76497049D01*
X138933502Y-75952135D01*
X152499500Y-75952135D01*
X152499500Y-78047870D01*
X152499501Y-78047876D01*
X152505908Y-78107483D01*
X152556202Y-78242328D01*
X152556206Y-78242335D01*
X152642452Y-78357544D01*
X152642455Y-78357547D01*
X152757664Y-78443793D01*
X152757671Y-78443797D01*
X152892517Y-78494091D01*
X152892516Y-78494091D01*
X152899444Y-78494835D01*
X152952127Y-78500500D01*
X155047872Y-78500499D01*
X155107483Y-78494091D01*
X155242331Y-78443796D01*
X155357546Y-78357546D01*
X155443796Y-78242331D01*
X155494091Y-78107483D01*
X155500500Y-78047873D01*
X155500499Y-75952128D01*
X155494091Y-75892517D01*
X155482370Y-75861092D01*
X155443797Y-75757671D01*
X155443793Y-75757664D01*
X155357547Y-75642455D01*
X155357544Y-75642452D01*
X155242335Y-75556206D01*
X155242328Y-75556202D01*
X155107482Y-75505908D01*
X155107483Y-75505908D01*
X155047883Y-75499501D01*
X155047881Y-75499500D01*
X155047873Y-75499500D01*
X155047864Y-75499500D01*
X152952129Y-75499500D01*
X152952123Y-75499501D01*
X152892516Y-75505908D01*
X152757671Y-75556202D01*
X152757664Y-75556206D01*
X152642455Y-75642452D01*
X152642452Y-75642455D01*
X152556206Y-75757664D01*
X152556202Y-75757671D01*
X152505908Y-75892517D01*
X152504029Y-75909999D01*
X152499501Y-75952123D01*
X152499500Y-75952135D01*
X138933502Y-75952135D01*
X137326472Y-74345105D01*
X137292988Y-74283783D01*
X137291681Y-74238028D01*
X137300500Y-74182352D01*
X137300500Y-73977648D01*
X137286410Y-73888690D01*
X137268477Y-73775465D01*
X137237981Y-73681610D01*
X137205220Y-73580781D01*
X137205218Y-73580778D01*
X137205218Y-73580776D01*
X137139426Y-73451654D01*
X137112287Y-73398390D01*
X137083222Y-73358385D01*
X136991971Y-73232786D01*
X136847213Y-73088028D01*
X136681613Y-72967715D01*
X136681612Y-72967714D01*
X136681610Y-72967713D01*
X136622832Y-72937764D01*
X136499223Y-72874781D01*
X136304534Y-72811522D01*
X136129995Y-72783878D01*
X136102352Y-72779500D01*
X135897648Y-72779500D01*
X135873329Y-72783351D01*
X135695465Y-72811522D01*
X135500776Y-72874781D01*
X135318386Y-72967715D01*
X135152786Y-73088028D01*
X135008028Y-73232786D01*
X134887715Y-73398386D01*
X134794781Y-73580776D01*
X134731522Y-73775465D01*
X134699500Y-73977648D01*
X134699500Y-74182351D01*
X134708318Y-74238026D01*
X134699363Y-74307320D01*
X134673526Y-74345105D01*
X133417050Y-75601580D01*
X133417044Y-75601588D01*
X133367812Y-75675268D01*
X133367813Y-75675269D01*
X133334921Y-75724496D01*
X133334914Y-75724508D01*
X133278342Y-75861086D01*
X133278340Y-75861092D01*
X133249500Y-76006079D01*
X133249500Y-76794582D01*
X133229815Y-76861621D01*
X133198385Y-76894900D01*
X133152787Y-76928028D01*
X133152782Y-76928032D01*
X133008032Y-77072782D01*
X133008028Y-77072787D01*
X132974900Y-77118385D01*
X132919571Y-77161051D01*
X132874582Y-77169500D01*
X131125418Y-77169500D01*
X131058379Y-77149815D01*
X131025100Y-77118385D01*
X130991971Y-77072787D01*
X130991967Y-77072782D01*
X130847213Y-76928028D01*
X130681613Y-76807715D01*
X130681612Y-76807714D01*
X130681610Y-76807713D01*
X130624653Y-76778691D01*
X130499223Y-76714781D01*
X130304534Y-76651522D01*
X130129995Y-76623878D01*
X130102352Y-76619500D01*
X129897648Y-76619500D01*
X129873329Y-76623351D01*
X129695465Y-76651522D01*
X129500776Y-76714781D01*
X129318386Y-76807715D01*
X129152786Y-76928028D01*
X129008028Y-77072786D01*
X128887712Y-77238389D01*
X128887711Y-77238391D01*
X128849089Y-77314191D01*
X128801115Y-77364987D01*
X128733294Y-77381782D01*
X128667159Y-77359244D01*
X128635503Y-77326787D01*
X128582952Y-77248139D01*
X128533198Y-77198385D01*
X128478416Y-77143603D01*
X127831862Y-76497049D01*
X127155819Y-75821005D01*
X127122334Y-75759682D01*
X127119500Y-75733324D01*
X127119500Y-73211149D01*
X127139185Y-73144110D01*
X127191989Y-73098355D01*
X127261147Y-73088411D01*
X127314127Y-73109914D01*
X127314234Y-73109741D01*
X127315282Y-73110383D01*
X127316385Y-73110831D01*
X127318151Y-73112113D01*
X127318390Y-73112287D01*
X127428865Y-73168577D01*
X127500776Y-73205218D01*
X127500778Y-73205218D01*
X127500781Y-73205220D01*
X127594395Y-73235637D01*
X127695465Y-73268477D01*
X127779564Y-73281797D01*
X127897648Y-73300500D01*
X127897649Y-73300500D01*
X128102351Y-73300500D01*
X128102352Y-73300500D01*
X128304534Y-73268477D01*
X128499219Y-73205220D01*
X128681610Y-73112287D01*
X128774590Y-73044732D01*
X128847213Y-72991971D01*
X128847215Y-72991968D01*
X128847219Y-72991966D01*
X128991966Y-72847219D01*
X128991968Y-72847215D01*
X128991971Y-72847213D01*
X129044732Y-72774590D01*
X129112287Y-72681610D01*
X129205220Y-72499219D01*
X129268477Y-72304534D01*
X129300500Y-72102352D01*
X129300500Y-71897648D01*
X129299627Y-71892139D01*
X129268477Y-71695465D01*
X129205218Y-71500776D01*
X129148868Y-71390185D01*
X129112287Y-71318390D01*
X129104556Y-71307749D01*
X128991971Y-71152786D01*
X128847213Y-71008028D01*
X128681613Y-70887715D01*
X128681612Y-70887714D01*
X128681610Y-70887713D01*
X128613386Y-70852951D01*
X128499223Y-70794781D01*
X128304534Y-70731522D01*
X128129995Y-70703878D01*
X128102352Y-70699500D01*
X127897648Y-70699500D01*
X127890779Y-70700588D01*
X127695465Y-70731522D01*
X127500776Y-70794781D01*
X127318383Y-70887716D01*
X127316374Y-70889176D01*
X127315482Y-70889494D01*
X127314234Y-70890259D01*
X127314073Y-70889996D01*
X127250565Y-70912649D01*
X127182513Y-70896816D01*
X127133824Y-70846704D01*
X127119500Y-70788850D01*
X127119500Y-70295079D01*
X127090659Y-70150092D01*
X127090658Y-70150091D01*
X127090658Y-70150087D01*
X127044815Y-70039411D01*
X127034087Y-70013511D01*
X127034080Y-70013498D01*
X126951952Y-69890585D01*
X126908580Y-69847213D01*
X126847416Y-69786049D01*
X124326473Y-67265106D01*
X124292988Y-67203783D01*
X124291681Y-67158028D01*
X124300500Y-67102352D01*
X124300500Y-66897648D01*
X124295776Y-66867822D01*
X124304731Y-66798530D01*
X124349727Y-66745078D01*
X124416478Y-66724438D01*
X124483792Y-66743163D01*
X124505930Y-66760744D01*
X126879138Y-69133952D01*
X126879144Y-69133957D01*
X126919128Y-69160672D01*
X126932335Y-69169496D01*
X126932337Y-69169497D01*
X126932340Y-69169500D01*
X126932341Y-69169500D01*
X127002059Y-69216084D01*
X127002061Y-69216085D01*
X127002065Y-69216087D01*
X127120406Y-69265105D01*
X127138641Y-69272658D01*
X127138645Y-69272658D01*
X127138646Y-69272659D01*
X127283633Y-69301500D01*
X127283636Y-69301500D01*
X130203466Y-69301500D01*
X130301008Y-69282096D01*
X130348459Y-69272658D01*
X130485041Y-69216084D01*
X130554759Y-69169500D01*
X130607962Y-69133952D01*
X133492904Y-66249007D01*
X133499862Y-66245208D01*
X133504501Y-66238774D01*
X133530091Y-66228701D01*
X133554225Y-66215524D01*
X133563791Y-66215438D01*
X133569516Y-66213185D01*
X133604755Y-66215069D01*
X133608229Y-66215760D01*
X133608241Y-66215766D01*
X133608241Y-66215763D01*
X133622661Y-66218631D01*
X133637081Y-66221500D01*
X138609010Y-66221500D01*
X138609010Y-66223698D01*
X138667944Y-66234873D01*
X138718656Y-66282936D01*
X138735333Y-66350786D01*
X138712680Y-66416882D01*
X138699137Y-66432940D01*
X132443039Y-72689037D01*
X132381716Y-72722522D01*
X132335960Y-72723829D01*
X132218753Y-72705265D01*
X132182352Y-72699500D01*
X131977648Y-72699500D01*
X131953329Y-72703351D01*
X131775465Y-72731522D01*
X131580776Y-72794781D01*
X131398386Y-72887715D01*
X131232786Y-73008028D01*
X131088028Y-73152786D01*
X130967715Y-73318386D01*
X130874781Y-73500776D01*
X130811522Y-73695465D01*
X130779500Y-73897648D01*
X130779500Y-74102351D01*
X130811522Y-74304534D01*
X130874781Y-74499223D01*
X130915542Y-74579219D01*
X130958207Y-74662954D01*
X130967715Y-74681613D01*
X131088028Y-74847213D01*
X131232786Y-74991971D01*
X131342892Y-75071966D01*
X131398390Y-75112287D01*
X131514607Y-75171503D01*
X131580776Y-75205218D01*
X131580778Y-75205218D01*
X131580781Y-75205220D01*
X131685137Y-75239127D01*
X131775465Y-75268477D01*
X131876557Y-75284488D01*
X131977648Y-75300500D01*
X131977649Y-75300500D01*
X132182351Y-75300500D01*
X132182352Y-75300500D01*
X132384534Y-75268477D01*
X132579219Y-75205220D01*
X132761610Y-75112287D01*
X132858103Y-75042181D01*
X132927213Y-74991971D01*
X132927215Y-74991968D01*
X132927219Y-74991966D01*
X133071966Y-74847219D01*
X133071968Y-74847215D01*
X133071971Y-74847213D01*
X133146171Y-74745084D01*
X133192287Y-74681610D01*
X133285220Y-74499219D01*
X133348477Y-74304534D01*
X133380500Y-74102352D01*
X133380500Y-73925675D01*
X133400185Y-73858636D01*
X133416819Y-73837994D01*
X142121271Y-65133542D01*
X142182594Y-65100057D01*
X142208952Y-65097223D01*
X143791047Y-65097223D01*
X143858086Y-65116908D01*
X143878728Y-65133542D01*
X146239255Y-67494069D01*
X146272740Y-67555392D01*
X146267756Y-67625084D01*
X146225884Y-67681017D01*
X146160420Y-67705434D01*
X146132179Y-67704224D01*
X146124779Y-67703052D01*
X146102352Y-67699500D01*
X145897648Y-67699500D01*
X145887597Y-67701092D01*
X145695465Y-67731522D01*
X145500776Y-67794781D01*
X145318386Y-67887715D01*
X145152786Y-68008028D01*
X145008028Y-68152786D01*
X144887715Y-68318386D01*
X144794781Y-68500776D01*
X144731522Y-68695465D01*
X144704224Y-68867823D01*
X144699500Y-68897648D01*
X144699500Y-69102352D01*
X144704505Y-69133952D01*
X144708318Y-69158026D01*
X144699363Y-69227320D01*
X144673526Y-69265105D01*
X144417047Y-69521584D01*
X144417043Y-69521589D01*
X144396009Y-69553071D01*
X144396009Y-69553072D01*
X144334913Y-69644508D01*
X144278343Y-69781082D01*
X144278340Y-69781092D01*
X144249500Y-69926079D01*
X144249500Y-71874582D01*
X144229815Y-71941621D01*
X144198385Y-71974900D01*
X144152787Y-72008028D01*
X144152782Y-72008032D01*
X144008028Y-72152786D01*
X143887715Y-72318386D01*
X143794781Y-72500776D01*
X143731522Y-72695465D01*
X143699500Y-72897648D01*
X143699500Y-73102351D01*
X143708318Y-73158026D01*
X143707616Y-73163450D01*
X143709529Y-73168577D01*
X143703186Y-73197731D01*
X143699363Y-73227320D01*
X143695530Y-73232924D01*
X143694677Y-73236850D01*
X143673529Y-73265101D01*
X143565449Y-73373182D01*
X143504129Y-73406666D01*
X143477770Y-73409500D01*
X141125418Y-73409500D01*
X141058379Y-73389815D01*
X141025100Y-73358385D01*
X140991971Y-73312787D01*
X140991967Y-73312782D01*
X140847213Y-73168028D01*
X140681613Y-73047715D01*
X140681612Y-73047714D01*
X140681610Y-73047713D01*
X140603724Y-73008028D01*
X140499223Y-72954781D01*
X140304534Y-72891522D01*
X140129995Y-72863878D01*
X140102352Y-72859500D01*
X139897648Y-72859500D01*
X139873329Y-72863351D01*
X139695465Y-72891522D01*
X139500776Y-72954781D01*
X139318386Y-73047715D01*
X139152786Y-73168028D01*
X139008028Y-73312786D01*
X138887715Y-73478386D01*
X138794781Y-73660776D01*
X138731522Y-73855465D01*
X138699500Y-74057648D01*
X138699500Y-74262351D01*
X138731522Y-74464534D01*
X138794781Y-74659223D01*
X138837443Y-74742950D01*
X138882213Y-74830816D01*
X138887715Y-74841613D01*
X139008028Y-75007213D01*
X139152786Y-75151971D01*
X139307749Y-75264556D01*
X139318390Y-75272287D01*
X139434607Y-75331503D01*
X139500776Y-75365218D01*
X139500778Y-75365218D01*
X139500781Y-75365220D01*
X139594081Y-75395535D01*
X139695465Y-75428477D01*
X139796557Y-75444488D01*
X139897648Y-75460500D01*
X139897649Y-75460500D01*
X140102351Y-75460500D01*
X140102352Y-75460500D01*
X140304534Y-75428477D01*
X140499219Y-75365220D01*
X140681610Y-75272287D01*
X140774590Y-75204732D01*
X140847213Y-75151971D01*
X140847215Y-75151968D01*
X140847219Y-75151966D01*
X140991966Y-75007219D01*
X140994650Y-75003524D01*
X141025100Y-74961615D01*
X141080429Y-74918949D01*
X141125418Y-74910500D01*
X143913920Y-74910500D01*
X144011462Y-74891096D01*
X144058913Y-74881658D01*
X144195495Y-74825084D01*
X144244729Y-74792186D01*
X144318416Y-74742952D01*
X144734895Y-74326471D01*
X144796216Y-74292988D01*
X144841971Y-74291681D01*
X144897648Y-74300500D01*
X144897649Y-74300500D01*
X145102351Y-74300500D01*
X145102352Y-74300500D01*
X145304534Y-74268477D01*
X145499219Y-74205220D01*
X145681610Y-74112287D01*
X145774590Y-74044732D01*
X145847213Y-73991971D01*
X145847215Y-73991968D01*
X145847219Y-73991966D01*
X145991966Y-73847219D01*
X145991968Y-73847215D01*
X145991971Y-73847213D01*
X146044732Y-73774590D01*
X146112287Y-73681610D01*
X146205220Y-73499219D01*
X146268477Y-73304534D01*
X146300500Y-73102352D01*
X146300500Y-72897648D01*
X146272762Y-72722522D01*
X146268477Y-72695465D01*
X146224420Y-72559873D01*
X146205220Y-72500781D01*
X146205218Y-72500778D01*
X146205218Y-72500776D01*
X146143380Y-72379414D01*
X146112287Y-72318390D01*
X146102220Y-72304534D01*
X145991971Y-72152786D01*
X145847217Y-72008032D01*
X145847212Y-72008028D01*
X145801615Y-71974900D01*
X145758949Y-71919571D01*
X145750500Y-71874582D01*
X145750500Y-70422379D01*
X145770185Y-70355340D01*
X145822989Y-70309585D01*
X145892147Y-70299641D01*
X145893873Y-70299902D01*
X145897648Y-70300500D01*
X145897649Y-70300500D01*
X146102351Y-70300500D01*
X146102352Y-70300500D01*
X146304534Y-70268477D01*
X146499219Y-70205220D01*
X146681610Y-70112287D01*
X146817583Y-70013498D01*
X146847213Y-69991971D01*
X146847219Y-69991966D01*
X146913106Y-69926079D01*
X146991966Y-69847219D01*
X146991968Y-69847215D01*
X146991971Y-69847213D01*
X147044732Y-69774590D01*
X147112287Y-69681610D01*
X147205220Y-69499219D01*
X147268477Y-69304534D01*
X147300500Y-69102352D01*
X147300500Y-68897648D01*
X147295775Y-68867819D01*
X147304729Y-68798530D01*
X147349724Y-68745077D01*
X147416475Y-68724436D01*
X147483789Y-68743160D01*
X147505929Y-68760742D01*
X149493603Y-70748416D01*
X149598138Y-70852951D01*
X149598141Y-70852953D01*
X149598142Y-70852954D01*
X149721048Y-70935077D01*
X149721052Y-70935079D01*
X149721059Y-70935084D01*
X149761780Y-70951951D01*
X149857642Y-70991659D01*
X149973795Y-71014763D01*
X149998489Y-71019675D01*
X150002635Y-71020500D01*
X150002636Y-71020500D01*
X150002637Y-71020500D01*
X150150472Y-71020500D01*
X151872796Y-71020500D01*
X151939835Y-71040185D01*
X151960477Y-71056819D01*
X152013072Y-71109414D01*
X152153212Y-71211232D01*
X152307555Y-71289873D01*
X152472299Y-71343402D01*
X152643389Y-71370500D01*
X152643390Y-71370500D01*
X152775500Y-71370500D01*
X152842539Y-71390185D01*
X152888294Y-71442989D01*
X152899500Y-71494500D01*
X152899500Y-71626611D01*
X152926598Y-71797701D01*
X152980127Y-71962445D01*
X153058768Y-72116788D01*
X153160586Y-72256928D01*
X153283072Y-72379414D01*
X153423212Y-72481232D01*
X153577555Y-72559873D01*
X153742299Y-72613402D01*
X153913389Y-72640500D01*
X153913390Y-72640500D01*
X154086610Y-72640500D01*
X154086611Y-72640500D01*
X154257701Y-72613402D01*
X154422445Y-72559873D01*
X154576788Y-72481232D01*
X154716928Y-72379414D01*
X154839414Y-72256928D01*
X154941232Y-72116788D01*
X155019873Y-71962445D01*
X155073402Y-71797701D01*
X155100500Y-71626611D01*
X155100500Y-71453389D01*
X155073402Y-71282299D01*
X155019873Y-71117555D01*
X154941232Y-70963212D01*
X154839414Y-70823072D01*
X154716928Y-70700586D01*
X154576788Y-70598768D01*
X154422445Y-70520127D01*
X154323353Y-70487929D01*
X154265679Y-70448494D01*
X154238481Y-70384135D01*
X154250396Y-70315289D01*
X154297640Y-70263813D01*
X154323350Y-70252070D01*
X154422445Y-70219873D01*
X154576788Y-70141232D01*
X154716928Y-70039414D01*
X154839414Y-69916928D01*
X154941232Y-69776788D01*
X155019873Y-69622445D01*
X155073402Y-69457701D01*
X155100500Y-69286611D01*
X155100500Y-68713389D01*
X155073402Y-68542299D01*
X155019873Y-68377555D01*
X154941232Y-68223212D01*
X154839414Y-68083072D01*
X154716928Y-67960586D01*
X154576788Y-67858768D01*
X154422445Y-67780127D01*
X154257701Y-67726598D01*
X154257699Y-67726597D01*
X154257698Y-67726597D01*
X154096662Y-67701092D01*
X154086611Y-67699500D01*
X153913389Y-67699500D01*
X153903338Y-67701092D01*
X153742302Y-67726597D01*
X153577552Y-67780128D01*
X153423211Y-67858768D01*
X153367141Y-67899506D01*
X153283072Y-67960586D01*
X153283070Y-67960588D01*
X153283069Y-67960588D01*
X153160588Y-68083069D01*
X153160588Y-68083070D01*
X153160586Y-68083072D01*
X153139362Y-68112284D01*
X153058768Y-68223211D01*
X152980128Y-68377552D01*
X152926597Y-68542302D01*
X152899500Y-68713389D01*
X152899500Y-69045500D01*
X152879815Y-69112539D01*
X152827011Y-69158294D01*
X152775500Y-69169500D01*
X152643389Y-69169500D01*
X152603728Y-69175781D01*
X152472302Y-69196597D01*
X152307552Y-69250128D01*
X152153211Y-69328768D01*
X152073256Y-69386859D01*
X152013072Y-69430586D01*
X152013070Y-69430588D01*
X152013069Y-69430588D01*
X151960477Y-69483181D01*
X151899154Y-69516666D01*
X151872796Y-69519500D01*
X150438783Y-69519500D01*
X150371744Y-69499815D01*
X150351102Y-69483181D01*
X146320714Y-65452793D01*
X146287229Y-65391470D01*
X146292213Y-65321778D01*
X146334085Y-65265845D01*
X146370076Y-65247181D01*
X146372255Y-65246473D01*
X146499219Y-65205220D01*
X146681610Y-65112287D01*
X146774590Y-65044732D01*
X146847213Y-64991971D01*
X146847215Y-64991968D01*
X146847219Y-64991966D01*
X146991966Y-64847219D01*
X146991968Y-64847215D01*
X146991971Y-64847213D01*
X147050094Y-64767212D01*
X147112287Y-64681610D01*
X147205220Y-64499219D01*
X147227018Y-64432133D01*
X153404500Y-64432133D01*
X153404500Y-64647866D01*
X153423404Y-64767219D01*
X153438246Y-64860926D01*
X153504908Y-65066089D01*
X153602843Y-65258299D01*
X153729641Y-65432821D01*
X153882179Y-65585359D01*
X154056701Y-65712157D01*
X154248911Y-65810092D01*
X154454074Y-65876754D01*
X154525969Y-65888141D01*
X154667134Y-65910500D01*
X154667139Y-65910500D01*
X155332866Y-65910500D01*
X155451230Y-65891752D01*
X155545926Y-65876754D01*
X155751089Y-65810092D01*
X155943299Y-65712157D01*
X156117821Y-65585359D01*
X156270359Y-65432821D01*
X156397157Y-65258299D01*
X156495092Y-65066089D01*
X156561754Y-64860926D01*
X156585045Y-64713872D01*
X156595500Y-64647866D01*
X156595500Y-64432133D01*
X156573002Y-64290095D01*
X156561754Y-64219074D01*
X156495092Y-64013911D01*
X156397157Y-63821701D01*
X156270359Y-63647179D01*
X156127996Y-63504816D01*
X156094511Y-63443493D01*
X156099495Y-63373801D01*
X156141367Y-63317868D01*
X156163289Y-63304745D01*
X156164127Y-63304354D01*
X156313345Y-63212315D01*
X156437315Y-63088345D01*
X156529356Y-62939124D01*
X156529358Y-62939119D01*
X156584505Y-62772697D01*
X156584506Y-62772690D01*
X156594999Y-62669986D01*
X156595000Y-62669973D01*
X156595000Y-62250000D01*
X155542709Y-62250000D01*
X155554452Y-62229661D01*
X155595000Y-62078333D01*
X155595000Y-61921667D01*
X155554452Y-61770339D01*
X155542709Y-61750000D01*
X156594999Y-61750000D01*
X156594999Y-61330028D01*
X156594998Y-61330013D01*
X156584505Y-61227302D01*
X156529358Y-61060880D01*
X156529356Y-61060875D01*
X156437315Y-60911654D01*
X156313345Y-60787684D01*
X156164124Y-60695643D01*
X156164119Y-60695641D01*
X155997697Y-60640494D01*
X155997690Y-60640493D01*
X155894986Y-60630000D01*
X155250000Y-60630000D01*
X155250000Y-61457290D01*
X155229661Y-61445548D01*
X155078333Y-61405000D01*
X154921667Y-61405000D01*
X154770339Y-61445548D01*
X154750000Y-61457290D01*
X154750000Y-60630000D01*
X154105028Y-60630000D01*
X154105012Y-60630001D01*
X154002302Y-60640494D01*
X153835880Y-60695641D01*
X153835875Y-60695643D01*
X153686654Y-60787684D01*
X153562684Y-60911654D01*
X153470643Y-61060875D01*
X153470641Y-61060880D01*
X153415494Y-61227302D01*
X153415493Y-61227309D01*
X153405000Y-61330013D01*
X153405000Y-61750000D01*
X154457291Y-61750000D01*
X154445548Y-61770339D01*
X154405000Y-61921667D01*
X154405000Y-62078333D01*
X154445548Y-62229661D01*
X154457291Y-62250000D01*
X153405001Y-62250000D01*
X153405001Y-62669986D01*
X153415494Y-62772697D01*
X153470641Y-62939119D01*
X153470643Y-62939124D01*
X153562684Y-63088345D01*
X153686654Y-63212315D01*
X153835876Y-63304356D01*
X153836716Y-63304748D01*
X153837195Y-63305170D01*
X153842025Y-63308149D01*
X153841516Y-63308973D01*
X153889160Y-63350915D01*
X153908318Y-63418107D01*
X153888109Y-63484990D01*
X153872004Y-63504816D01*
X153729640Y-63647180D01*
X153602843Y-63821700D01*
X153504909Y-64013908D01*
X153438245Y-64219077D01*
X153404500Y-64432133D01*
X147227018Y-64432133D01*
X147268477Y-64304534D01*
X147300500Y-64102352D01*
X147300500Y-63897648D01*
X147299627Y-63892139D01*
X147268477Y-63695465D01*
X147216490Y-63535466D01*
X147205220Y-63500781D01*
X147205218Y-63500778D01*
X147205218Y-63500776D01*
X147140520Y-63373801D01*
X147112287Y-63318390D01*
X147085631Y-63281701D01*
X146991971Y-63152786D01*
X146847213Y-63008028D01*
X146681613Y-62887715D01*
X146681612Y-62887714D01*
X146681610Y-62887713D01*
X146592033Y-62842071D01*
X146499223Y-62794781D01*
X146304534Y-62731522D01*
X146129995Y-62703878D01*
X146102352Y-62699500D01*
X145897648Y-62699500D01*
X145873329Y-62703351D01*
X145695465Y-62731522D01*
X145500776Y-62794781D01*
X145318386Y-62887715D01*
X145152786Y-63008028D01*
X145008028Y-63152786D01*
X144887715Y-63318386D01*
X144794781Y-63500776D01*
X144752819Y-63629924D01*
X144713381Y-63687599D01*
X144649022Y-63714797D01*
X144580176Y-63702882D01*
X144547207Y-63679286D01*
X142733975Y-61866052D01*
X142733968Y-61866046D01*
X142660283Y-61816812D01*
X142660283Y-61816813D01*
X142611045Y-61783913D01*
X142474471Y-61727343D01*
X142474461Y-61727340D01*
X142329474Y-61698500D01*
X142329472Y-61698500D01*
X137544917Y-61698500D01*
X137397082Y-61698500D01*
X137397080Y-61698500D01*
X137252092Y-61727340D01*
X137252082Y-61727343D01*
X137115511Y-61783912D01*
X137115498Y-61783919D01*
X136992584Y-61866048D01*
X136992580Y-61866051D01*
X136265105Y-62593526D01*
X136203782Y-62627011D01*
X136158026Y-62628318D01*
X136102352Y-62619500D01*
X135897648Y-62619500D01*
X135873329Y-62623351D01*
X135695465Y-62651522D01*
X135500776Y-62714781D01*
X135318386Y-62807715D01*
X135152786Y-62928028D01*
X135008028Y-63072786D01*
X134887715Y-63238386D01*
X134794781Y-63420776D01*
X134731522Y-63615465D01*
X134699500Y-63817648D01*
X134699500Y-64022351D01*
X134731522Y-64224534D01*
X134794781Y-64419223D01*
X134835542Y-64499219D01*
X134846952Y-64521613D01*
X134856426Y-64540205D01*
X134869322Y-64608874D01*
X134843046Y-64673614D01*
X134785940Y-64713872D01*
X134745941Y-64720500D01*
X134073230Y-64720500D01*
X134043793Y-64711856D01*
X134013804Y-64705333D01*
X134008787Y-64701577D01*
X134006191Y-64700815D01*
X133985550Y-64684182D01*
X133971868Y-64670500D01*
X133938689Y-64637321D01*
X133938686Y-64637319D01*
X133406473Y-64105106D01*
X133372988Y-64043783D01*
X133371681Y-63998028D01*
X133380500Y-63942352D01*
X133380500Y-63737648D01*
X133373819Y-63695465D01*
X133348477Y-63535465D01*
X133318593Y-63443493D01*
X133285220Y-63340781D01*
X133285218Y-63340778D01*
X133285218Y-63340776D01*
X133241471Y-63254919D01*
X133192287Y-63158390D01*
X133163222Y-63118385D01*
X133071971Y-62992786D01*
X132927213Y-62848028D01*
X132761613Y-62727715D01*
X132761612Y-62727714D01*
X132761610Y-62727713D01*
X132648315Y-62669986D01*
X132579223Y-62634781D01*
X132384534Y-62571522D01*
X132209995Y-62543878D01*
X132182352Y-62539500D01*
X131977648Y-62539500D01*
X131953329Y-62543351D01*
X131775465Y-62571522D01*
X131580776Y-62634781D01*
X131398386Y-62727715D01*
X131232786Y-62848028D01*
X131088028Y-62992786D01*
X130967715Y-63158386D01*
X130874781Y-63340776D01*
X130811522Y-63535465D01*
X130779500Y-63737648D01*
X130779500Y-63942351D01*
X130811522Y-64144534D01*
X130874781Y-64339223D01*
X130900118Y-64388948D01*
X130956306Y-64499223D01*
X130967715Y-64521613D01*
X131088028Y-64687213D01*
X131232786Y-64831971D01*
X131342892Y-64911966D01*
X131398390Y-64952287D01*
X131514607Y-65011503D01*
X131580776Y-65045218D01*
X131580778Y-65045218D01*
X131580781Y-65045220D01*
X131685137Y-65079127D01*
X131775465Y-65108477D01*
X131828696Y-65116908D01*
X131977648Y-65140500D01*
X131977649Y-65140500D01*
X132179316Y-65140500D01*
X132246355Y-65160185D01*
X132292110Y-65212989D01*
X132302054Y-65282147D01*
X132273029Y-65345703D01*
X132266997Y-65352181D01*
X129854997Y-67764181D01*
X129793674Y-67797666D01*
X129767316Y-67800500D01*
X129253499Y-67800500D01*
X129186460Y-67780815D01*
X129140705Y-67728011D01*
X129130761Y-67658853D01*
X129143014Y-67620205D01*
X129204755Y-67499031D01*
X129267990Y-67304417D01*
X129300000Y-67102317D01*
X129300000Y-66897682D01*
X129267990Y-66695582D01*
X129204755Y-66500968D01*
X129111859Y-66318650D01*
X129079474Y-66274077D01*
X129079474Y-66274076D01*
X128400000Y-66953551D01*
X128400000Y-66947339D01*
X128372741Y-66845606D01*
X128320080Y-66754394D01*
X128245606Y-66679920D01*
X128154394Y-66627259D01*
X128052661Y-66600000D01*
X128046446Y-66600000D01*
X128725922Y-65920524D01*
X128725921Y-65920523D01*
X128681359Y-65888147D01*
X128681350Y-65888141D01*
X128499031Y-65795244D01*
X128304417Y-65732009D01*
X128102317Y-65700000D01*
X127897683Y-65700000D01*
X127695582Y-65732009D01*
X127500968Y-65795244D01*
X127318644Y-65888143D01*
X127274077Y-65920523D01*
X127274077Y-65920524D01*
X127953554Y-66600000D01*
X127947339Y-66600000D01*
X127845606Y-66627259D01*
X127754394Y-66679920D01*
X127679920Y-66754394D01*
X127627259Y-66845606D01*
X127600000Y-66947339D01*
X127600000Y-66953553D01*
X126920524Y-66274077D01*
X126920523Y-66274077D01*
X126888143Y-66318644D01*
X126795244Y-66500968D01*
X126753216Y-66630319D01*
X126713778Y-66687994D01*
X126649419Y-66715192D01*
X126580573Y-66703277D01*
X126547604Y-66679681D01*
X123204975Y-63337052D01*
X123204968Y-63337046D01*
X123129062Y-63286328D01*
X123129061Y-63286328D01*
X123082055Y-63254919D01*
X123082042Y-63254912D01*
X122945471Y-63198343D01*
X122945461Y-63198340D01*
X122800474Y-63169500D01*
X122800472Y-63169500D01*
X119125418Y-63169500D01*
X119058379Y-63149815D01*
X119025100Y-63118385D01*
X118991971Y-63072787D01*
X118991967Y-63072782D01*
X118847213Y-62928028D01*
X118681613Y-62807715D01*
X118681612Y-62807714D01*
X118681610Y-62807713D01*
X118622832Y-62777764D01*
X118499223Y-62714781D01*
X118304534Y-62651522D01*
X118129995Y-62623878D01*
X118102352Y-62619500D01*
X117897648Y-62619500D01*
X117873329Y-62623351D01*
X117695465Y-62651522D01*
X117500776Y-62714781D01*
X117318386Y-62807715D01*
X117152786Y-62928028D01*
X117008032Y-63072782D01*
X117008028Y-63072787D01*
X116974900Y-63118385D01*
X116919571Y-63161051D01*
X116874582Y-63169500D01*
X115125418Y-63169500D01*
X115058379Y-63149815D01*
X115025100Y-63118385D01*
X114991971Y-63072787D01*
X114991967Y-63072782D01*
X114847213Y-62928028D01*
X114681613Y-62807715D01*
X114681612Y-62807714D01*
X114681610Y-62807713D01*
X114622832Y-62777764D01*
X114499223Y-62714781D01*
X114304534Y-62651522D01*
X114129995Y-62623878D01*
X114102352Y-62619500D01*
X113897648Y-62619500D01*
X113873329Y-62623351D01*
X113695465Y-62651522D01*
X113500776Y-62714781D01*
X113318386Y-62807715D01*
X113152786Y-62928028D01*
X113008028Y-63072786D01*
X112887715Y-63238386D01*
X112794781Y-63420776D01*
X112731522Y-63615465D01*
X112699500Y-63817648D01*
X112699500Y-64022351D01*
X112708318Y-64078026D01*
X112699363Y-64147320D01*
X112673526Y-64185105D01*
X109417050Y-67441580D01*
X109417044Y-67441588D01*
X109367812Y-67515268D01*
X109367813Y-67515269D01*
X109334921Y-67564496D01*
X109334914Y-67564508D01*
X109278342Y-67701086D01*
X109278340Y-67701092D01*
X109249500Y-67846079D01*
X109249500Y-72874582D01*
X109229815Y-72941621D01*
X109198385Y-72974900D01*
X109152787Y-73008028D01*
X109152782Y-73008032D01*
X109008028Y-73152786D01*
X108887715Y-73318386D01*
X108794781Y-73500776D01*
X108731522Y-73695465D01*
X108699500Y-73897648D01*
X107300500Y-73897648D01*
X107268477Y-73695466D01*
X107205220Y-73500781D01*
X107205218Y-73500778D01*
X107205218Y-73500776D01*
X107138838Y-73370500D01*
X107112287Y-73318390D01*
X107077197Y-73270092D01*
X106991971Y-73152786D01*
X106847217Y-73008032D01*
X106847212Y-73008028D01*
X106801615Y-72974900D01*
X106758949Y-72919571D01*
X106750500Y-72874582D01*
X106750500Y-70331079D01*
X106721659Y-70186092D01*
X106721658Y-70186091D01*
X106721658Y-70186087D01*
X106665084Y-70049505D01*
X106626638Y-69991966D01*
X106626638Y-69991965D01*
X106582950Y-69926581D01*
X100073421Y-63417052D01*
X100073414Y-63417046D01*
X99999729Y-63367812D01*
X99999729Y-63367813D01*
X99950491Y-63334913D01*
X99813917Y-63278343D01*
X99813907Y-63278340D01*
X99668920Y-63249500D01*
X99668918Y-63249500D01*
X99436943Y-63249500D01*
X99369904Y-63229815D01*
X99336625Y-63198386D01*
X99315638Y-63169500D01*
X99270359Y-63107179D01*
X99117821Y-62954641D01*
X98943299Y-62827843D01*
X98751089Y-62729908D01*
X98545926Y-62663246D01*
X98545924Y-62663245D01*
X98545922Y-62663245D01*
X98332866Y-62629500D01*
X98332861Y-62629500D01*
X97667139Y-62629500D01*
X97667134Y-62629500D01*
X97454077Y-62663245D01*
X97454074Y-62663246D01*
X97255667Y-62727713D01*
X97248908Y-62729909D01*
X97056700Y-62827843D01*
X96974297Y-62887713D01*
X96882179Y-62954641D01*
X96882177Y-62954643D01*
X96882176Y-62954643D01*
X96729643Y-63107176D01*
X96729643Y-63107177D01*
X96729641Y-63107179D01*
X96692437Y-63158386D01*
X96602843Y-63281700D01*
X96504909Y-63473908D01*
X96438245Y-63679077D01*
X96404500Y-63892133D01*
X92500500Y-63892133D01*
X92500500Y-56892133D01*
X96404500Y-56892133D01*
X96404500Y-57107866D01*
X96438112Y-57320080D01*
X96438246Y-57320926D01*
X96504908Y-57526089D01*
X96602843Y-57718299D01*
X96729641Y-57892821D01*
X96729643Y-57892823D01*
X96872003Y-58035183D01*
X96905488Y-58096506D01*
X96900504Y-58166198D01*
X96858632Y-58222131D01*
X96836728Y-58235245D01*
X96835885Y-58235637D01*
X96686654Y-58327684D01*
X96562684Y-58451654D01*
X96470643Y-58600875D01*
X96470641Y-58600880D01*
X96415494Y-58767302D01*
X96415493Y-58767309D01*
X96405000Y-58870013D01*
X96405000Y-59290000D01*
X97457291Y-59290000D01*
X97445548Y-59310339D01*
X97405000Y-59461667D01*
X97405000Y-59618333D01*
X97445548Y-59769661D01*
X97457291Y-59790000D01*
X96405001Y-59790000D01*
X96405001Y-60209986D01*
X96415494Y-60312697D01*
X96470641Y-60479119D01*
X96470643Y-60479124D01*
X96562684Y-60628345D01*
X96686654Y-60752315D01*
X96835875Y-60844356D01*
X96835880Y-60844358D01*
X97002302Y-60899505D01*
X97002309Y-60899506D01*
X97105019Y-60909999D01*
X97749999Y-60909999D01*
X97750000Y-60909998D01*
X97750000Y-60082709D01*
X97770339Y-60094452D01*
X97921667Y-60135000D01*
X98078333Y-60135000D01*
X98229661Y-60094452D01*
X98250000Y-60082709D01*
X98250000Y-60909999D01*
X98894972Y-60909999D01*
X98894986Y-60909998D01*
X98997697Y-60899505D01*
X99164119Y-60844358D01*
X99164124Y-60844356D01*
X99313345Y-60752315D01*
X99437315Y-60628345D01*
X99529356Y-60479124D01*
X99529358Y-60479119D01*
X99584505Y-60312697D01*
X99584506Y-60312690D01*
X99594999Y-60209986D01*
X99595000Y-60209973D01*
X99595000Y-59790000D01*
X98542709Y-59790000D01*
X98554452Y-59769661D01*
X98595000Y-59618333D01*
X98595000Y-59461667D01*
X98554452Y-59310339D01*
X98542709Y-59290000D01*
X99594999Y-59290000D01*
X99594999Y-58870028D01*
X99594998Y-58870013D01*
X99587907Y-58800597D01*
X99600677Y-58731904D01*
X99648557Y-58681020D01*
X99716347Y-58664099D01*
X99782524Y-58686515D01*
X99798946Y-58700314D01*
X104673526Y-63574894D01*
X104707011Y-63636217D01*
X104708318Y-63681972D01*
X104699500Y-63737647D01*
X104699500Y-63942351D01*
X104731522Y-64144534D01*
X104794781Y-64339223D01*
X104820118Y-64388948D01*
X104876306Y-64499223D01*
X104887715Y-64521613D01*
X105008028Y-64687213D01*
X105152786Y-64831971D01*
X105262892Y-64911966D01*
X105318390Y-64952287D01*
X105434607Y-65011503D01*
X105500776Y-65045218D01*
X105500778Y-65045218D01*
X105500781Y-65045220D01*
X105605137Y-65079127D01*
X105695465Y-65108477D01*
X105748696Y-65116908D01*
X105897648Y-65140500D01*
X105897649Y-65140500D01*
X106102351Y-65140500D01*
X106102352Y-65140500D01*
X106304534Y-65108477D01*
X106499219Y-65045220D01*
X106681610Y-64952287D01*
X106807359Y-64860926D01*
X106847213Y-64831971D01*
X106847215Y-64831968D01*
X106847219Y-64831966D01*
X106991966Y-64687219D01*
X106996041Y-64681610D01*
X107025100Y-64641615D01*
X107080429Y-64598949D01*
X107125418Y-64590500D01*
X108874582Y-64590500D01*
X108941621Y-64610185D01*
X108974900Y-64641615D01*
X109008028Y-64687212D01*
X109008032Y-64687217D01*
X109152786Y-64831971D01*
X109262892Y-64911966D01*
X109318390Y-64952287D01*
X109434607Y-65011503D01*
X109500776Y-65045218D01*
X109500778Y-65045218D01*
X109500781Y-65045220D01*
X109605137Y-65079127D01*
X109695465Y-65108477D01*
X109748696Y-65116908D01*
X109897648Y-65140500D01*
X109897649Y-65140500D01*
X110102351Y-65140500D01*
X110102352Y-65140500D01*
X110304534Y-65108477D01*
X110499219Y-65045220D01*
X110681610Y-64952287D01*
X110807359Y-64860926D01*
X110847213Y-64831971D01*
X110847215Y-64831968D01*
X110847219Y-64831966D01*
X110991966Y-64687219D01*
X110991968Y-64687215D01*
X110991971Y-64687213D01*
X111047934Y-64610185D01*
X111112287Y-64521610D01*
X111205220Y-64339219D01*
X111268477Y-64144534D01*
X111300500Y-63942352D01*
X111300500Y-63737648D01*
X111293819Y-63695465D01*
X111268477Y-63535465D01*
X111238593Y-63443493D01*
X111205220Y-63340781D01*
X111205218Y-63340778D01*
X111205218Y-63340776D01*
X111161471Y-63254919D01*
X111112287Y-63158390D01*
X111083222Y-63118385D01*
X110991971Y-62992786D01*
X110972271Y-62973086D01*
X110938786Y-62911763D01*
X110943770Y-62842071D01*
X110972267Y-62797729D01*
X114991214Y-58778781D01*
X115052535Y-58745298D01*
X115122227Y-58750282D01*
X115178160Y-58792154D01*
X115202577Y-58857618D01*
X115201367Y-58885856D01*
X115199500Y-58897647D01*
X115199500Y-59102351D01*
X115231522Y-59304534D01*
X115294781Y-59499223D01*
X115337443Y-59582950D01*
X115387585Y-59681359D01*
X115387715Y-59681613D01*
X115508028Y-59847213D01*
X115652786Y-59991971D01*
X115773226Y-60079474D01*
X115818390Y-60112287D01*
X115907212Y-60157544D01*
X116000776Y-60205218D01*
X116000778Y-60205218D01*
X116000781Y-60205220D01*
X116105137Y-60239127D01*
X116195465Y-60268477D01*
X116296557Y-60284488D01*
X116397648Y-60300500D01*
X116397649Y-60300500D01*
X116602351Y-60300500D01*
X116602352Y-60300500D01*
X116804534Y-60268477D01*
X116999219Y-60205220D01*
X117181610Y-60112287D01*
X117277901Y-60042328D01*
X117347213Y-59991971D01*
X117347215Y-59991968D01*
X117347219Y-59991966D01*
X117491966Y-59847219D01*
X117494650Y-59843524D01*
X117525100Y-59801615D01*
X117580429Y-59758949D01*
X117625418Y-59750500D01*
X122073920Y-59750500D01*
X122172296Y-59730931D01*
X122218913Y-59721658D01*
X122355495Y-59665084D01*
X122404729Y-59632186D01*
X122478416Y-59582952D01*
X123924548Y-58136818D01*
X123985871Y-58103334D01*
X124012229Y-58100500D01*
X124086610Y-58100500D01*
X124086611Y-58100500D01*
X124257701Y-58073402D01*
X124422445Y-58019873D01*
X124576788Y-57941232D01*
X124716928Y-57839414D01*
X124839414Y-57716928D01*
X124941232Y-57576788D01*
X125019873Y-57422445D01*
X125073402Y-57257701D01*
X125100500Y-57086611D01*
X125100500Y-56913389D01*
X125098012Y-56897682D01*
X140700000Y-56897682D01*
X140700000Y-57102317D01*
X140732009Y-57304417D01*
X140795244Y-57499031D01*
X140888141Y-57681350D01*
X140888147Y-57681359D01*
X140920523Y-57725921D01*
X140920524Y-57725922D01*
X141600000Y-57046446D01*
X141600000Y-57052661D01*
X141627259Y-57154394D01*
X141679920Y-57245606D01*
X141754394Y-57320080D01*
X141845606Y-57372741D01*
X141947339Y-57400000D01*
X141953553Y-57400000D01*
X141274076Y-58079474D01*
X141318650Y-58111859D01*
X141500968Y-58204755D01*
X141695582Y-58267990D01*
X141897683Y-58300000D01*
X142102317Y-58300000D01*
X142304417Y-58267990D01*
X142499031Y-58204755D01*
X142681349Y-58111859D01*
X142725921Y-58079474D01*
X142046447Y-57400000D01*
X142052661Y-57400000D01*
X142154394Y-57372741D01*
X142245606Y-57320080D01*
X142320080Y-57245606D01*
X142372741Y-57154394D01*
X142400000Y-57052661D01*
X142400000Y-57046448D01*
X143079474Y-57725922D01*
X143079474Y-57725921D01*
X143111859Y-57681349D01*
X143204755Y-57499031D01*
X143267990Y-57304417D01*
X143300000Y-57102317D01*
X143300000Y-56897682D01*
X143299995Y-56897648D01*
X145699500Y-56897648D01*
X145699500Y-57102351D01*
X145731522Y-57304534D01*
X145794781Y-57499223D01*
X145834303Y-57576788D01*
X145887585Y-57681359D01*
X145887715Y-57681613D01*
X146008028Y-57847213D01*
X146152786Y-57991971D01*
X146273226Y-58079474D01*
X146318390Y-58112287D01*
X146403106Y-58155452D01*
X146500776Y-58205218D01*
X146500778Y-58205218D01*
X146500781Y-58205220D01*
X146594395Y-58235637D01*
X146695465Y-58268477D01*
X146730822Y-58274077D01*
X146897648Y-58300500D01*
X146897649Y-58300500D01*
X147102351Y-58300500D01*
X147102352Y-58300500D01*
X147304534Y-58268477D01*
X147499219Y-58205220D01*
X147681610Y-58112287D01*
X147774590Y-58044732D01*
X147847213Y-57991971D01*
X147847215Y-57991968D01*
X147847219Y-57991966D01*
X147991966Y-57847219D01*
X148010771Y-57821336D01*
X148025100Y-57801615D01*
X148080429Y-57758949D01*
X148125418Y-57750500D01*
X150073920Y-57750500D01*
X150171462Y-57731096D01*
X150218913Y-57721658D01*
X150355495Y-57665084D01*
X150404729Y-57632186D01*
X150478416Y-57582952D01*
X151734548Y-56326818D01*
X151795871Y-56293334D01*
X151822229Y-56290500D01*
X153563057Y-56290500D01*
X153630096Y-56310185D01*
X153663374Y-56341613D01*
X153729641Y-56432821D01*
X153882179Y-56585359D01*
X153966258Y-56646446D01*
X154053294Y-56709682D01*
X154095959Y-56765012D01*
X154101938Y-56834626D01*
X154069332Y-56896421D01*
X154053294Y-56910318D01*
X153992483Y-56954500D01*
X153882179Y-57034641D01*
X153882177Y-57034643D01*
X153882176Y-57034643D01*
X153729643Y-57187176D01*
X153729643Y-57187177D01*
X153729641Y-57187179D01*
X153718475Y-57202548D01*
X153602843Y-57361700D01*
X153504909Y-57553908D01*
X153438245Y-57759077D01*
X153404500Y-57972133D01*
X153404500Y-58187866D01*
X153428082Y-58336754D01*
X153438246Y-58400926D01*
X153504908Y-58606089D01*
X153602843Y-58798299D01*
X153729641Y-58972821D01*
X153882179Y-59125359D01*
X154056701Y-59252157D01*
X154248911Y-59350092D01*
X154454074Y-59416754D01*
X154533973Y-59429408D01*
X154667134Y-59450500D01*
X154667139Y-59450500D01*
X155332866Y-59450500D01*
X155451230Y-59431752D01*
X155545926Y-59416754D01*
X155751089Y-59350092D01*
X155943299Y-59252157D01*
X156117821Y-59125359D01*
X156270359Y-58972821D01*
X156397157Y-58798299D01*
X156495092Y-58606089D01*
X156561754Y-58400926D01*
X156582476Y-58270092D01*
X156595500Y-58187866D01*
X156595500Y-57972133D01*
X156561754Y-57759077D01*
X156561754Y-57759074D01*
X156495092Y-57553911D01*
X156397157Y-57361701D01*
X156270359Y-57187179D01*
X156117821Y-57034641D01*
X155946704Y-56910317D01*
X155904040Y-56854988D01*
X155898061Y-56785374D01*
X155930667Y-56723580D01*
X155946702Y-56709684D01*
X156117821Y-56585359D01*
X156270359Y-56432821D01*
X156397157Y-56258299D01*
X156495092Y-56066089D01*
X156561754Y-55860926D01*
X156576752Y-55766230D01*
X156595500Y-55647866D01*
X156595500Y-55432133D01*
X156573002Y-55290095D01*
X156561754Y-55219074D01*
X156495092Y-55013911D01*
X156397157Y-54821701D01*
X156270359Y-54647179D01*
X156127996Y-54504816D01*
X156094511Y-54443493D01*
X156099495Y-54373801D01*
X156141367Y-54317868D01*
X156163289Y-54304745D01*
X156164127Y-54304354D01*
X156313345Y-54212315D01*
X156437315Y-54088345D01*
X156529356Y-53939124D01*
X156529358Y-53939119D01*
X156584505Y-53772697D01*
X156584506Y-53772690D01*
X156594999Y-53669986D01*
X156595000Y-53669973D01*
X156595000Y-53250000D01*
X155542709Y-53250000D01*
X155554452Y-53229661D01*
X155595000Y-53078333D01*
X155595000Y-52921667D01*
X155554452Y-52770339D01*
X155542709Y-52750000D01*
X156594999Y-52750000D01*
X156594999Y-52330028D01*
X156594998Y-52330013D01*
X156584505Y-52227302D01*
X156529358Y-52060880D01*
X156529356Y-52060875D01*
X156437315Y-51911654D01*
X156313345Y-51787684D01*
X156164124Y-51695643D01*
X156164119Y-51695641D01*
X155997697Y-51640494D01*
X155997690Y-51640493D01*
X155894986Y-51630000D01*
X155250000Y-51630000D01*
X155250000Y-52457290D01*
X155229661Y-52445548D01*
X155078333Y-52405000D01*
X154921667Y-52405000D01*
X154770339Y-52445548D01*
X154750000Y-52457290D01*
X154750000Y-51630000D01*
X154105028Y-51630000D01*
X154105012Y-51630001D01*
X154002302Y-51640494D01*
X153835880Y-51695641D01*
X153835875Y-51695643D01*
X153686654Y-51787684D01*
X153562684Y-51911654D01*
X153470643Y-52060875D01*
X153470641Y-52060880D01*
X153415494Y-52227302D01*
X153415493Y-52227309D01*
X153405000Y-52330013D01*
X153405000Y-52750000D01*
X154457291Y-52750000D01*
X154445548Y-52770339D01*
X154405000Y-52921667D01*
X154405000Y-53078333D01*
X154445548Y-53229661D01*
X154457291Y-53250000D01*
X153405001Y-53250000D01*
X153405001Y-53669986D01*
X153415494Y-53772697D01*
X153470641Y-53939119D01*
X153470643Y-53939124D01*
X153562684Y-54088345D01*
X153686654Y-54212315D01*
X153835876Y-54304356D01*
X153836716Y-54304748D01*
X153837195Y-54305170D01*
X153842025Y-54308149D01*
X153841516Y-54308973D01*
X153889160Y-54350915D01*
X153908318Y-54418107D01*
X153888109Y-54484990D01*
X153872004Y-54504816D01*
X153729640Y-54647180D01*
X153663375Y-54738386D01*
X153608044Y-54781051D01*
X153563057Y-54789500D01*
X151770514Y-54789500D01*
X151723060Y-54780060D01*
X151718912Y-54778342D01*
X151718906Y-54778340D01*
X151573919Y-54749500D01*
X151573917Y-54749500D01*
X151426082Y-54749500D01*
X151426080Y-54749500D01*
X151281092Y-54778340D01*
X151281082Y-54778343D01*
X151144509Y-54834913D01*
X151113548Y-54855601D01*
X151021581Y-54917050D01*
X150987965Y-54950667D01*
X150917048Y-55021584D01*
X149725451Y-56213181D01*
X149664128Y-56246666D01*
X149637770Y-56249500D01*
X148125418Y-56249500D01*
X148058379Y-56229815D01*
X148025100Y-56198385D01*
X147991971Y-56152787D01*
X147991967Y-56152782D01*
X147847213Y-56008028D01*
X147681613Y-55887715D01*
X147681612Y-55887714D01*
X147681610Y-55887713D01*
X147624653Y-55858691D01*
X147499223Y-55794781D01*
X147304534Y-55731522D01*
X147129995Y-55703878D01*
X147102352Y-55699500D01*
X146897648Y-55699500D01*
X146873329Y-55703351D01*
X146695465Y-55731522D01*
X146500776Y-55794781D01*
X146318386Y-55887715D01*
X146152786Y-56008028D01*
X146008028Y-56152786D01*
X145887715Y-56318386D01*
X145794781Y-56500776D01*
X145731522Y-56695465D01*
X145699500Y-56897648D01*
X143299995Y-56897648D01*
X143267990Y-56695582D01*
X143204755Y-56500968D01*
X143111859Y-56318650D01*
X143079474Y-56274077D01*
X143079474Y-56274076D01*
X142400000Y-56953551D01*
X142400000Y-56947339D01*
X142372741Y-56845606D01*
X142320080Y-56754394D01*
X142245606Y-56679920D01*
X142154394Y-56627259D01*
X142052661Y-56600000D01*
X142046446Y-56600000D01*
X142725922Y-55920524D01*
X142725921Y-55920523D01*
X142681359Y-55888147D01*
X142681350Y-55888141D01*
X142499031Y-55795244D01*
X142304417Y-55732009D01*
X142102317Y-55700000D01*
X141897683Y-55700000D01*
X141695582Y-55732009D01*
X141500968Y-55795244D01*
X141318644Y-55888143D01*
X141274077Y-55920523D01*
X141274077Y-55920524D01*
X141953554Y-56600000D01*
X141947339Y-56600000D01*
X141845606Y-56627259D01*
X141754394Y-56679920D01*
X141679920Y-56754394D01*
X141627259Y-56845606D01*
X141600000Y-56947339D01*
X141600000Y-56953553D01*
X140920524Y-56274077D01*
X140920523Y-56274077D01*
X140888143Y-56318644D01*
X140795244Y-56500968D01*
X140732009Y-56695582D01*
X140700000Y-56897682D01*
X125098012Y-56897682D01*
X125073402Y-56742299D01*
X125019873Y-56577555D01*
X124941232Y-56423212D01*
X124839414Y-56283072D01*
X124716928Y-56160586D01*
X124589634Y-56068101D01*
X124576787Y-56058767D01*
X124422449Y-55980129D01*
X124422448Y-55980128D01*
X124422445Y-55980127D01*
X124322544Y-55947667D01*
X124264871Y-55908230D01*
X124237673Y-55843871D01*
X124249588Y-55775025D01*
X124296832Y-55723549D01*
X124322547Y-55711806D01*
X124422255Y-55679408D01*
X124576524Y-55600804D01*
X124716602Y-55499032D01*
X124839032Y-55376602D01*
X124940804Y-55236524D01*
X125019408Y-55082257D01*
X125072914Y-54917584D01*
X125100000Y-54746571D01*
X125100000Y-54710000D01*
X124244975Y-54710000D01*
X124280070Y-54674905D01*
X124326148Y-54595095D01*
X124350000Y-54506078D01*
X124350000Y-54413922D01*
X124326148Y-54324905D01*
X124280070Y-54245095D01*
X124244975Y-54210000D01*
X124250000Y-54210000D01*
X125100000Y-54210000D01*
X125100000Y-54173428D01*
X125072914Y-54002415D01*
X125019408Y-53837742D01*
X124940804Y-53683475D01*
X124839032Y-53543397D01*
X124716602Y-53420967D01*
X124576524Y-53319195D01*
X124422255Y-53240591D01*
X124419713Y-53239765D01*
X124419712Y-53239765D01*
X124257589Y-53187087D01*
X124257581Y-53187085D01*
X124250000Y-53185884D01*
X124250000Y-54210000D01*
X124244975Y-54210000D01*
X124214905Y-54179930D01*
X124135095Y-54133852D01*
X124046078Y-54110000D01*
X123953922Y-54110000D01*
X123864905Y-54133852D01*
X123785095Y-54179930D01*
X123719930Y-54245095D01*
X123673852Y-54324905D01*
X123650000Y-54413922D01*
X123650000Y-54506078D01*
X123673852Y-54595095D01*
X123719930Y-54674905D01*
X123755025Y-54710000D01*
X123171694Y-54710000D01*
X123133376Y-54703931D01*
X122987698Y-54656597D01*
X122856271Y-54635781D01*
X122816611Y-54629500D01*
X122643389Y-54629500D01*
X122603728Y-54635781D01*
X122472302Y-54656597D01*
X122307552Y-54710128D01*
X122153211Y-54788768D01*
X122089699Y-54834913D01*
X122013072Y-54890586D01*
X122013070Y-54890588D01*
X122013069Y-54890588D01*
X121890588Y-55013069D01*
X121890588Y-55013070D01*
X121890586Y-55013072D01*
X121846859Y-55073256D01*
X121788768Y-55153211D01*
X121710128Y-55307552D01*
X121656597Y-55472302D01*
X121629500Y-55643389D01*
X121629500Y-55816610D01*
X121655398Y-55980129D01*
X121656598Y-55987701D01*
X121710127Y-56152445D01*
X121788768Y-56306788D01*
X121890586Y-56446928D01*
X122013072Y-56569414D01*
X122153212Y-56671232D01*
X122307555Y-56749873D01*
X122472299Y-56803402D01*
X122643389Y-56830500D01*
X122643390Y-56830500D01*
X122775500Y-56830500D01*
X122784185Y-56833050D01*
X122793147Y-56831762D01*
X122817187Y-56842740D01*
X122842539Y-56850185D01*
X122848466Y-56857025D01*
X122856703Y-56860787D01*
X122870992Y-56883021D01*
X122888294Y-56902989D01*
X122890581Y-56913503D01*
X122894477Y-56919565D01*
X122899500Y-56954500D01*
X122899500Y-56987770D01*
X122879815Y-57054809D01*
X122863181Y-57075451D01*
X121725451Y-58213181D01*
X121664128Y-58246666D01*
X121637770Y-58249500D01*
X117625418Y-58249500D01*
X117558379Y-58229815D01*
X117525100Y-58198385D01*
X117491971Y-58152787D01*
X117491967Y-58152782D01*
X117347213Y-58008028D01*
X117181613Y-57887715D01*
X117181612Y-57887714D01*
X117181610Y-57887713D01*
X117124653Y-57858691D01*
X116999223Y-57794781D01*
X116804534Y-57731522D01*
X116629995Y-57703878D01*
X116602352Y-57699500D01*
X116397648Y-57699500D01*
X116346082Y-57707667D01*
X116276789Y-57698712D01*
X116223337Y-57653716D01*
X116202698Y-57586964D01*
X116221423Y-57519651D01*
X116223566Y-57516328D01*
X116245084Y-57484125D01*
X116295794Y-57361701D01*
X116295795Y-57361700D01*
X116299169Y-57353553D01*
X116301659Y-57347542D01*
X116330500Y-57202547D01*
X116330500Y-57054712D01*
X116330500Y-54724499D01*
X116350185Y-54657460D01*
X116402989Y-54611705D01*
X116454500Y-54600499D01*
X116727871Y-54600499D01*
X116727872Y-54600499D01*
X116787483Y-54594091D01*
X116922331Y-54543796D01*
X117037546Y-54457546D01*
X117123796Y-54342331D01*
X117174091Y-54207483D01*
X117177752Y-54173428D01*
X122900000Y-54173428D01*
X122900000Y-54210000D01*
X123750000Y-54210000D01*
X123750000Y-53185884D01*
X123749999Y-53185884D01*
X123742418Y-53187085D01*
X123742410Y-53187087D01*
X123577742Y-53240591D01*
X123423475Y-53319195D01*
X123283397Y-53420967D01*
X123160967Y-53543397D01*
X123059195Y-53683475D01*
X122980591Y-53837742D01*
X122927085Y-54002415D01*
X122900000Y-54173428D01*
X117177752Y-54173428D01*
X117180500Y-54147873D01*
X117180500Y-53124983D01*
X130089500Y-53124983D01*
X130089500Y-54915001D01*
X130089501Y-54915018D01*
X130100000Y-55017796D01*
X130100001Y-55017799D01*
X130155185Y-55184331D01*
X130155187Y-55184336D01*
X130187377Y-55236524D01*
X130247288Y-55333656D01*
X130371344Y-55457712D01*
X130520666Y-55549814D01*
X130687203Y-55604999D01*
X130789991Y-55615500D01*
X132130008Y-55615499D01*
X132232797Y-55604999D01*
X132399334Y-55549814D01*
X132548656Y-55457712D01*
X132672712Y-55333656D01*
X132764814Y-55184334D01*
X132764817Y-55184322D01*
X132765129Y-55183657D01*
X132765469Y-55183269D01*
X132768605Y-55178187D01*
X132769473Y-55178722D01*
X132811299Y-55131216D01*
X132878491Y-55112060D01*
X132945373Y-55132272D01*
X132965195Y-55148375D01*
X133107179Y-55290359D01*
X133281701Y-55417157D01*
X133473911Y-55515092D01*
X133679074Y-55581754D01*
X133758973Y-55594408D01*
X133892134Y-55615500D01*
X133892139Y-55615500D01*
X134107866Y-55615500D01*
X134226230Y-55596752D01*
X134320926Y-55581754D01*
X134526089Y-55515092D01*
X134718299Y-55417157D01*
X134892821Y-55290359D01*
X135045359Y-55137821D01*
X135169682Y-54966704D01*
X135225012Y-54924040D01*
X135294626Y-54918061D01*
X135356420Y-54950667D01*
X135370315Y-54966702D01*
X135494641Y-55137821D01*
X135647179Y-55290359D01*
X135821701Y-55417157D01*
X136013911Y-55515092D01*
X136219074Y-55581754D01*
X136298973Y-55594408D01*
X136432134Y-55615500D01*
X136432139Y-55615500D01*
X136647866Y-55615500D01*
X136766230Y-55596752D01*
X136860926Y-55581754D01*
X137066089Y-55515092D01*
X137258299Y-55417157D01*
X137432821Y-55290359D01*
X137585359Y-55137821D01*
X137712157Y-54963299D01*
X137775895Y-54838205D01*
X137823869Y-54787409D01*
X137886380Y-54770500D01*
X140053920Y-54770500D01*
X140151462Y-54751096D01*
X140198913Y-54741658D01*
X140335495Y-54685084D01*
X140418683Y-54629500D01*
X140458416Y-54602952D01*
X141734894Y-53326471D01*
X141796215Y-53292988D01*
X141841970Y-53291681D01*
X141897648Y-53300500D01*
X141897649Y-53300500D01*
X142102351Y-53300500D01*
X142102352Y-53300500D01*
X142304534Y-53268477D01*
X142499219Y-53205220D01*
X142681610Y-53112287D01*
X142805601Y-53022203D01*
X142847213Y-52991971D01*
X142847215Y-52991968D01*
X142847219Y-52991966D01*
X142991966Y-52847219D01*
X142991968Y-52847215D01*
X142991971Y-52847213D01*
X143062599Y-52750000D01*
X143112287Y-52681610D01*
X143205220Y-52499219D01*
X143268477Y-52304534D01*
X143300500Y-52102352D01*
X143300500Y-51897682D01*
X145700000Y-51897682D01*
X145700000Y-52102317D01*
X145732009Y-52304417D01*
X145795244Y-52499031D01*
X145888141Y-52681350D01*
X145888147Y-52681359D01*
X145920523Y-52725921D01*
X145920524Y-52725922D01*
X146600000Y-52046446D01*
X146600000Y-52052661D01*
X146627259Y-52154394D01*
X146679920Y-52245606D01*
X146754394Y-52320080D01*
X146845606Y-52372741D01*
X146947339Y-52400000D01*
X146953553Y-52400000D01*
X146274076Y-53079474D01*
X146318650Y-53111859D01*
X146500968Y-53204755D01*
X146695582Y-53267990D01*
X146897683Y-53300000D01*
X147102317Y-53300000D01*
X147304417Y-53267990D01*
X147499031Y-53204755D01*
X147681349Y-53111859D01*
X147725921Y-53079474D01*
X147046447Y-52400000D01*
X147052661Y-52400000D01*
X147154394Y-52372741D01*
X147245606Y-52320080D01*
X147320080Y-52245606D01*
X147372741Y-52154394D01*
X147400000Y-52052661D01*
X147400000Y-52046447D01*
X148079474Y-52725921D01*
X148111859Y-52681349D01*
X148204755Y-52499031D01*
X148267989Y-52304419D01*
X148300000Y-52102317D01*
X148300000Y-51897682D01*
X148267990Y-51695582D01*
X148204755Y-51500968D01*
X148111859Y-51318650D01*
X148079474Y-51274077D01*
X148079474Y-51274076D01*
X147400000Y-51953551D01*
X147400000Y-51947339D01*
X147372741Y-51845606D01*
X147320080Y-51754394D01*
X147245606Y-51679920D01*
X147154394Y-51627259D01*
X147052661Y-51600000D01*
X147046446Y-51600000D01*
X147725922Y-50920524D01*
X147725921Y-50920523D01*
X147681359Y-50888147D01*
X147681350Y-50888141D01*
X147499031Y-50795244D01*
X147304417Y-50732009D01*
X147102317Y-50700000D01*
X146897683Y-50700000D01*
X146695582Y-50732009D01*
X146500968Y-50795244D01*
X146318644Y-50888143D01*
X146274077Y-50920523D01*
X146274077Y-50920524D01*
X146953554Y-51600000D01*
X146947339Y-51600000D01*
X146845606Y-51627259D01*
X146754394Y-51679920D01*
X146679920Y-51754394D01*
X146627259Y-51845606D01*
X146600000Y-51947339D01*
X146600000Y-51953553D01*
X145920524Y-51274077D01*
X145920523Y-51274077D01*
X145888143Y-51318644D01*
X145795244Y-51500968D01*
X145732009Y-51695582D01*
X145700000Y-51897682D01*
X143300500Y-51897682D01*
X143300500Y-51897648D01*
X143283849Y-51792517D01*
X143268477Y-51695465D01*
X143237458Y-51600000D01*
X143205220Y-51500781D01*
X143205218Y-51500778D01*
X143205218Y-51500776D01*
X143156880Y-51405909D01*
X143112287Y-51318390D01*
X143104556Y-51307749D01*
X142991971Y-51152786D01*
X142847213Y-51008028D01*
X142681613Y-50887715D01*
X142681612Y-50887714D01*
X142681610Y-50887713D01*
X142597681Y-50844949D01*
X142499223Y-50794781D01*
X142304534Y-50731522D01*
X142129995Y-50703878D01*
X142102352Y-50699500D01*
X141897648Y-50699500D01*
X141873329Y-50703351D01*
X141695465Y-50731522D01*
X141500776Y-50794781D01*
X141318386Y-50887715D01*
X141152786Y-51008028D01*
X141008028Y-51152786D01*
X140887715Y-51318386D01*
X140794781Y-51500776D01*
X140731522Y-51695465D01*
X140699500Y-51897648D01*
X140699500Y-52102351D01*
X140708318Y-52158026D01*
X140699363Y-52227320D01*
X140673526Y-52265105D01*
X139705451Y-53233181D01*
X139644128Y-53266666D01*
X139617770Y-53269500D01*
X137886380Y-53269500D01*
X137819341Y-53249815D01*
X137775895Y-53201795D01*
X137752076Y-53155048D01*
X137712157Y-53076701D01*
X137585359Y-52902179D01*
X137432821Y-52749641D01*
X137258299Y-52622843D01*
X137066089Y-52524908D01*
X136860926Y-52458246D01*
X136860924Y-52458245D01*
X136860922Y-52458245D01*
X136647866Y-52424500D01*
X136647861Y-52424500D01*
X136432139Y-52424500D01*
X136432134Y-52424500D01*
X136219077Y-52458245D01*
X136219074Y-52458246D01*
X136033904Y-52518412D01*
X136013908Y-52524909D01*
X135821700Y-52622843D01*
X135741173Y-52681350D01*
X135647179Y-52749641D01*
X135647177Y-52749643D01*
X135647176Y-52749643D01*
X135494643Y-52902176D01*
X135494643Y-52902177D01*
X135494641Y-52902179D01*
X135429407Y-52991966D01*
X135370318Y-53073294D01*
X135314988Y-53115959D01*
X135245374Y-53121938D01*
X135183579Y-53089332D01*
X135169682Y-53073294D01*
X135138302Y-53030104D01*
X135045359Y-52902179D01*
X134892821Y-52749641D01*
X134718299Y-52622843D01*
X134526089Y-52524908D01*
X134320926Y-52458246D01*
X134320924Y-52458245D01*
X134320922Y-52458245D01*
X134107866Y-52424500D01*
X134107861Y-52424500D01*
X133892139Y-52424500D01*
X133892134Y-52424500D01*
X133679077Y-52458245D01*
X133679074Y-52458246D01*
X133493904Y-52518412D01*
X133473908Y-52524909D01*
X133281700Y-52622843D01*
X133107180Y-52749640D01*
X132965195Y-52891625D01*
X132903872Y-52925109D01*
X132834180Y-52920125D01*
X132778247Y-52878253D01*
X132765132Y-52856348D01*
X132764815Y-52855669D01*
X132764814Y-52855668D01*
X132764814Y-52855666D01*
X132672712Y-52706344D01*
X132548656Y-52582288D01*
X132445096Y-52518412D01*
X132399336Y-52490187D01*
X132399331Y-52490185D01*
X132391174Y-52487482D01*
X132232797Y-52435001D01*
X132232795Y-52435000D01*
X132130010Y-52424500D01*
X130789998Y-52424500D01*
X130789981Y-52424501D01*
X130687203Y-52435000D01*
X130687200Y-52435001D01*
X130520668Y-52490185D01*
X130520663Y-52490187D01*
X130371342Y-52582289D01*
X130247289Y-52706342D01*
X130155187Y-52855663D01*
X130155185Y-52855668D01*
X130147193Y-52879786D01*
X130100001Y-53022203D01*
X130100001Y-53022204D01*
X130100000Y-53022204D01*
X130089500Y-53124983D01*
X117180500Y-53124983D01*
X117180499Y-51852128D01*
X117174091Y-51792517D01*
X117172288Y-51787684D01*
X117123797Y-51657671D01*
X117123793Y-51657664D01*
X117037547Y-51542455D01*
X117037544Y-51542452D01*
X116922335Y-51456206D01*
X116922328Y-51456202D01*
X116787482Y-51405908D01*
X116787483Y-51405908D01*
X116727883Y-51399501D01*
X116727881Y-51399500D01*
X116727873Y-51399500D01*
X116727864Y-51399500D01*
X114432129Y-51399500D01*
X114432123Y-51399501D01*
X114372516Y-51405908D01*
X114237671Y-51456202D01*
X114237664Y-51456206D01*
X114122455Y-51542452D01*
X114122452Y-51542455D01*
X114036206Y-51657664D01*
X114036202Y-51657671D01*
X113985908Y-51792517D01*
X113980201Y-51845606D01*
X113979501Y-51852123D01*
X113979500Y-51852135D01*
X113979500Y-54147870D01*
X113979501Y-54147876D01*
X113985908Y-54207483D01*
X114036202Y-54342328D01*
X114036206Y-54342335D01*
X114122452Y-54457544D01*
X114122455Y-54457547D01*
X114237664Y-54543793D01*
X114237671Y-54543797D01*
X114282618Y-54560561D01*
X114372517Y-54594091D01*
X114432127Y-54600500D01*
X114705501Y-54600499D01*
X114772539Y-54620183D01*
X114818294Y-54672987D01*
X114829500Y-54724499D01*
X114829500Y-56766400D01*
X114809815Y-56833439D01*
X114793181Y-56854081D01*
X112956516Y-58690745D01*
X112895193Y-58724230D01*
X112825501Y-58719246D01*
X112769568Y-58677374D01*
X112750904Y-58641382D01*
X112739437Y-58606091D01*
X112705220Y-58500781D01*
X112612287Y-58318390D01*
X112577002Y-58269824D01*
X112491971Y-58152786D01*
X112347213Y-58008028D01*
X112181613Y-57887715D01*
X112181612Y-57887714D01*
X112181610Y-57887713D01*
X112124653Y-57858691D01*
X111999223Y-57794781D01*
X111804534Y-57731522D01*
X111629995Y-57703878D01*
X111602352Y-57699500D01*
X111397648Y-57699500D01*
X111373329Y-57703351D01*
X111195465Y-57731522D01*
X111000776Y-57794781D01*
X110818386Y-57887715D01*
X110652786Y-58008028D01*
X110508028Y-58152786D01*
X110387715Y-58318386D01*
X110294781Y-58500776D01*
X110231522Y-58695465D01*
X110199500Y-58897648D01*
X110199500Y-59102351D01*
X110231522Y-59304534D01*
X110294781Y-59499223D01*
X110337443Y-59582950D01*
X110387585Y-59681359D01*
X110387715Y-59681613D01*
X110508028Y-59847213D01*
X110652786Y-59991971D01*
X110773226Y-60079474D01*
X110818390Y-60112287D01*
X110907212Y-60157544D01*
X111000776Y-60205218D01*
X111000778Y-60205218D01*
X111000781Y-60205220D01*
X111119506Y-60243796D01*
X111141382Y-60250904D01*
X111199057Y-60290342D01*
X111226255Y-60354701D01*
X111214340Y-60423547D01*
X111190744Y-60456516D01*
X109417050Y-62230210D01*
X109417044Y-62230218D01*
X109367812Y-62303898D01*
X109367813Y-62303899D01*
X109334921Y-62353126D01*
X109334914Y-62353138D01*
X109278342Y-62489716D01*
X109278340Y-62489722D01*
X109249500Y-62634709D01*
X109249500Y-62714582D01*
X109229815Y-62781621D01*
X109198385Y-62814900D01*
X109152787Y-62848028D01*
X109152782Y-62848032D01*
X109008032Y-62992782D01*
X109008028Y-62992787D01*
X108974900Y-63038385D01*
X108919571Y-63081051D01*
X108874582Y-63089500D01*
X107125418Y-63089500D01*
X107058379Y-63069815D01*
X107025100Y-63038385D01*
X106991971Y-62992787D01*
X106991967Y-62992782D01*
X106847213Y-62848028D01*
X106681613Y-62727715D01*
X106681612Y-62727714D01*
X106681610Y-62727713D01*
X106568315Y-62669986D01*
X106499223Y-62634781D01*
X106304534Y-62571522D01*
X106129995Y-62543878D01*
X106102352Y-62539500D01*
X105897648Y-62539500D01*
X105841972Y-62548318D01*
X105772679Y-62539363D01*
X105734894Y-62513526D01*
X103341265Y-60119896D01*
X102119051Y-58897682D01*
X104200000Y-58897682D01*
X104200000Y-59102317D01*
X104232009Y-59304417D01*
X104295244Y-59499031D01*
X104388141Y-59681350D01*
X104388147Y-59681359D01*
X104420523Y-59725921D01*
X104420524Y-59725922D01*
X105100000Y-59046446D01*
X105100000Y-59052661D01*
X105127259Y-59154394D01*
X105179920Y-59245606D01*
X105254394Y-59320080D01*
X105345606Y-59372741D01*
X105447339Y-59400000D01*
X105453553Y-59400000D01*
X104774076Y-60079474D01*
X104818650Y-60111859D01*
X105000968Y-60204755D01*
X105195582Y-60267990D01*
X105397683Y-60300000D01*
X105602317Y-60300000D01*
X105804417Y-60267990D01*
X105999031Y-60204755D01*
X106181349Y-60111859D01*
X106225921Y-60079474D01*
X105546447Y-59400000D01*
X105552661Y-59400000D01*
X105654394Y-59372741D01*
X105745606Y-59320080D01*
X105820080Y-59245606D01*
X105872741Y-59154394D01*
X105900000Y-59052661D01*
X105900000Y-59046448D01*
X106584483Y-59730931D01*
X106634147Y-59741364D01*
X106683905Y-59790415D01*
X106698000Y-59844634D01*
X106699099Y-59844576D01*
X106699146Y-59844571D01*
X106699146Y-59844573D01*
X106699324Y-59844564D01*
X106699501Y-59847876D01*
X106705908Y-59907483D01*
X106756202Y-60042328D01*
X106756206Y-60042335D01*
X106842452Y-60157544D01*
X106842455Y-60157547D01*
X106957664Y-60243793D01*
X106957671Y-60243797D01*
X107092517Y-60294091D01*
X107092516Y-60294091D01*
X107099444Y-60294835D01*
X107152127Y-60300500D01*
X108847872Y-60300499D01*
X108907483Y-60294091D01*
X109042331Y-60243796D01*
X109157546Y-60157546D01*
X109243796Y-60042331D01*
X109294091Y-59907483D01*
X109300500Y-59847873D01*
X109300499Y-58152128D01*
X109294091Y-58092517D01*
X109289226Y-58079474D01*
X109243797Y-57957671D01*
X109243793Y-57957664D01*
X109157547Y-57842455D01*
X109157544Y-57842452D01*
X109042335Y-57756206D01*
X109042328Y-57756202D01*
X108907482Y-57705908D01*
X108907483Y-57705908D01*
X108847883Y-57699501D01*
X108847881Y-57699500D01*
X108847873Y-57699500D01*
X108847864Y-57699500D01*
X107152129Y-57699500D01*
X107152123Y-57699501D01*
X107092516Y-57705908D01*
X106957671Y-57756202D01*
X106957664Y-57756206D01*
X106842455Y-57842452D01*
X106842452Y-57842455D01*
X106756206Y-57957664D01*
X106756202Y-57957671D01*
X106705908Y-58092517D01*
X106699501Y-58152116D01*
X106699501Y-58152123D01*
X106699322Y-58155452D01*
X106697741Y-58155367D01*
X106679815Y-58216419D01*
X106627011Y-58262174D01*
X106583726Y-58269824D01*
X105900000Y-58953551D01*
X105900000Y-58947339D01*
X105872741Y-58845606D01*
X105820080Y-58754394D01*
X105745606Y-58679920D01*
X105654394Y-58627259D01*
X105552661Y-58600000D01*
X105546446Y-58600000D01*
X106225922Y-57920524D01*
X106225921Y-57920523D01*
X106181359Y-57888147D01*
X106181350Y-57888141D01*
X105999031Y-57795244D01*
X105804417Y-57732009D01*
X105602317Y-57700000D01*
X105397683Y-57700000D01*
X105195582Y-57732009D01*
X105000968Y-57795244D01*
X104818644Y-57888143D01*
X104774077Y-57920523D01*
X104774077Y-57920524D01*
X105453554Y-58600000D01*
X105447339Y-58600000D01*
X105345606Y-58627259D01*
X105254394Y-58679920D01*
X105179920Y-58754394D01*
X105127259Y-58845606D01*
X105100000Y-58947339D01*
X105100000Y-58953553D01*
X104420524Y-58274077D01*
X104420523Y-58274077D01*
X104388143Y-58318644D01*
X104295244Y-58500968D01*
X104232009Y-58695582D01*
X104200000Y-58897682D01*
X102119051Y-58897682D01*
X99638421Y-56417052D01*
X99638414Y-56417046D01*
X99570658Y-56371773D01*
X99570648Y-56371767D01*
X99564729Y-56367813D01*
X99515495Y-56334916D01*
X99429163Y-56299155D01*
X99424663Y-56296846D01*
X99406207Y-56279313D01*
X99380963Y-56259412D01*
X99380154Y-56258299D01*
X99270359Y-56107179D01*
X99117821Y-55954641D01*
X98943299Y-55827843D01*
X98839637Y-55775025D01*
X98751091Y-55729909D01*
X98751090Y-55729908D01*
X98751089Y-55729908D01*
X98545926Y-55663246D01*
X98545924Y-55663245D01*
X98545922Y-55663245D01*
X98332866Y-55629500D01*
X98332861Y-55629500D01*
X97667139Y-55629500D01*
X97667134Y-55629500D01*
X97454077Y-55663245D01*
X97454074Y-55663246D01*
X97342497Y-55699500D01*
X97248908Y-55729909D01*
X97056700Y-55827843D01*
X97011166Y-55860926D01*
X96882179Y-55954641D01*
X96882177Y-55954643D01*
X96882176Y-55954643D01*
X96729643Y-56107176D01*
X96729643Y-56107177D01*
X96729641Y-56107179D01*
X96690838Y-56160587D01*
X96602843Y-56281700D01*
X96504909Y-56473908D01*
X96438245Y-56679077D01*
X96404500Y-56892133D01*
X92500500Y-56892133D01*
X92500500Y-51893713D01*
X94649500Y-51893713D01*
X94649500Y-52106286D01*
X94667578Y-52220430D01*
X94682754Y-52316243D01*
X94739271Y-52490185D01*
X94748444Y-52518414D01*
X94844951Y-52707820D01*
X94969890Y-52879786D01*
X95120213Y-53030109D01*
X95292179Y-53155048D01*
X95292181Y-53155049D01*
X95292184Y-53155051D01*
X95481588Y-53251557D01*
X95683757Y-53317246D01*
X95893713Y-53350500D01*
X95893714Y-53350500D01*
X96106286Y-53350500D01*
X96106287Y-53350500D01*
X96316243Y-53317246D01*
X96518412Y-53251557D01*
X96707816Y-53155051D01*
X96739504Y-53132028D01*
X96766220Y-53112619D01*
X96879786Y-53030109D01*
X96879788Y-53030106D01*
X96879792Y-53030104D01*
X97030104Y-52879792D01*
X97124403Y-52750000D01*
X103839652Y-52750000D01*
X104929252Y-52750000D01*
X104907482Y-52787708D01*
X104870000Y-52927591D01*
X104870000Y-53072409D01*
X104907482Y-53212292D01*
X104929252Y-53250000D01*
X103839652Y-53250000D01*
X103859397Y-53374668D01*
X103859397Y-53374671D01*
X103937219Y-53614184D01*
X104051557Y-53838583D01*
X104199590Y-54042331D01*
X104199590Y-54042332D01*
X104377667Y-54220409D01*
X104581416Y-54368442D01*
X104805815Y-54482780D01*
X105045329Y-54560602D01*
X105170000Y-54580348D01*
X105170000Y-53490747D01*
X105207708Y-53512518D01*
X105347591Y-53550000D01*
X105492409Y-53550000D01*
X105632292Y-53512518D01*
X105670000Y-53490747D01*
X105670000Y-54580347D01*
X105794668Y-54560602D01*
X105794671Y-54560602D01*
X106034184Y-54482780D01*
X106258583Y-54368442D01*
X106462331Y-54220409D01*
X106462332Y-54220409D01*
X106640409Y-54042332D01*
X106640409Y-54042331D01*
X106788442Y-53838583D01*
X106902780Y-53614184D01*
X106980602Y-53374671D01*
X106980602Y-53374668D01*
X107000348Y-53250000D01*
X105910748Y-53250000D01*
X105932518Y-53212292D01*
X105970000Y-53072409D01*
X105970000Y-52927591D01*
X105932518Y-52787708D01*
X105910748Y-52750000D01*
X107000348Y-52750000D01*
X106980602Y-52625331D01*
X106980602Y-52625328D01*
X106902780Y-52385815D01*
X106788442Y-52161416D01*
X106640409Y-51957668D01*
X106640409Y-51957667D01*
X106462332Y-51779590D01*
X106258583Y-51631557D01*
X106034184Y-51517219D01*
X105794670Y-51439397D01*
X105670000Y-51419650D01*
X105670000Y-52509252D01*
X105632292Y-52487482D01*
X105492409Y-52450000D01*
X105347591Y-52450000D01*
X105207708Y-52487482D01*
X105170000Y-52509252D01*
X105170000Y-51419650D01*
X105045330Y-51439397D01*
X105045327Y-51439397D01*
X104805815Y-51517219D01*
X104581416Y-51631557D01*
X104377668Y-51779590D01*
X104377667Y-51779590D01*
X104199590Y-51957667D01*
X104199590Y-51957668D01*
X104051557Y-52161416D01*
X103937219Y-52385815D01*
X103859397Y-52625328D01*
X103859397Y-52625331D01*
X103839652Y-52750000D01*
X97124403Y-52750000D01*
X97155051Y-52707816D01*
X97251557Y-52518412D01*
X97317246Y-52316243D01*
X97350500Y-52106287D01*
X97350500Y-51893713D01*
X97317246Y-51683757D01*
X97251557Y-51481588D01*
X97155051Y-51292184D01*
X97155049Y-51292181D01*
X97155048Y-51292179D01*
X97030109Y-51120213D01*
X96879786Y-50969890D01*
X96707820Y-50844951D01*
X96518414Y-50748444D01*
X96518413Y-50748443D01*
X96518412Y-50748443D01*
X96316243Y-50682754D01*
X96316241Y-50682753D01*
X96316240Y-50682753D01*
X96154957Y-50657208D01*
X96106287Y-50649500D01*
X95893713Y-50649500D01*
X95845042Y-50657208D01*
X95683760Y-50682753D01*
X95481585Y-50748444D01*
X95292179Y-50844951D01*
X95120213Y-50969890D01*
X94969890Y-51120213D01*
X94844951Y-51292179D01*
X94748444Y-51481585D01*
X94682753Y-51683760D01*
X94649500Y-51893713D01*
X92500500Y-51893713D01*
X92500500Y-48624500D01*
X92520185Y-48557461D01*
X92572989Y-48511706D01*
X92624500Y-48500500D01*
X161375500Y-48500500D01*
X161442539Y-48520185D01*
G37*
%TD.AperFunction*%
%TD*%
M02*
