M48
; DRILL file {KiCad 9.0.0} date 2025-05-08T12:21:35+0100
; FORMAT={-:-/ absolute / inch / decimal}
; #@! TF.CreationDate,2025-05-08T12:21:35+01:00
; #@! TF.GenerationSoftware,Kicad,Pcbnew,9.0.0
; #@! TF.FileFunction,Plated,1,2,PTH
FMAT,2
INCH
; #@! TA.AperFunction,Plated,PTH,ComponentDrill
T1C0.0276
; #@! TA.AperFunction,Plated,PTH,ComponentDrill
T2C0.0315
; #@! TA.AperFunction,Plated,PTH,ComponentDrill
T3C0.0394
; #@! TA.AperFunction,Plated,PTH,ComponentDrill
T4C0.0433
; #@! TA.AperFunction,Plated,PTH,ComponentDrill
T5C0.0469
%
G90
G05
T1
X4.685Y-3.3465
X4.735Y-3.3965
X4.785Y-3.3465
X4.8319Y-2.1941
X4.8819Y-2.1441
X4.8819Y-2.2441
X6.013Y-2.7665
X6.063Y-2.7165
X6.063Y-2.8165
T2
X3.7732Y-3.1102
X3.7732Y-3.2677
X3.7732Y-3.4252
X4.0551Y-3.563
X4.0551Y-3.6614
X4.1535Y-2.3228
X4.1732Y-2.5134
X4.1732Y-2.9134
X4.1732Y-3.1102
X4.1732Y-3.2677
X4.1732Y-3.4252
X4.252Y-2.3228
X4.2882Y-3.4252
X4.3307Y-2.5134
X4.3307Y-2.9134
X4.3701Y-3.0709
X4.3701Y-3.1693
X4.3882Y-3.5252
X4.3898Y-2.3228
X4.4882Y-2.5165
X4.4882Y-2.9165
X4.4882Y-3.4252
X4.5866Y-2.3228
X4.6063Y-3.0709
X4.6457Y-2.5165
X4.6457Y-2.9165
X4.6457Y-3.622
X4.8031Y-3.0709
X4.8425Y-2.6378
X4.8425Y-2.8346
X4.8425Y-3.622
X4.9606Y-3.0677
X4.9606Y-3.4677
X5.0Y-3.622
X5.0394Y-2.6378
X5.0394Y-2.8346
X5.1181Y-3.0677
X5.1181Y-3.4677
X5.1969Y-3.622
X5.2Y-2.5134
X5.2Y-2.9134
X5.2756Y-3.0677
X5.2756Y-3.4677
X5.3543Y-2.5165
X5.3543Y-2.9165
X5.4724Y-3.0709
X5.4724Y-3.2677
X5.5118Y-2.5197
X5.5118Y-2.9197
X5.5906Y-2.0472
X5.5906Y-2.2441
X5.7087Y-2.874
X5.7087Y-3.274
X5.748Y-2.5197
X5.748Y-2.7165
X5.7874Y-2.0472
X5.7874Y-2.2441
T3
X6.063Y-3.0315
X6.063Y-3.2283
T4
X4.1504Y-2.0866
X4.5504Y-2.0866
T5
X3.8583Y-2.2441
X3.8583Y-2.3441
X3.8583Y-2.5197
X3.8583Y-2.6197
X3.8583Y-2.8346
X3.8583Y-2.9346
X5.1756Y-2.1268
X5.2756Y-2.1268
X5.3756Y-2.1268
X5.4512Y-3.5425
X5.5512Y-3.5425
X5.6512Y-3.5425
X5.8055Y-3.5425
X5.9055Y-3.5425
X6.0055Y-3.5425
X6.1024Y-2.0866
X6.1024Y-2.1866
X6.1024Y-2.2866
X6.1024Y-2.4409
X6.1024Y-2.5409
M30
